<?xml version="1.0" encoding="utf-8" standalone="no"?>
<!DOCTYPE svg PUBLIC "-//W3C//DTD SVG 1.1//EN"
  "http://www.w3.org/Graphics/SVG/1.1/DTD/svg11.dtd">
<svg xmlns:xlink="http://www.w3.org/1999/xlink" width="852.822187pt" height="349.075152pt" viewBox="0 0 852.822187 349.075152" xmlns="http://www.w3.org/2000/svg" version="1.1">
 <metadata>
  <rdf:RDF xmlns:dc="http://purl.org/dc/elements/1.1/" xmlns:cc="http://creativecommons.org/ns#" xmlns:rdf="http://www.w3.org/1999/02/22-rdf-syntax-ns#">
   <cc:Work>
    <dc:type rdf:resource="http://purl.org/dc/dcmitype/StillImage"/>
    <dc:date>2026-01-02T11:43:28.063961</dc:date>
    <dc:format>image/svg+xml</dc:format>
    <dc:creator>
     <cc:Agent>
      <dc:title>Matplotlib v3.9.4, https://matplotlib.org/</dc:title>
     </cc:Agent>
    </dc:creator>
   </cc:Work>
  </rdf:RDF>
 </metadata>
 <defs>
  <style type="text/css">*{stroke-linejoin: round; stroke-linecap: butt}</style>
 </defs>
 <g id="figure_1">
  <g id="patch_1">
   <path d="M 0 349.075152 
L 852.822187 349.075152 
L 852.822187 0 
L 0 0 
z
" style="fill: #ffffff"/>
  </g>
  <g id="axes_1">
   <g id="patch_2">
    <path d="M 62.802188 309.012965 
L 425.832187 309.012965 
L 425.832187 9.901226 
L 62.802188 9.901226 
z
" style="fill: #ffffff"/>
   </g>
   <g id="patch_3">
    <path d="M 64.617338 309.012965 
L 79.138538 309.012965 
L 79.138538 247.079371 
L 64.617338 247.079371 
z
" clip-path="url(#p223c646e0d)" style="fill: #ffffff; stroke: #0000ff; stroke-width: 1.5; stroke-linejoin: miter"/>
   </g>
   <g id="patch_4">
    <path d="M 82.768838 309.012965 
L 97.290037 309.012965 
L 97.290037 24.144642 
L 82.768838 24.144642 
z
" clip-path="url(#p223c646e0d)" style="fill: #ffffff; stroke: #0000ff; stroke-width: 1.5; stroke-linejoin: miter"/>
   </g>
   <g id="patch_5">
    <path d="M 100.920338 309.012965 
L 115.441538 309.012965 
L 115.441538 209.053004 
L 100.920338 209.053004 
z
" clip-path="url(#p223c646e0d)" style="fill: #ffffff; stroke: #0000ff; stroke-width: 1.5; stroke-linejoin: miter"/>
   </g>
   <g id="patch_6">
    <path d="M 119.071838 309.012965 
L 133.593038 309.012965 
L 133.593038 206.668255 
L 119.071838 206.668255 
z
" clip-path="url(#p223c646e0d)" style="fill: #ffffff; stroke: #0000ff; stroke-width: 1.5; stroke-linejoin: miter"/>
   </g>
   <g id="patch_7">
    <path d="M 137.223338 309.012965 
L 151.744538 309.012965 
L 151.744538 238.834879 
L 137.223338 238.834879 
z
" clip-path="url(#p223c646e0d)" style="fill: #ffffff; stroke: #0000ff; stroke-width: 1.5; stroke-linejoin: miter"/>
   </g>
   <g id="patch_8">
    <path d="M 155.374837 309.012965 
L 169.896037 309.012965 
L 169.896037 236.987815 
L 155.374837 236.987815 
z
" clip-path="url(#p223c646e0d)" style="fill: #ffffff; stroke: #0000ff; stroke-width: 1.5; stroke-linejoin: miter"/>
   </g>
   <g id="patch_9">
    <path d="M 173.526337 309.012965 
L 188.047537 309.012965 
L 188.047537 249.99564 
L 173.526337 249.99564 
z
" clip-path="url(#p223c646e0d)" style="fill: #ffffff; stroke: #0000ff; stroke-width: 1.5; stroke-linejoin: miter"/>
   </g>
   <g id="patch_10">
    <path d="M 191.677837 309.012965 
L 206.199037 309.012965 
L 206.199037 249.612731 
L 191.677837 249.612731 
z
" clip-path="url(#p223c646e0d)" style="fill: #ffffff; stroke: #0000ff; stroke-width: 1.5; stroke-linejoin: miter"/>
   </g>
   <g id="patch_11">
    <path d="M 209.829337 309.012965 
L 224.350538 309.012965 
L 224.350538 254.841072 
L 209.829337 254.841072 
z
" clip-path="url(#p223c646e0d)" style="fill: #ffffff; stroke: #0000ff; stroke-width: 1.5; stroke-linejoin: miter"/>
   </g>
   <g id="patch_12">
    <path d="M 227.980837 309.012965 
L 242.502038 309.012965 
L 242.502038 251.952306 
L 227.980837 251.952306 
z
" clip-path="url(#p223c646e0d)" style="fill: #ffffff; stroke: #0000ff; stroke-width: 1.5; stroke-linejoin: miter"/>
   </g>
   <g id="patch_13">
    <path d="M 246.132337 309.012965 
L 260.653537 309.012965 
L 260.653537 257.699332 
L 246.132337 257.699332 
z
" clip-path="url(#p223c646e0d)" style="fill: #ffffff; stroke: #0000ff; stroke-width: 1.5; stroke-linejoin: miter"/>
   </g>
   <g id="patch_14">
    <path d="M 264.283838 309.012965 
L 278.805038 309.012965 
L 278.805038 259.264655 
L 264.283838 259.264655 
z
" clip-path="url(#p223c646e0d)" style="fill: #ffffff; stroke: #0000ff; stroke-width: 1.5; stroke-linejoin: miter"/>
   </g>
   <g id="patch_15">
    <path d="M 282.435337 309.012965 
L 296.956537 309.012965 
L 296.956537 257.394858 
L 282.435337 257.394858 
z
" clip-path="url(#p223c646e0d)" style="fill: #ffffff; stroke: #0000ff; stroke-width: 1.5; stroke-linejoin: miter"/>
   </g>
   <g id="patch_16">
    <path d="M 300.586838 309.012965 
L 315.108038 309.012965 
L 315.108038 263.895722 
L 300.586838 263.895722 
z
" clip-path="url(#p223c646e0d)" style="fill: #ffffff; stroke: #0000ff; stroke-width: 1.5; stroke-linejoin: miter"/>
   </g>
   <g id="patch_17">
    <path d="M 318.738337 309.012965 
L 333.259537 309.012965 
L 333.259537 267.365061 
L 318.738337 267.365061 
z
" clip-path="url(#p223c646e0d)" style="fill: #ffffff; stroke: #0000ff; stroke-width: 1.5; stroke-linejoin: miter"/>
   </g>
   <g id="patch_18">
    <path d="M 336.889837 309.012965 
L 351.411038 309.012965 
L 351.411038 269.600376 
L 336.889837 269.600376 
z
" clip-path="url(#p223c646e0d)" style="fill: #ffffff; stroke: #0000ff; stroke-width: 1.5; stroke-linejoin: miter"/>
   </g>
   <g id="patch_19">
    <path d="M 355.041337 309.012965 
L 369.562537 309.012965 
L 369.562537 271.033558 
L 355.041337 271.033558 
z
" clip-path="url(#p223c646e0d)" style="fill: #ffffff; stroke: #0000ff; stroke-width: 1.5; stroke-linejoin: miter"/>
   </g>
   <g id="patch_20">
    <path d="M 373.192837 309.012965 
L 387.714038 309.012965 
L 387.714038 271.747588 
L 373.192837 271.747588 
z
" clip-path="url(#p223c646e0d)" style="fill: #ffffff; stroke: #0000ff; stroke-width: 1.5; stroke-linejoin: miter"/>
   </g>
   <g id="patch_21">
    <path d="M 391.344338 309.012965 
L 405.865538 309.012965 
L 405.865538 272.920162 
L 391.344338 272.920162 
z
" clip-path="url(#p223c646e0d)" style="fill: #ffffff; stroke: #0000ff; stroke-width: 1.5; stroke-linejoin: miter"/>
   </g>
   <g id="patch_22">
    <path d="M 409.495837 309.012965 
L 424.017038 309.012965 
L 424.017038 274.154781 
L 409.495837 274.154781 
z
" clip-path="url(#p223c646e0d)" style="fill: #ffffff; stroke: #0000ff; stroke-width: 1.5; stroke-linejoin: miter"/>
   </g>
   <g id="matplotlib.axis_1">
    <g id="xtick_1">
     <g id="line2d_1">
      <defs>
       <path id="m3f69a04342" d="M 0 0 
L 0 -5 
" style="stroke: #000000"/>
      </defs>
      <g>
       <use xlink:href="#m3f69a04342" x="71.877938" y="309.012965" style="stroke: #000000"/>
      </g>
     </g>
     <g id="line2d_2">
      <defs>
       <path id="mcd436939a1" d="M 0 0 
L 0 5 
" style="stroke: #000000"/>
      </defs>
      <g>
       <use xlink:href="#mcd436939a1" x="71.877938" y="9.901226" style="stroke: #000000"/>
      </g>
     </g>
     <g id="text_1">
      <!-- 0.0 -->
      <g transform="translate(62.336063 321.63109) scale(0.12 -0.12)">
       <defs>
        <path id="DejaVuSerif-30" d="M 2034 219 
Q 2513 219 2750 744 
Q 2988 1269 2988 2328 
Q 2988 3391 2750 3916 
Q 2513 4441 2034 4441 
Q 1556 4441 1318 3916 
Q 1081 3391 1081 2328 
Q 1081 1269 1318 744 
Q 1556 219 2034 219 
z
M 2034 -91 
Q 1275 -91 848 546 
Q 422 1184 422 2328 
Q 422 3475 848 4112 
Q 1275 4750 2034 4750 
Q 2797 4750 3222 4112 
Q 3647 3475 3647 2328 
Q 3647 1184 3222 546 
Q 2797 -91 2034 -91 
z
" transform="scale(0.015625)"/>
        <path id="DejaVuSerif-2e" d="M 603 325 
Q 603 500 722 622 
Q 841 744 1019 744 
Q 1191 744 1312 622 
Q 1434 500 1434 325 
Q 1434 153 1312 31 
Q 1191 -91 1019 -91 
Q 841 -91 722 29 
Q 603 150 603 325 
z
" transform="scale(0.015625)"/>
       </defs>
       <use xlink:href="#DejaVuSerif-30"/>
       <use xlink:href="#DejaVuSerif-2e" x="63.623047"/>
       <use xlink:href="#DejaVuSerif-30" x="95.410156"/>
      </g>
     </g>
    </g>
    <g id="xtick_2">
     <g id="line2d_3">
      <g>
       <use xlink:href="#m3f69a04342" x="117.256687" y="309.012965" style="stroke: #000000"/>
      </g>
     </g>
     <g id="line2d_4">
      <g>
       <use xlink:href="#mcd436939a1" x="117.256687" y="9.901226" style="stroke: #000000"/>
      </g>
     </g>
     <g id="text_2">
      <!-- 2.5 -->
      <g transform="translate(107.714812 321.63109) scale(0.12 -0.12)">
       <defs>
        <path id="DejaVuSerif-32" d="M 819 3553 
L 469 3553 
L 469 4384 
Q 803 4563 1142 4656 
Q 1481 4750 1806 4750 
Q 2534 4750 2956 4397 
Q 3378 4044 3378 3438 
Q 3378 2753 2422 1800 
Q 2347 1728 2309 1691 
L 1131 513 
L 3078 513 
L 3078 1088 
L 3444 1088 
L 3444 0 
L 434 0 
L 434 341 
L 1850 1753 
Q 2319 2222 2519 2614 
Q 2719 3006 2719 3438 
Q 2719 3909 2473 4175 
Q 2228 4441 1797 4441 
Q 1350 4441 1106 4219 
Q 863 3997 819 3553 
z
" transform="scale(0.015625)"/>
        <path id="DejaVuSerif-35" d="M 3219 4666 
L 3219 4153 
L 1081 4153 
L 1081 2816 
Q 1244 2928 1461 2984 
Q 1678 3041 1947 3041 
Q 2703 3041 3140 2622 
Q 3578 2203 3578 1478 
Q 3578 738 3136 323 
Q 2694 -91 1894 -91 
Q 1572 -91 1234 -12 
Q 897 66 544 225 
L 544 1131 
L 897 1131 
Q 925 688 1179 453 
Q 1434 219 1894 219 
Q 2388 219 2653 544 
Q 2919 869 2919 1478 
Q 2919 2084 2655 2407 
Q 2391 2731 1894 2731 
Q 1613 2731 1398 2631 
Q 1184 2531 1019 2322 
L 750 2322 
L 750 4666 
L 3219 4666 
z
" transform="scale(0.015625)"/>
       </defs>
       <use xlink:href="#DejaVuSerif-32"/>
       <use xlink:href="#DejaVuSerif-2e" x="63.623047"/>
       <use xlink:href="#DejaVuSerif-35" x="95.410156"/>
      </g>
     </g>
    </g>
    <g id="xtick_3">
     <g id="line2d_5">
      <g>
       <use xlink:href="#m3f69a04342" x="162.635437" y="309.012965" style="stroke: #000000"/>
      </g>
     </g>
     <g id="line2d_6">
      <g>
       <use xlink:href="#mcd436939a1" x="162.635437" y="9.901226" style="stroke: #000000"/>
      </g>
     </g>
     <g id="text_3">
      <!-- 5.0 -->
      <g transform="translate(153.093562 321.63109) scale(0.12 -0.12)">
       <use xlink:href="#DejaVuSerif-35"/>
       <use xlink:href="#DejaVuSerif-2e" x="63.623047"/>
       <use xlink:href="#DejaVuSerif-30" x="95.410156"/>
      </g>
     </g>
    </g>
    <g id="xtick_4">
     <g id="line2d_7">
      <g>
       <use xlink:href="#m3f69a04342" x="208.014187" y="309.012965" style="stroke: #000000"/>
      </g>
     </g>
     <g id="line2d_8">
      <g>
       <use xlink:href="#mcd436939a1" x="208.014187" y="9.901226" style="stroke: #000000"/>
      </g>
     </g>
     <g id="text_4">
      <!-- 7.5 -->
      <g transform="translate(198.472312 321.63109) scale(0.12 -0.12)">
       <defs>
        <path id="DejaVuSerif-37" d="M 3609 4347 
L 1784 0 
L 1319 0 
L 3059 4153 
L 903 4153 
L 903 3578 
L 538 3578 
L 538 4666 
L 3609 4666 
L 3609 4347 
z
" transform="scale(0.015625)"/>
       </defs>
       <use xlink:href="#DejaVuSerif-37"/>
       <use xlink:href="#DejaVuSerif-2e" x="63.623047"/>
       <use xlink:href="#DejaVuSerif-35" x="95.410156"/>
      </g>
     </g>
    </g>
    <g id="xtick_5">
     <g id="line2d_9">
      <g>
       <use xlink:href="#m3f69a04342" x="253.392937" y="309.012965" style="stroke: #000000"/>
      </g>
     </g>
     <g id="line2d_10">
      <g>
       <use xlink:href="#mcd436939a1" x="253.392937" y="9.901226" style="stroke: #000000"/>
      </g>
     </g>
     <g id="text_5">
      <!-- 10.0 -->
      <g transform="translate(240.033562 321.63109) scale(0.12 -0.12)">
       <defs>
        <path id="DejaVuSerif-31" d="M 909 0 
L 909 331 
L 1722 331 
L 1722 4213 
L 781 3603 
L 781 4013 
L 1919 4750 
L 2350 4750 
L 2350 331 
L 3163 331 
L 3163 0 
L 909 0 
z
" transform="scale(0.015625)"/>
       </defs>
       <use xlink:href="#DejaVuSerif-31"/>
       <use xlink:href="#DejaVuSerif-30" x="63.623047"/>
       <use xlink:href="#DejaVuSerif-2e" x="127.246094"/>
       <use xlink:href="#DejaVuSerif-30" x="159.033203"/>
      </g>
     </g>
    </g>
    <g id="xtick_6">
     <g id="line2d_11">
      <g>
       <use xlink:href="#m3f69a04342" x="298.771687" y="309.012965" style="stroke: #000000"/>
      </g>
     </g>
     <g id="line2d_12">
      <g>
       <use xlink:href="#mcd436939a1" x="298.771687" y="9.901226" style="stroke: #000000"/>
      </g>
     </g>
     <g id="text_6">
      <!-- 12.5 -->
      <g transform="translate(285.412312 321.63109) scale(0.12 -0.12)">
       <use xlink:href="#DejaVuSerif-31"/>
       <use xlink:href="#DejaVuSerif-32" x="63.623047"/>
       <use xlink:href="#DejaVuSerif-2e" x="127.246094"/>
       <use xlink:href="#DejaVuSerif-35" x="159.033203"/>
      </g>
     </g>
    </g>
    <g id="xtick_7">
     <g id="line2d_13">
      <g>
       <use xlink:href="#m3f69a04342" x="344.150437" y="309.012965" style="stroke: #000000"/>
      </g>
     </g>
     <g id="line2d_14">
      <g>
       <use xlink:href="#mcd436939a1" x="344.150437" y="9.901226" style="stroke: #000000"/>
      </g>
     </g>
     <g id="text_7">
      <!-- 15.0 -->
      <g transform="translate(330.791062 321.63109) scale(0.12 -0.12)">
       <use xlink:href="#DejaVuSerif-31"/>
       <use xlink:href="#DejaVuSerif-35" x="63.623047"/>
       <use xlink:href="#DejaVuSerif-2e" x="127.246094"/>
       <use xlink:href="#DejaVuSerif-30" x="159.033203"/>
      </g>
     </g>
    </g>
    <g id="xtick_8">
     <g id="line2d_15">
      <g>
       <use xlink:href="#m3f69a04342" x="389.529188" y="309.012965" style="stroke: #000000"/>
      </g>
     </g>
     <g id="line2d_16">
      <g>
       <use xlink:href="#mcd436939a1" x="389.529188" y="9.901226" style="stroke: #000000"/>
      </g>
     </g>
     <g id="text_8">
      <!-- 17.5 -->
      <g transform="translate(376.169813 321.63109) scale(0.12 -0.12)">
       <use xlink:href="#DejaVuSerif-31"/>
       <use xlink:href="#DejaVuSerif-37" x="63.623047"/>
       <use xlink:href="#DejaVuSerif-2e" x="127.246094"/>
       <use xlink:href="#DejaVuSerif-35" x="159.033203"/>
      </g>
     </g>
    </g>
    <g id="text_9">
     <!-- Position from Sequence End (t-k) -->
     <g transform="translate(126.755469 338.764527) scale(0.14 -0.14)">
      <defs>
       <path id="DejaVuSerif-50" d="M 1581 2375 
L 2406 2375 
Q 2872 2375 3115 2626 
Q 3359 2878 3359 3353 
Q 3359 3831 3115 4081 
Q 2872 4331 2406 4331 
L 1581 4331 
L 1581 2375 
z
M 353 0 
L 353 331 
L 947 331 
L 947 4331 
L 353 4331 
L 353 4666 
L 2559 4666 
Q 3259 4666 3668 4311 
Q 4078 3956 4078 3353 
Q 4078 2753 3668 2397 
Q 3259 2041 2559 2041 
L 1581 2041 
L 1581 331 
L 2303 331 
L 2303 0 
L 353 0 
z
" transform="scale(0.015625)"/>
       <path id="DejaVuSerif-6f" d="M 1925 219 
Q 2388 219 2623 584 
Q 2859 950 2859 1663 
Q 2859 2375 2623 2739 
Q 2388 3103 1925 3103 
Q 1463 3103 1227 2739 
Q 991 2375 991 1663 
Q 991 950 1228 584 
Q 1466 219 1925 219 
z
M 1925 -91 
Q 1200 -91 759 389 
Q 319 869 319 1663 
Q 319 2456 758 2934 
Q 1197 3413 1925 3413 
Q 2653 3413 3092 2934 
Q 3531 2456 3531 1663 
Q 3531 869 3092 389 
Q 2653 -91 1925 -91 
z
" transform="scale(0.015625)"/>
       <path id="DejaVuSerif-73" d="M 359 184 
L 359 959 
L 691 959 
Q 703 588 923 403 
Q 1144 219 1575 219 
Q 1963 219 2166 364 
Q 2369 509 2369 788 
Q 2369 1006 2220 1140 
Q 2072 1275 1594 1428 
L 1178 1569 
Q 750 1706 558 1912 
Q 366 2119 366 2438 
Q 366 2894 700 3153 
Q 1034 3413 1625 3413 
Q 1888 3413 2178 3344 
Q 2469 3275 2778 3144 
L 2778 2419 
L 2447 2419 
Q 2434 2741 2221 2922 
Q 2009 3103 1644 3103 
Q 1281 3103 1095 2975 
Q 909 2847 909 2591 
Q 909 2381 1050 2254 
Q 1191 2128 1613 1997 
L 2069 1856 
Q 2541 1709 2748 1489 
Q 2956 1269 2956 922 
Q 2956 450 2595 179 
Q 2234 -91 1600 -91 
Q 1278 -91 972 -22 
Q 666 47 359 184 
z
" transform="scale(0.015625)"/>
       <path id="DejaVuSerif-69" d="M 622 4353 
Q 622 4497 726 4603 
Q 831 4709 978 4709 
Q 1122 4709 1226 4603 
Q 1331 4497 1331 4353 
Q 1331 4206 1228 4103 
Q 1125 4000 978 4000 
Q 831 4000 726 4103 
Q 622 4206 622 4353 
z
M 1356 331 
L 1900 331 
L 1900 0 
L 231 0 
L 231 331 
L 781 331 
L 781 2988 
L 231 2988 
L 231 3322 
L 1356 3322 
L 1356 331 
z
" transform="scale(0.015625)"/>
       <path id="DejaVuSerif-74" d="M 691 2988 
L 184 2988 
L 184 3322 
L 691 3322 
L 691 4353 
L 1269 4353 
L 1269 3322 
L 2350 3322 
L 2350 2988 
L 1269 2988 
L 1269 878 
Q 1269 456 1350 337 
Q 1431 219 1650 219 
Q 1875 219 1978 351 
Q 2081 484 2088 781 
L 2522 781 
Q 2497 328 2275 118 
Q 2053 -91 1600 -91 
Q 1103 -91 897 129 
Q 691 350 691 878 
L 691 2988 
z
" transform="scale(0.015625)"/>
       <path id="DejaVuSerif-6e" d="M 263 0 
L 263 331 
L 781 331 
L 781 2988 
L 231 2988 
L 231 3322 
L 1356 3322 
L 1356 2731 
Q 1516 3069 1770 3241 
Q 2025 3413 2363 3413 
Q 2913 3413 3172 3097 
Q 3431 2781 3431 2113 
L 3431 331 
L 3944 331 
L 3944 0 
L 2356 0 
L 2356 331 
L 2853 331 
L 2853 1931 
Q 2853 2541 2703 2767 
Q 2553 2994 2175 2994 
Q 1775 2994 1565 2701 
Q 1356 2409 1356 1850 
L 1356 331 
L 1856 331 
L 1856 0 
L 263 0 
z
" transform="scale(0.015625)"/>
       <path id="DejaVuSerif-20" transform="scale(0.015625)"/>
       <path id="DejaVuSerif-66" d="M 2753 4078 
L 2450 4078 
Q 2447 4313 2317 4434 
Q 2188 4556 1941 4556 
Q 1619 4556 1487 4379 
Q 1356 4203 1356 3750 
L 1356 3322 
L 2284 3322 
L 2284 2988 
L 1356 2988 
L 1356 331 
L 2094 331 
L 2094 0 
L 231 0 
L 231 331 
L 781 331 
L 781 2988 
L 231 2988 
L 231 3322 
L 781 3322 
L 781 3738 
Q 781 4294 1070 4578 
Q 1359 4863 1919 4863 
Q 2128 4863 2337 4825 
Q 2547 4788 2753 4709 
L 2753 4078 
z
" transform="scale(0.015625)"/>
       <path id="DejaVuSerif-72" d="M 3059 3328 
L 3059 2497 
L 2728 2497 
Q 2713 2744 2591 2866 
Q 2469 2988 2234 2988 
Q 1809 2988 1582 2694 
Q 1356 2400 1356 1850 
L 1356 331 
L 2022 331 
L 2022 0 
L 263 0 
L 263 331 
L 781 331 
L 781 2994 
L 231 2994 
L 231 3322 
L 1356 3322 
L 1356 2731 
Q 1525 3078 1790 3245 
Q 2056 3413 2438 3413 
Q 2578 3413 2733 3391 
Q 2888 3369 3059 3328 
z
" transform="scale(0.015625)"/>
       <path id="DejaVuSerif-6d" d="M 3316 2675 
Q 3481 3041 3739 3227 
Q 3997 3413 4341 3413 
Q 4863 3413 5119 3089 
Q 5375 2766 5375 2113 
L 5375 331 
L 5894 331 
L 5894 0 
L 4300 0 
L 4300 331 
L 4800 331 
L 4800 2047 
Q 4800 2556 4650 2772 
Q 4500 2988 4153 2988 
Q 3769 2988 3567 2697 
Q 3366 2406 3366 1850 
L 3366 331 
L 3866 331 
L 3866 0 
L 2291 0 
L 2291 331 
L 2791 331 
L 2791 2069 
Q 2791 2566 2641 2777 
Q 2491 2988 2144 2988 
Q 1759 2988 1557 2697 
Q 1356 2406 1356 1850 
L 1356 331 
L 1856 331 
L 1856 0 
L 263 0 
L 263 331 
L 781 331 
L 781 2994 
L 231 2994 
L 231 3322 
L 1356 3322 
L 1356 2731 
Q 1516 3063 1762 3238 
Q 2009 3413 2322 3413 
Q 2709 3413 2968 3220 
Q 3228 3028 3316 2675 
z
" transform="scale(0.015625)"/>
       <path id="DejaVuSerif-53" d="M 594 225 
L 594 1288 
L 953 1284 
Q 969 753 1261 498 
Q 1553 244 2150 244 
Q 2706 244 2998 464 
Q 3291 684 3291 1106 
Q 3291 1444 3114 1625 
Q 2938 1806 2369 1978 
L 1753 2163 
Q 1084 2366 811 2669 
Q 538 2972 538 3500 
Q 538 4094 959 4422 
Q 1381 4750 2144 4750 
Q 2469 4750 2856 4679 
Q 3244 4609 3681 4475 
L 3681 3481 
L 3328 3481 
Q 3275 3975 2998 4195 
Q 2722 4416 2156 4416 
Q 1663 4416 1405 4214 
Q 1147 4013 1147 3628 
Q 1147 3294 1340 3103 
Q 1534 2913 2163 2725 
L 2741 2553 
Q 3375 2363 3645 2067 
Q 3916 1772 3916 1275 
Q 3916 597 3481 253 
Q 3047 -91 2188 -91 
Q 1803 -91 1404 -12 
Q 1006 66 594 225 
z
" transform="scale(0.015625)"/>
       <path id="DejaVuSerif-65" d="M 3469 1600 
L 991 1600 
L 991 1575 
Q 991 903 1244 561 
Q 1497 219 1991 219 
Q 2369 219 2611 417 
Q 2853 616 2950 1006 
L 3413 1006 
Q 3275 459 2904 184 
Q 2534 -91 1931 -91 
Q 1203 -91 761 389 
Q 319 869 319 1663 
Q 319 2450 753 2931 
Q 1188 3413 1894 3413 
Q 2647 3413 3050 2948 
Q 3453 2484 3469 1600 
z
M 2791 1931 
Q 2772 2513 2545 2808 
Q 2319 3103 1894 3103 
Q 1497 3103 1269 2806 
Q 1041 2509 991 1931 
L 2791 1931 
z
" transform="scale(0.015625)"/>
       <path id="DejaVuSerif-71" d="M 3359 2988 
L 3359 -997 
L 3909 -997 
L 3909 -1331 
L 2241 -1331 
L 2241 -997 
L 2784 -997 
L 2784 519 
Q 2616 206 2355 57 
Q 2094 -91 1709 -91 
Q 1097 -91 708 395 
Q 319 881 319 1663 
Q 319 2444 706 2928 
Q 1094 3413 1709 3413 
Q 2094 3413 2355 3264 
Q 2616 3116 2784 2803 
L 2784 3322 
L 3909 3322 
L 3909 2988 
L 3359 2988 
z
M 2784 1825 
Q 2784 2422 2554 2737 
Q 2325 3053 1888 3053 
Q 1444 3053 1217 2703 
Q 991 2353 991 1663 
Q 991 975 1217 622 
Q 1444 269 1888 269 
Q 2325 269 2554 583 
Q 2784 897 2784 1497 
L 2784 1825 
z
" transform="scale(0.015625)"/>
       <path id="DejaVuSerif-75" d="M 2266 3322 
L 3341 3322 
L 3341 331 
L 3884 331 
L 3884 0 
L 2766 0 
L 2766 588 
Q 2606 256 2353 82 
Q 2100 -91 1766 -91 
Q 1213 -91 952 223 
Q 691 538 691 1209 
L 691 2988 
L 172 2988 
L 172 3322 
L 1269 3322 
L 1269 1388 
Q 1269 781 1417 556 
Q 1566 331 1947 331 
Q 2347 331 2556 625 
Q 2766 919 2766 1478 
L 2766 2988 
L 2266 2988 
L 2266 3322 
z
" transform="scale(0.015625)"/>
       <path id="DejaVuSerif-63" d="M 3291 997 
Q 3169 466 2822 187 
Q 2475 -91 1925 -91 
Q 1200 -91 759 389 
Q 319 869 319 1663 
Q 319 2459 759 2936 
Q 1200 3413 1925 3413 
Q 2241 3413 2553 3339 
Q 2866 3266 3181 3116 
L 3181 2266 
L 2847 2266 
Q 2781 2703 2561 2903 
Q 2341 3103 1931 3103 
Q 1466 3103 1228 2742 
Q 991 2381 991 1663 
Q 991 944 1227 581 
Q 1463 219 1931 219 
Q 2303 219 2525 412 
Q 2747 606 2828 997 
L 3291 997 
z
" transform="scale(0.015625)"/>
       <path id="DejaVuSerif-45" d="M 353 0 
L 353 331 
L 947 331 
L 947 4331 
L 353 4331 
L 353 4666 
L 4109 4666 
L 4109 3628 
L 3725 3628 
L 3725 4281 
L 1581 4281 
L 1581 2719 
L 3109 2719 
L 3109 3303 
L 3494 3303 
L 3494 1753 
L 3109 1753 
L 3109 2338 
L 1581 2338 
L 1581 384 
L 3775 384 
L 3775 1038 
L 4159 1038 
L 4159 0 
L 353 0 
z
" transform="scale(0.015625)"/>
       <path id="DejaVuSerif-64" d="M 3359 331 
L 3909 331 
L 3909 0 
L 2784 0 
L 2784 519 
Q 2616 206 2355 57 
Q 2094 -91 1709 -91 
Q 1097 -91 708 395 
Q 319 881 319 1663 
Q 319 2444 706 2928 
Q 1094 3413 1709 3413 
Q 2094 3413 2355 3264 
Q 2616 3116 2784 2803 
L 2784 4531 
L 2241 4531 
L 2241 4863 
L 3359 4863 
L 3359 331 
z
M 2784 1497 
L 2784 1825 
Q 2784 2422 2554 2737 
Q 2325 3053 1888 3053 
Q 1444 3053 1217 2703 
Q 991 2353 991 1663 
Q 991 975 1217 622 
Q 1444 269 1888 269 
Q 2325 269 2554 583 
Q 2784 897 2784 1497 
z
" transform="scale(0.015625)"/>
       <path id="DejaVuSerif-28" d="M 2041 -997 
Q 1281 -656 893 83 
Q 506 822 506 1931 
Q 506 3044 893 3783 
Q 1281 4522 2041 4863 
L 2041 4556 
Q 1559 4225 1350 3623 
Q 1141 3022 1141 1931 
Q 1141 844 1350 242 
Q 1559 -359 2041 -691 
L 2041 -997 
z
" transform="scale(0.015625)"/>
       <path id="DejaVuSerif-2d" d="M 281 1959 
L 1881 1959 
L 1881 1472 
L 281 1472 
L 281 1959 
z
" transform="scale(0.015625)"/>
       <path id="DejaVuSerif-6b" d="M 1831 0 
L 219 0 
L 219 331 
L 738 331 
L 738 4531 
L 184 4531 
L 184 4863 
L 1313 4863 
L 1313 1697 
L 2713 2988 
L 2234 2988 
L 2234 3322 
L 3738 3322 
L 3738 2988 
L 3169 2988 
L 2181 2075 
L 3444 331 
L 3922 331 
L 3922 0 
L 2284 0 
L 2284 331 
L 2759 331 
L 1766 1697 
L 1313 1275 
L 1313 331 
L 1831 331 
L 1831 0 
z
" transform="scale(0.015625)"/>
       <path id="DejaVuSerif-29" d="M 453 -997 
L 453 -691 
Q 934 -359 1145 242 
Q 1356 844 1356 1931 
Q 1356 3022 1145 3623 
Q 934 4225 453 4556 
L 453 4863 
Q 1216 4522 1603 3783 
Q 1991 3044 1991 1931 
Q 1991 822 1603 83 
Q 1216 -656 453 -997 
z
" transform="scale(0.015625)"/>
      </defs>
      <use xlink:href="#DejaVuSerif-50"/>
      <use xlink:href="#DejaVuSerif-6f" x="63.285156"/>
      <use xlink:href="#DejaVuSerif-73" x="123.490234"/>
      <use xlink:href="#DejaVuSerif-69" x="174.808594"/>
      <use xlink:href="#DejaVuSerif-74" x="206.791016"/>
      <use xlink:href="#DejaVuSerif-69" x="246.976562"/>
      <use xlink:href="#DejaVuSerif-6f" x="278.958984"/>
      <use xlink:href="#DejaVuSerif-6e" x="339.164062"/>
      <use xlink:href="#DejaVuSerif-20" x="403.568359"/>
      <use xlink:href="#DejaVuSerif-66" x="435.355469"/>
      <use xlink:href="#DejaVuSerif-72" x="472.367188"/>
      <use xlink:href="#DejaVuSerif-6f" x="520.169922"/>
      <use xlink:href="#DejaVuSerif-6d" x="580.375"/>
      <use xlink:href="#DejaVuSerif-20" x="675.199219"/>
      <use xlink:href="#DejaVuSerif-53" x="706.986328"/>
      <use xlink:href="#DejaVuSerif-65" x="775.492188"/>
      <use xlink:href="#DejaVuSerif-71" x="834.671875"/>
      <use xlink:href="#DejaVuSerif-75" x="898.685547"/>
      <use xlink:href="#DejaVuSerif-65" x="963.089844"/>
      <use xlink:href="#DejaVuSerif-6e" x="1022.269531"/>
      <use xlink:href="#DejaVuSerif-63" x="1086.673828"/>
      <use xlink:href="#DejaVuSerif-65" x="1142.679688"/>
      <use xlink:href="#DejaVuSerif-20" x="1201.859375"/>
      <use xlink:href="#DejaVuSerif-45" x="1233.646484"/>
      <use xlink:href="#DejaVuSerif-6e" x="1306.644531"/>
      <use xlink:href="#DejaVuSerif-64" x="1371.048828"/>
      <use xlink:href="#DejaVuSerif-20" x="1435.0625"/>
      <use xlink:href="#DejaVuSerif-28" x="1466.849609"/>
      <use xlink:href="#DejaVuSerif-74" x="1505.863281"/>
      <use xlink:href="#DejaVuSerif-2d" x="1546.048828"/>
      <use xlink:href="#DejaVuSerif-6b" x="1579.837891"/>
      <use xlink:href="#DejaVuSerif-29" x="1640.433594"/>
     </g>
    </g>
   </g>
   <g id="matplotlib.axis_2">
    <g id="ytick_1">
     <g id="line2d_17">
      <defs>
       <path id="mbf5a820e5e" d="M 0 0 
L 5 0 
" style="stroke: #000000"/>
      </defs>
      <g>
       <use xlink:href="#mbf5a820e5e" x="62.802188" y="309.012965" style="stroke: #000000"/>
      </g>
     </g>
     <g id="line2d_18">
      <defs>
       <path id="ma6a8f4dc6c" d="M 0 0 
L -5 0 
" style="stroke: #000000"/>
      </defs>
      <g>
       <use xlink:href="#ma6a8f4dc6c" x="425.832187" y="309.012965" style="stroke: #000000"/>
      </g>
     </g>
     <g id="text_10">
      <!-- 0.000 -->
      <g transform="translate(24.948438 313.572027) scale(0.12 -0.12)">
       <use xlink:href="#DejaVuSerif-30"/>
       <use xlink:href="#DejaVuSerif-2e" x="63.623047"/>
       <use xlink:href="#DejaVuSerif-30" x="95.410156"/>
       <use xlink:href="#DejaVuSerif-30" x="159.033203"/>
       <use xlink:href="#DejaVuSerif-30" x="222.65625"/>
      </g>
     </g>
    </g>
    <g id="ytick_2">
     <g id="line2d_19">
      <g>
       <use xlink:href="#mbf5a820e5e" x="62.802188" y="275.185906" style="stroke: #000000"/>
      </g>
     </g>
     <g id="line2d_20">
      <g>
       <use xlink:href="#ma6a8f4dc6c" x="425.832187" y="275.185906" style="stroke: #000000"/>
      </g>
     </g>
     <g id="text_11">
      <!-- 0.025 -->
      <g transform="translate(24.948438 279.744969) scale(0.12 -0.12)">
       <use xlink:href="#DejaVuSerif-30"/>
       <use xlink:href="#DejaVuSerif-2e" x="63.623047"/>
       <use xlink:href="#DejaVuSerif-30" x="95.410156"/>
       <use xlink:href="#DejaVuSerif-32" x="159.033203"/>
       <use xlink:href="#DejaVuSerif-35" x="222.65625"/>
      </g>
     </g>
    </g>
    <g id="ytick_3">
     <g id="line2d_21">
      <g>
       <use xlink:href="#mbf5a820e5e" x="62.802188" y="241.358848" style="stroke: #000000"/>
      </g>
     </g>
     <g id="line2d_22">
      <g>
       <use xlink:href="#ma6a8f4dc6c" x="425.832187" y="241.358848" style="stroke: #000000"/>
      </g>
     </g>
     <g id="text_12">
      <!-- 0.050 -->
      <g transform="translate(24.948438 245.917911) scale(0.12 -0.12)">
       <use xlink:href="#DejaVuSerif-30"/>
       <use xlink:href="#DejaVuSerif-2e" x="63.623047"/>
       <use xlink:href="#DejaVuSerif-30" x="95.410156"/>
       <use xlink:href="#DejaVuSerif-35" x="159.033203"/>
       <use xlink:href="#DejaVuSerif-30" x="222.65625"/>
      </g>
     </g>
    </g>
    <g id="ytick_4">
     <g id="line2d_23">
      <g>
       <use xlink:href="#mbf5a820e5e" x="62.802188" y="207.53179" style="stroke: #000000"/>
      </g>
     </g>
     <g id="line2d_24">
      <g>
       <use xlink:href="#ma6a8f4dc6c" x="425.832187" y="207.53179" style="stroke: #000000"/>
      </g>
     </g>
     <g id="text_13">
      <!-- 0.075 -->
      <g transform="translate(24.948438 212.090852) scale(0.12 -0.12)">
       <use xlink:href="#DejaVuSerif-30"/>
       <use xlink:href="#DejaVuSerif-2e" x="63.623047"/>
       <use xlink:href="#DejaVuSerif-30" x="95.410156"/>
       <use xlink:href="#DejaVuSerif-37" x="159.033203"/>
       <use xlink:href="#DejaVuSerif-35" x="222.65625"/>
      </g>
     </g>
    </g>
    <g id="ytick_5">
     <g id="line2d_25">
      <g>
       <use xlink:href="#mbf5a820e5e" x="62.802188" y="173.704732" style="stroke: #000000"/>
      </g>
     </g>
     <g id="line2d_26">
      <g>
       <use xlink:href="#ma6a8f4dc6c" x="425.832187" y="173.704732" style="stroke: #000000"/>
      </g>
     </g>
     <g id="text_14">
      <!-- 0.100 -->
      <g transform="translate(24.948438 178.263794) scale(0.12 -0.12)">
       <use xlink:href="#DejaVuSerif-30"/>
       <use xlink:href="#DejaVuSerif-2e" x="63.623047"/>
       <use xlink:href="#DejaVuSerif-31" x="95.410156"/>
       <use xlink:href="#DejaVuSerif-30" x="159.033203"/>
       <use xlink:href="#DejaVuSerif-30" x="222.65625"/>
      </g>
     </g>
    </g>
    <g id="ytick_6">
     <g id="line2d_27">
      <g>
       <use xlink:href="#mbf5a820e5e" x="62.802188" y="139.877673" style="stroke: #000000"/>
      </g>
     </g>
     <g id="line2d_28">
      <g>
       <use xlink:href="#ma6a8f4dc6c" x="425.832187" y="139.877673" style="stroke: #000000"/>
      </g>
     </g>
     <g id="text_15">
      <!-- 0.125 -->
      <g transform="translate(24.948438 144.436736) scale(0.12 -0.12)">
       <use xlink:href="#DejaVuSerif-30"/>
       <use xlink:href="#DejaVuSerif-2e" x="63.623047"/>
       <use xlink:href="#DejaVuSerif-31" x="95.410156"/>
       <use xlink:href="#DejaVuSerif-32" x="159.033203"/>
       <use xlink:href="#DejaVuSerif-35" x="222.65625"/>
      </g>
     </g>
    </g>
    <g id="ytick_7">
     <g id="line2d_29">
      <g>
       <use xlink:href="#mbf5a820e5e" x="62.802188" y="106.050615" style="stroke: #000000"/>
      </g>
     </g>
     <g id="line2d_30">
      <g>
       <use xlink:href="#ma6a8f4dc6c" x="425.832187" y="106.050615" style="stroke: #000000"/>
      </g>
     </g>
     <g id="text_16">
      <!-- 0.150 -->
      <g transform="translate(24.948438 110.609678) scale(0.12 -0.12)">
       <use xlink:href="#DejaVuSerif-30"/>
       <use xlink:href="#DejaVuSerif-2e" x="63.623047"/>
       <use xlink:href="#DejaVuSerif-31" x="95.410156"/>
       <use xlink:href="#DejaVuSerif-35" x="159.033203"/>
       <use xlink:href="#DejaVuSerif-30" x="222.65625"/>
      </g>
     </g>
    </g>
    <g id="ytick_8">
     <g id="line2d_31">
      <g>
       <use xlink:href="#mbf5a820e5e" x="62.802188" y="72.223557" style="stroke: #000000"/>
      </g>
     </g>
     <g id="line2d_32">
      <g>
       <use xlink:href="#ma6a8f4dc6c" x="425.832187" y="72.223557" style="stroke: #000000"/>
      </g>
     </g>
     <g id="text_17">
      <!-- 0.175 -->
      <g transform="translate(24.948438 76.782619) scale(0.12 -0.12)">
       <use xlink:href="#DejaVuSerif-30"/>
       <use xlink:href="#DejaVuSerif-2e" x="63.623047"/>
       <use xlink:href="#DejaVuSerif-31" x="95.410156"/>
       <use xlink:href="#DejaVuSerif-37" x="159.033203"/>
       <use xlink:href="#DejaVuSerif-35" x="222.65625"/>
      </g>
     </g>
    </g>
    <g id="ytick_9">
     <g id="line2d_33">
      <g>
       <use xlink:href="#mbf5a820e5e" x="62.802188" y="38.396499" style="stroke: #000000"/>
      </g>
     </g>
     <g id="line2d_34">
      <g>
       <use xlink:href="#ma6a8f4dc6c" x="425.832187" y="38.396499" style="stroke: #000000"/>
      </g>
     </g>
     <g id="text_18">
      <!-- 0.200 -->
      <g transform="translate(24.948438 42.955561) scale(0.12 -0.12)">
       <use xlink:href="#DejaVuSerif-30"/>
       <use xlink:href="#DejaVuSerif-2e" x="63.623047"/>
       <use xlink:href="#DejaVuSerif-32" x="95.410156"/>
       <use xlink:href="#DejaVuSerif-30" x="159.033203"/>
       <use xlink:href="#DejaVuSerif-30" x="222.65625"/>
      </g>
     </g>
    </g>
    <g id="text_19">
     <!-- Mean Attention Weight -->
     <g transform="translate(17.837812 241.695064) rotate(-90) scale(0.14 -0.14)">
      <defs>
       <path id="DejaVuSerif-4d" d="M 353 0 
L 353 331 
L 947 331 
L 947 4331 
L 319 4331 
L 319 4666 
L 1678 4666 
L 3316 1344 
L 4953 4666 
L 6228 4666 
L 6228 4331 
L 5606 4331 
L 5606 331 
L 6203 331 
L 6203 0 
L 4378 0 
L 4378 331 
L 4972 331 
L 4972 3938 
L 3372 684 
L 2931 684 
L 1331 3938 
L 1331 331 
L 1925 331 
L 1925 0 
L 353 0 
z
" transform="scale(0.015625)"/>
       <path id="DejaVuSerif-61" d="M 2547 1044 
L 2547 1747 
L 1806 1747 
Q 1378 1747 1168 1562 
Q 959 1378 959 997 
Q 959 650 1171 447 
Q 1384 244 1747 244 
Q 2106 244 2326 466 
Q 2547 688 2547 1044 
z
M 3122 2075 
L 3122 331 
L 3634 331 
L 3634 0 
L 2547 0 
L 2547 359 
Q 2356 128 2106 18 
Q 1856 -91 1522 -91 
Q 969 -91 644 203 
Q 319 497 319 997 
Q 319 1513 691 1797 
Q 1063 2081 1741 2081 
L 2547 2081 
L 2547 2309 
Q 2547 2688 2317 2895 
Q 2088 3103 1672 3103 
Q 1328 3103 1125 2947 
Q 922 2791 872 2484 
L 575 2484 
L 575 3156 
Q 875 3284 1158 3348 
Q 1441 3413 1709 3413 
Q 2400 3413 2761 3070 
Q 3122 2728 3122 2075 
z
" transform="scale(0.015625)"/>
       <path id="DejaVuSerif-41" d="M 1281 1691 
L 2994 1691 
L 2138 3909 
L 1281 1691 
z
M -38 0 
L -38 331 
L 372 331 
L 2034 4666 
L 2559 4666 
L 4225 331 
L 4684 331 
L 4684 0 
L 2988 0 
L 2988 331 
L 3506 331 
L 3116 1356 
L 1153 1356 
L 763 331 
L 1275 331 
L 1275 0 
L -38 0 
z
" transform="scale(0.015625)"/>
       <path id="DejaVuSerif-57" d="M 4878 0 
L 4366 0 
L 3297 3794 
L 2228 0 
L 1716 0 
L 494 4331 
L 31 4331 
L 31 4666 
L 1734 4666 
L 1734 4331 
L 1153 4331 
L 2125 884 
L 3188 4666 
L 3694 4666 
L 4775 844 
L 5753 4331 
L 5216 4331 
L 5216 4666 
L 6559 4666 
L 6559 4331 
L 6100 4331 
L 4878 0 
z
" transform="scale(0.015625)"/>
       <path id="DejaVuSerif-67" d="M 3359 2988 
L 3359 72 
Q 3359 -644 2965 -1033 
Q 2572 -1422 1844 -1422 
Q 1516 -1422 1216 -1362 
Q 916 -1303 641 -1184 
L 641 -488 
L 941 -488 
Q 997 -813 1206 -963 
Q 1416 -1113 1806 -1113 
Q 2313 -1113 2548 -827 
Q 2784 -541 2784 72 
L 2784 519 
Q 2616 206 2355 57 
Q 2094 -91 1709 -91 
Q 1097 -91 708 395 
Q 319 881 319 1663 
Q 319 2444 706 2928 
Q 1094 3413 1709 3413 
Q 2094 3413 2355 3264 
Q 2616 3116 2784 2803 
L 2784 3322 
L 3909 3322 
L 3909 2988 
L 3359 2988 
z
M 2784 1825 
Q 2784 2422 2554 2737 
Q 2325 3053 1888 3053 
Q 1444 3053 1217 2703 
Q 991 2353 991 1663 
Q 991 975 1217 622 
Q 1444 269 1888 269 
Q 2325 269 2554 583 
Q 2784 897 2784 1497 
L 2784 1825 
z
" transform="scale(0.015625)"/>
       <path id="DejaVuSerif-68" d="M 263 0 
L 263 331 
L 781 331 
L 781 4531 
L 231 4531 
L 231 4863 
L 1356 4863 
L 1356 2731 
Q 1516 3069 1770 3241 
Q 2025 3413 2363 3413 
Q 2913 3413 3172 3097 
Q 3431 2781 3431 2113 
L 3431 331 
L 3944 331 
L 3944 0 
L 2356 0 
L 2356 331 
L 2853 331 
L 2853 1931 
Q 2853 2541 2704 2764 
Q 2556 2988 2175 2988 
Q 1775 2988 1565 2697 
Q 1356 2406 1356 1850 
L 1356 331 
L 1856 331 
L 1856 0 
L 263 0 
z
" transform="scale(0.015625)"/>
      </defs>
      <use xlink:href="#DejaVuSerif-4d"/>
      <use xlink:href="#DejaVuSerif-65" x="102.392578"/>
      <use xlink:href="#DejaVuSerif-61" x="161.572266"/>
      <use xlink:href="#DejaVuSerif-6e" x="221.191406"/>
      <use xlink:href="#DejaVuSerif-20" x="285.595703"/>
      <use xlink:href="#DejaVuSerif-41" x="317.382812"/>
      <use xlink:href="#DejaVuSerif-74" x="387.849609"/>
      <use xlink:href="#DejaVuSerif-74" x="428.035156"/>
      <use xlink:href="#DejaVuSerif-65" x="468.220703"/>
      <use xlink:href="#DejaVuSerif-6e" x="527.400391"/>
      <use xlink:href="#DejaVuSerif-74" x="591.804688"/>
      <use xlink:href="#DejaVuSerif-69" x="631.990234"/>
      <use xlink:href="#DejaVuSerif-6f" x="663.972656"/>
      <use xlink:href="#DejaVuSerif-6e" x="724.177734"/>
      <use xlink:href="#DejaVuSerif-20" x="788.582031"/>
      <use xlink:href="#DejaVuSerif-57" x="820.369141"/>
      <use xlink:href="#DejaVuSerif-65" x="915.027344"/>
      <use xlink:href="#DejaVuSerif-69" x="974.207031"/>
      <use xlink:href="#DejaVuSerif-67" x="1006.189453"/>
      <use xlink:href="#DejaVuSerif-68" x="1070.203125"/>
      <use xlink:href="#DejaVuSerif-74" x="1134.607422"/>
     </g>
    </g>
   </g>
   <g id="patch_23">
    <path d="M 62.802188 309.012965 
L 62.802188 9.901226 
" style="fill: none; stroke: #000000; stroke-linejoin: miter; stroke-linecap: square"/>
   </g>
   <g id="patch_24">
    <path d="M 425.832187 309.012965 
L 425.832187 9.901226 
" style="fill: none; stroke: #000000; stroke-linejoin: miter; stroke-linecap: square"/>
   </g>
   <g id="patch_25">
    <path d="M 62.802188 309.012965 
L 425.832188 309.012965 
" style="fill: none; stroke: #000000; stroke-linejoin: miter; stroke-linecap: square"/>
   </g>
   <g id="patch_26">
    <path d="M 62.802188 9.901226 
L 425.832188 9.901226 
" style="fill: none; stroke: #000000; stroke-linejoin: miter; stroke-linecap: square"/>
   </g>
   <g id="patch_27">
    <path d="M 122.342633 253.235298 
Q 98.103624 250.278507 74.974423 247.457095 
" style="fill: none; stroke: #000000; stroke-linecap: round"/>
    <path d="M 78.702816 249.926728 
L 74.974423 247.457095 
L 79.187165 245.956161 
" style="fill: none; stroke: #000000; stroke-linecap: round"/>
   </g>
   <g id="text_20">
    <!-- t-0: 0.046 -->
    <g transform="translate(126.332437 259.46609) scale(0.1 -0.1)">
     <defs>
      <path id="DejaVuSerif-3a" d="M 666 325 
Q 666 500 786 622 
Q 906 744 1081 744 
Q 1256 744 1376 622 
Q 1497 500 1497 325 
Q 1497 150 1378 29 
Q 1259 -91 1081 -91 
Q 903 -91 784 29 
Q 666 150 666 325 
z
M 666 2363 
Q 666 2538 786 2658 
Q 906 2778 1081 2778 
Q 1259 2778 1378 2659 
Q 1497 2541 1497 2363 
Q 1497 2184 1378 2065 
Q 1259 1947 1081 1947 
Q 906 1947 786 2067 
Q 666 2188 666 2363 
z
" transform="scale(0.015625)"/>
      <path id="DejaVuSerif-34" d="M 2234 1581 
L 2234 4063 
L 641 1581 
L 2234 1581 
z
M 3609 0 
L 1484 0 
L 1484 331 
L 2234 331 
L 2234 1247 
L 197 1247 
L 197 1588 
L 2241 4750 
L 2859 4750 
L 2859 1581 
L 3750 1581 
L 3750 1247 
L 2859 1247 
L 2859 331 
L 3609 331 
L 3609 0 
z
" transform="scale(0.015625)"/>
      <path id="DejaVuSerif-36" d="M 2094 219 
Q 2534 219 2771 542 
Q 3009 866 3009 1472 
Q 3009 2078 2771 2401 
Q 2534 2725 2094 2725 
Q 1647 2725 1412 2412 
Q 1178 2100 1178 1509 
Q 1178 888 1415 553 
Q 1653 219 2094 219 
z
M 1075 2569 
Q 1288 2803 1556 2918 
Q 1825 3034 2163 3034 
Q 2859 3034 3264 2615 
Q 3669 2197 3669 1472 
Q 3669 763 3233 336 
Q 2797 -91 2069 -91 
Q 1278 -91 853 498 
Q 428 1088 428 2181 
Q 428 3406 931 4078 
Q 1434 4750 2350 4750 
Q 2597 4750 2869 4703 
Q 3141 4656 3425 4563 
L 3425 3794 
L 3072 3794 
Q 3034 4109 2831 4275 
Q 2628 4441 2284 4441 
Q 1678 4441 1381 3981 
Q 1084 3522 1075 2569 
z
" transform="scale(0.015625)"/>
     </defs>
     <use xlink:href="#DejaVuSerif-74"/>
     <use xlink:href="#DejaVuSerif-2d" x="40.185547"/>
     <use xlink:href="#DejaVuSerif-30" x="73.974609"/>
     <use xlink:href="#DejaVuSerif-3a" x="137.597656"/>
     <use xlink:href="#DejaVuSerif-20" x="171.289062"/>
     <use xlink:href="#DejaVuSerif-30" x="203.076172"/>
     <use xlink:href="#DejaVuSerif-2e" x="266.699219"/>
     <use xlink:href="#DejaVuSerif-30" x="298.486328"/>
     <use xlink:href="#DejaVuSerif-34" x="362.109375"/>
     <use xlink:href="#DejaVuSerif-36" x="425.732422"/>
    </g>
   </g>
  </g>
  <g id="axes_2">
   <g id="patch_28">
    <path d="M 482.592187 309.012965 
L 845.622187 309.012965 
L 845.622187 9.901226 
L 482.592187 9.901226 
z
" style="fill: #ffffff"/>
   </g>
   <g id="patch_29">
    <path d="M 499.093551 309.012965 
L 505.694096 309.012965 
L 505.694096 304.058733 
L 499.093551 304.058733 
z
" clip-path="url(#pa338ff7bf3)" style="fill: #ffffff; stroke: #ff0000; stroke-linejoin: miter"/>
   </g>
   <g id="patch_30">
    <path d="M 505.694096 309.012965 
L 512.294642 309.012965 
L 512.294642 302.572464 
L 505.694096 302.572464 
z
" clip-path="url(#pa338ff7bf3)" style="fill: #ffffff; stroke: #ff0000; stroke-linejoin: miter"/>
   </g>
   <g id="patch_31">
    <path d="M 512.294642 309.012965 
L 518.895188 309.012965 
L 518.895188 305.049579 
L 512.294642 305.049579 
z
" clip-path="url(#pa338ff7bf3)" style="fill: #ffffff; stroke: #ff0000; stroke-linejoin: miter"/>
   </g>
   <g id="patch_32">
    <path d="M 518.895188 309.012965 
L 525.495732 309.012965 
L 525.495732 297.618232 
L 518.895188 297.618232 
z
" clip-path="url(#pa338ff7bf3)" style="fill: #ffffff; stroke: #ff0000; stroke-linejoin: miter"/>
   </g>
   <g id="patch_33">
    <path d="M 525.495732 309.012965 
L 532.096278 309.012965 
L 532.096278 295.141116 
L 525.495732 295.141116 
z
" clip-path="url(#pa338ff7bf3)" style="fill: #ffffff; stroke: #ff0000; stroke-linejoin: miter"/>
   </g>
   <g id="patch_34">
    <path d="M 532.096278 309.012965 
L 538.696822 309.012965 
L 538.696822 287.709768 
L 532.096278 287.709768 
z
" clip-path="url(#pa338ff7bf3)" style="fill: #ffffff; stroke: #ff0000; stroke-linejoin: miter"/>
   </g>
   <g id="patch_35">
    <path d="M 538.696822 309.012965 
L 545.297371 309.012965 
L 545.297371 279.782998 
L 538.696822 279.782998 
z
" clip-path="url(#pa338ff7bf3)" style="fill: #ffffff; stroke: #ff0000; stroke-linejoin: miter"/>
   </g>
   <g id="patch_36">
    <path d="M 545.297371 309.012965 
L 551.897914 309.012965 
L 551.897914 273.83792 
L 545.297371 273.83792 
z
" clip-path="url(#pa338ff7bf3)" style="fill: #ffffff; stroke: #ff0000; stroke-linejoin: miter"/>
   </g>
   <g id="patch_37">
    <path d="M 551.897914 309.012965 
L 558.498458 309.012965 
L 558.498458 267.397418 
L 551.897914 267.397418 
z
" clip-path="url(#pa338ff7bf3)" style="fill: #ffffff; stroke: #ff0000; stroke-linejoin: miter"/>
   </g>
   <g id="patch_38">
    <path d="M 558.498458 309.012965 
L 565.099007 309.012965 
L 565.099007 256.993532 
L 558.498458 256.993532 
z
" clip-path="url(#pa338ff7bf3)" style="fill: #ffffff; stroke: #ff0000; stroke-linejoin: miter"/>
   </g>
   <g id="patch_39">
    <path d="M 565.099007 309.012965 
L 571.69955 309.012965 
L 571.69955 248.075915 
L 565.099007 248.075915 
z
" clip-path="url(#pa338ff7bf3)" style="fill: #ffffff; stroke: #ff0000; stroke-linejoin: miter"/>
   </g>
   <g id="patch_40">
    <path d="M 571.69955 309.012965 
L 578.300094 309.012965 
L 578.300094 221.818487 
L 571.69955 221.818487 
z
" clip-path="url(#pa338ff7bf3)" style="fill: #ffffff; stroke: #ff0000; stroke-linejoin: miter"/>
   </g>
   <g id="patch_41">
    <path d="M 578.300094 309.012965 
L 584.900638 309.012965 
L 584.900638 231.72695 
L 578.300094 231.72695 
z
" clip-path="url(#pa338ff7bf3)" style="fill: #ffffff; stroke: #ff0000; stroke-linejoin: miter"/>
   </g>
   <g id="patch_42">
    <path d="M 584.900638 309.012965 
L 591.501191 309.012965 
L 591.501191 210.919177 
L 584.900638 210.919177 
z
" clip-path="url(#pa338ff7bf3)" style="fill: #ffffff; stroke: #ff0000; stroke-linejoin: miter"/>
   </g>
   <g id="patch_43">
    <path d="M 591.501191 309.012965 
L 598.101735 309.012965 
L 598.101735 197.047328 
L 591.501191 197.047328 
z
" clip-path="url(#pa338ff7bf3)" style="fill: #ffffff; stroke: #ff0000; stroke-linejoin: miter"/>
   </g>
   <g id="patch_44">
    <path d="M 598.101735 309.012965 
L 604.702279 309.012965 
L 604.702279 202.992406 
L 598.101735 202.992406 
z
" clip-path="url(#pa338ff7bf3)" style="fill: #ffffff; stroke: #ff0000; stroke-linejoin: miter"/>
   </g>
   <g id="patch_45">
    <path d="M 604.702279 309.012965 
L 611.302823 309.012965 
L 611.302823 169.799054 
L 604.702279 169.799054 
z
" clip-path="url(#pa338ff7bf3)" style="fill: #ffffff; stroke: #ff0000; stroke-linejoin: miter"/>
   </g>
   <g id="patch_46">
    <path d="M 611.302823 309.012965 
L 617.903366 309.012965 
L 617.903366 158.404321 
L 611.302823 158.404321 
z
" clip-path="url(#pa338ff7bf3)" style="fill: #ffffff; stroke: #ff0000; stroke-linejoin: miter"/>
   </g>
   <g id="patch_47">
    <path d="M 617.903366 309.012965 
L 624.50391 309.012965 
L 624.50391 134.128586 
L 617.903366 134.128586 
z
" clip-path="url(#pa338ff7bf3)" style="fill: #ffffff; stroke: #ff0000; stroke-linejoin: miter"/>
   </g>
   <g id="patch_48">
    <path d="M 624.50391 309.012965 
L 631.104463 309.012965 
L 631.104463 126.697238 
L 624.50391 126.697238 
z
" clip-path="url(#pa338ff7bf3)" style="fill: #ffffff; stroke: #ff0000; stroke-linejoin: miter"/>
   </g>
   <g id="patch_49">
    <path d="M 631.104463 309.012965 
L 637.705007 309.012965 
L 637.705007 115.797928 
L 631.104463 115.797928 
z
" clip-path="url(#pa338ff7bf3)" style="fill: #ffffff; stroke: #ff0000; stroke-linejoin: miter"/>
   </g>
   <g id="patch_50">
    <path d="M 637.705007 309.012965 
L 644.305551 309.012965 
L 644.305551 88.054231 
L 637.705007 88.054231 
z
" clip-path="url(#pa338ff7bf3)" style="fill: #ffffff; stroke: #ff0000; stroke-linejoin: miter"/>
   </g>
   <g id="patch_51">
    <path d="M 644.305551 309.012965 
L 650.906104 309.012965 
L 650.906104 63.283072 
L 644.305551 63.283072 
z
" clip-path="url(#pa338ff7bf3)" style="fill: #ffffff; stroke: #ff0000; stroke-linejoin: miter"/>
   </g>
   <g id="patch_52">
    <path d="M 650.906104 309.012965 
L 657.506648 309.012965 
L 657.506648 55.356301 
L 650.906104 55.356301 
z
" clip-path="url(#pa338ff7bf3)" style="fill: #ffffff; stroke: #ff0000; stroke-linejoin: miter"/>
   </g>
   <g id="patch_53">
    <path d="M 657.506648 309.012965 
L 664.107191 309.012965 
L 664.107191 57.833417 
L 657.506648 57.833417 
z
" clip-path="url(#pa338ff7bf3)" style="fill: #ffffff; stroke: #ff0000; stroke-linejoin: miter"/>
   </g>
   <g id="patch_54">
    <path d="M 664.107191 309.012965 
L 670.707735 309.012965 
L 670.707735 42.970722 
L 664.107191 42.970722 
z
" clip-path="url(#pa338ff7bf3)" style="fill: #ffffff; stroke: #ff0000; stroke-linejoin: miter"/>
   </g>
   <g id="patch_55">
    <path d="M 670.707735 309.012965 
L 677.308279 309.012965 
L 677.308279 24.144642 
L 670.707735 24.144642 
z
" clip-path="url(#pa338ff7bf3)" style="fill: #ffffff; stroke: #ff0000; stroke-linejoin: miter"/>
   </g>
   <g id="patch_56">
    <path d="M 677.308279 309.012965 
L 683.908823 309.012965 
L 683.908823 36.530221 
L 677.308279 36.530221 
z
" clip-path="url(#pa338ff7bf3)" style="fill: #ffffff; stroke: #ff0000; stroke-linejoin: miter"/>
   </g>
   <g id="patch_57">
    <path d="M 683.908823 309.012965 
L 690.509367 309.012965 
L 690.509367 55.851725 
L 683.908823 55.851725 
z
" clip-path="url(#pa338ff7bf3)" style="fill: #ffffff; stroke: #ff0000; stroke-linejoin: miter"/>
   </g>
   <g id="patch_58">
    <path d="M 690.509367 309.012965 
L 697.109911 309.012965 
L 697.109911 38.511914 
L 690.509367 38.511914 
z
" clip-path="url(#pa338ff7bf3)" style="fill: #ffffff; stroke: #ff0000; stroke-linejoin: miter"/>
   </g>
   <g id="patch_59">
    <path d="M 697.109911 309.012965 
L 703.710455 309.012965 
L 703.710455 71.209843 
L 697.109911 71.209843 
z
" clip-path="url(#pa338ff7bf3)" style="fill: #ffffff; stroke: #ff0000; stroke-linejoin: miter"/>
   </g>
   <g id="patch_60">
    <path d="M 703.710455 309.012965 
L 710.310998 309.012965 
L 710.310998 38.016491 
L 703.710455 38.016491 
z
" clip-path="url(#pa338ff7bf3)" style="fill: #ffffff; stroke: #ff0000; stroke-linejoin: miter"/>
   </g>
   <g id="patch_61">
    <path d="M 710.310998 309.012965 
L 716.911542 309.012965 
L 716.911542 62.292226 
L 710.310998 62.292226 
z
" clip-path="url(#pa338ff7bf3)" style="fill: #ffffff; stroke: #ff0000; stroke-linejoin: miter"/>
   </g>
   <g id="patch_62">
    <path d="M 716.911542 309.012965 
L 723.512104 309.012965 
L 723.512104 67.246458 
L 716.911542 67.246458 
z
" clip-path="url(#pa338ff7bf3)" style="fill: #ffffff; stroke: #ff0000; stroke-linejoin: miter"/>
   </g>
   <g id="patch_63">
    <path d="M 723.512104 309.012965 
L 730.112648 309.012965 
L 730.112648 108.366581 
L 723.512104 108.366581 
z
" clip-path="url(#pa338ff7bf3)" style="fill: #ffffff; stroke: #ff0000; stroke-linejoin: miter"/>
   </g>
   <g id="patch_64">
    <path d="M 730.112648 309.012965 
L 736.713192 309.012965 
L 736.713192 86.567961 
L 730.112648 86.567961 
z
" clip-path="url(#pa338ff7bf3)" style="fill: #ffffff; stroke: #ff0000; stroke-linejoin: miter"/>
   </g>
   <g id="patch_65">
    <path d="M 736.713192 309.012965 
L 743.313736 309.012965 
L 743.313736 125.210969 
L 736.713192 125.210969 
z
" clip-path="url(#pa338ff7bf3)" style="fill: #ffffff; stroke: #ff0000; stroke-linejoin: miter"/>
   </g>
   <g id="patch_66">
    <path d="M 743.313736 309.012965 
L 749.91428 309.012965 
L 749.91428 183.175479 
L 743.313736 183.175479 
z
" clip-path="url(#pa338ff7bf3)" style="fill: #ffffff; stroke: #ff0000; stroke-linejoin: miter"/>
   </g>
   <g id="patch_67">
    <path d="M 749.91428 309.012965 
L 756.514823 309.012965 
L 756.514823 207.451215 
L 749.91428 207.451215 
z
" clip-path="url(#pa338ff7bf3)" style="fill: #ffffff; stroke: #ff0000; stroke-linejoin: miter"/>
   </g>
   <g id="patch_68">
    <path d="M 756.514823 309.012965 
L 763.115367 309.012965 
L 763.115367 214.882562 
L 756.514823 214.882562 
z
" clip-path="url(#pa338ff7bf3)" style="fill: #ffffff; stroke: #ff0000; stroke-linejoin: miter"/>
   </g>
   <g id="patch_69">
    <path d="M 763.115367 309.012965 
L 769.715911 309.012965 
L 769.715911 237.176605 
L 763.115367 237.176605 
z
" clip-path="url(#pa338ff7bf3)" style="fill: #ffffff; stroke: #ff0000; stroke-linejoin: miter"/>
   </g>
   <g id="patch_70">
    <path d="M 769.715911 309.012965 
L 776.316455 309.012965 
L 776.316455 249.066761 
L 769.715911 249.066761 
z
" clip-path="url(#pa338ff7bf3)" style="fill: #ffffff; stroke: #ff0000; stroke-linejoin: miter"/>
   </g>
   <g id="patch_71">
    <path d="M 776.316455 309.012965 
L 782.916999 309.012965 
L 782.916999 269.874534 
L 776.316455 269.874534 
z
" clip-path="url(#pa338ff7bf3)" style="fill: #ffffff; stroke: #ff0000; stroke-linejoin: miter"/>
   </g>
   <g id="patch_72">
    <path d="M 782.916999 309.012965 
L 789.517543 309.012965 
L 789.517543 283.25096 
L 782.916999 283.25096 
z
" clip-path="url(#pa338ff7bf3)" style="fill: #ffffff; stroke: #ff0000; stroke-linejoin: miter"/>
   </g>
   <g id="patch_73">
    <path d="M 789.517543 309.012965 
L 796.118105 309.012965 
L 796.118105 293.159423 
L 789.517543 293.159423 
z
" clip-path="url(#pa338ff7bf3)" style="fill: #ffffff; stroke: #ff0000; stroke-linejoin: miter"/>
   </g>
   <g id="patch_74">
    <path d="M 796.118105 309.012965 
L 802.718648 309.012965 
L 802.718648 295.636539 
L 796.118105 295.636539 
z
" clip-path="url(#pa338ff7bf3)" style="fill: #ffffff; stroke: #ff0000; stroke-linejoin: miter"/>
   </g>
   <g id="patch_75">
    <path d="M 802.718648 309.012965 
L 809.319192 309.012965 
L 809.319192 294.15027 
L 802.718648 294.15027 
z
" clip-path="url(#pa338ff7bf3)" style="fill: #ffffff; stroke: #ff0000; stroke-linejoin: miter"/>
   </g>
   <g id="patch_76">
    <path d="M 809.319192 309.012965 
L 815.919736 309.012965 
L 815.919736 288.700615 
L 809.319192 288.700615 
z
" clip-path="url(#pa338ff7bf3)" style="fill: #ffffff; stroke: #ff0000; stroke-linejoin: miter"/>
   </g>
   <g id="patch_77">
    <path d="M 815.919736 309.012965 
L 822.52028 309.012965 
L 822.52028 290.682307 
L 815.919736 290.682307 
z
" clip-path="url(#pa338ff7bf3)" style="fill: #ffffff; stroke: #ff0000; stroke-linejoin: miter"/>
   </g>
   <g id="patch_78">
    <path d="M 822.52028 309.012965 
L 829.120824 309.012965 
L 829.120824 307.031272 
L 822.52028 307.031272 
z
" clip-path="url(#pa338ff7bf3)" style="fill: #ffffff; stroke: #ff0000; stroke-linejoin: miter"/>
   </g>
   <g id="matplotlib.axis_3">
    <g id="xtick_9">
     <g id="line2d_35">
      <g>
       <use xlink:href="#m3f69a04342" x="496.158203" y="309.012965" style="stroke: #000000"/>
      </g>
     </g>
     <g id="line2d_36">
      <g>
       <use xlink:href="#mcd436939a1" x="496.158203" y="9.901226" style="stroke: #000000"/>
      </g>
     </g>
     <g id="text_21">
      <!-- 0 -->
      <g transform="translate(492.340703 321.63109) scale(0.12 -0.12)">
       <use xlink:href="#DejaVuSerif-30"/>
      </g>
     </g>
    </g>
    <g id="xtick_10">
     <g id="line2d_37">
      <g>
       <use xlink:href="#m3f69a04342" x="572.026617" y="309.012965" style="stroke: #000000"/>
      </g>
     </g>
     <g id="line2d_38">
      <g>
       <use xlink:href="#mcd436939a1" x="572.026617" y="9.901226" style="stroke: #000000"/>
      </g>
     </g>
     <g id="text_22">
      <!-- 1 -->
      <g transform="translate(568.209117 321.63109) scale(0.12 -0.12)">
       <use xlink:href="#DejaVuSerif-31"/>
      </g>
     </g>
    </g>
    <g id="xtick_11">
     <g id="line2d_39">
      <g>
       <use xlink:href="#m3f69a04342" x="647.89503" y="309.012965" style="stroke: #000000"/>
      </g>
     </g>
     <g id="line2d_40">
      <g>
       <use xlink:href="#mcd436939a1" x="647.89503" y="9.901226" style="stroke: #000000"/>
      </g>
     </g>
     <g id="text_23">
      <!-- 2 -->
      <g transform="translate(644.07753 321.63109) scale(0.12 -0.12)">
       <use xlink:href="#DejaVuSerif-32"/>
      </g>
     </g>
    </g>
    <g id="xtick_12">
     <g id="line2d_41">
      <g>
       <use xlink:href="#m3f69a04342" x="723.763443" y="309.012965" style="stroke: #000000"/>
      </g>
     </g>
     <g id="line2d_42">
      <g>
       <use xlink:href="#mcd436939a1" x="723.763443" y="9.901226" style="stroke: #000000"/>
      </g>
     </g>
     <g id="text_24">
      <!-- 3 -->
      <g transform="translate(719.945943 321.63109) scale(0.12 -0.12)">
       <defs>
        <path id="DejaVuSerif-33" d="M 622 4469 
Q 988 4606 1323 4678 
Q 1659 4750 1953 4750 
Q 2638 4750 3022 4454 
Q 3406 4159 3406 3634 
Q 3406 3213 3140 2930 
Q 2875 2647 2388 2547 
Q 2963 2466 3280 2130 
Q 3597 1794 3597 1259 
Q 3597 606 3158 257 
Q 2719 -91 1894 -91 
Q 1528 -91 1179 -12 
Q 831 66 488 225 
L 488 1131 
L 838 1131 
Q 869 681 1141 450 
Q 1413 219 1906 219 
Q 2384 219 2661 495 
Q 2938 772 2938 1253 
Q 2938 1803 2653 2086 
Q 2369 2369 1819 2369 
L 1522 2369 
L 1522 2688 
L 1678 2688 
Q 2225 2688 2498 2914 
Q 2772 3141 2772 3597 
Q 2772 4006 2547 4223 
Q 2322 4441 1900 4441 
Q 1478 4441 1245 4241 
Q 1013 4041 972 3647 
L 622 3647 
L 622 4469 
z
" transform="scale(0.015625)"/>
       </defs>
       <use xlink:href="#DejaVuSerif-33"/>
      </g>
     </g>
    </g>
    <g id="xtick_13">
     <g id="line2d_43">
      <g>
       <use xlink:href="#m3f69a04342" x="799.631856" y="309.012965" style="stroke: #000000"/>
      </g>
     </g>
     <g id="line2d_44">
      <g>
       <use xlink:href="#mcd436939a1" x="799.631856" y="9.901226" style="stroke: #000000"/>
      </g>
     </g>
     <g id="text_25">
      <!-- 4 -->
      <g transform="translate(795.814356 321.63109) scale(0.12 -0.12)">
       <use xlink:href="#DejaVuSerif-34"/>
      </g>
     </g>
    </g>
    <g id="text_26">
     <!-- Attention Entropy (nats) -->
     <g transform="translate(577.695469 338.764527) scale(0.14 -0.14)">
      <defs>
       <path id="DejaVuSerif-70" d="M 1313 1825 
L 1313 1497 
Q 1313 897 1542 583 
Q 1772 269 2209 269 
Q 2650 269 2876 622 
Q 3103 975 3103 1663 
Q 3103 2353 2876 2703 
Q 2650 3053 2209 3053 
Q 1772 3053 1542 2737 
Q 1313 2422 1313 1825 
z
M 738 2988 
L 184 2988 
L 184 3322 
L 1313 3322 
L 1313 2803 
Q 1481 3116 1742 3264 
Q 2003 3413 2388 3413 
Q 3000 3413 3387 2928 
Q 3775 2444 3775 1663 
Q 3775 881 3387 395 
Q 3000 -91 2388 -91 
Q 2003 -91 1742 57 
Q 1481 206 1313 519 
L 1313 -997 
L 1856 -997 
L 1856 -1331 
L 184 -1331 
L 184 -997 
L 738 -997 
L 738 2988 
z
" transform="scale(0.015625)"/>
       <path id="DejaVuSerif-79" d="M 1381 -609 
L 1600 -56 
L 359 2988 
L -19 2988 
L -19 3322 
L 1509 3322 
L 1509 2988 
L 978 2988 
L 1913 703 
L 2847 2988 
L 2350 2988 
L 2350 3322 
L 3597 3322 
L 3597 2988 
L 3225 2988 
L 1703 -750 
Q 1547 -1138 1356 -1280 
Q 1166 -1422 819 -1422 
Q 672 -1422 517 -1397 
Q 363 -1372 206 -1325 
L 206 -691 
L 500 -691 
Q 519 -903 608 -995 
Q 697 -1088 884 -1088 
Q 1056 -1088 1161 -992 
Q 1266 -897 1381 -609 
z
" transform="scale(0.015625)"/>
      </defs>
      <use xlink:href="#DejaVuSerif-41"/>
      <use xlink:href="#DejaVuSerif-74" x="70.466797"/>
      <use xlink:href="#DejaVuSerif-74" x="110.652344"/>
      <use xlink:href="#DejaVuSerif-65" x="150.837891"/>
      <use xlink:href="#DejaVuSerif-6e" x="210.017578"/>
      <use xlink:href="#DejaVuSerif-74" x="274.421875"/>
      <use xlink:href="#DejaVuSerif-69" x="314.607422"/>
      <use xlink:href="#DejaVuSerif-6f" x="346.589844"/>
      <use xlink:href="#DejaVuSerif-6e" x="406.794922"/>
      <use xlink:href="#DejaVuSerif-20" x="471.199219"/>
      <use xlink:href="#DejaVuSerif-45" x="502.986328"/>
      <use xlink:href="#DejaVuSerif-6e" x="575.984375"/>
      <use xlink:href="#DejaVuSerif-74" x="640.388672"/>
      <use xlink:href="#DejaVuSerif-72" x="680.574219"/>
      <use xlink:href="#DejaVuSerif-6f" x="728.376953"/>
      <use xlink:href="#DejaVuSerif-70" x="788.582031"/>
      <use xlink:href="#DejaVuSerif-79" x="852.595703"/>
      <use xlink:href="#DejaVuSerif-20" x="909.089844"/>
      <use xlink:href="#DejaVuSerif-28" x="940.876953"/>
      <use xlink:href="#DejaVuSerif-6e" x="979.890625"/>
      <use xlink:href="#DejaVuSerif-61" x="1044.294922"/>
      <use xlink:href="#DejaVuSerif-74" x="1103.914062"/>
      <use xlink:href="#DejaVuSerif-73" x="1144.099609"/>
      <use xlink:href="#DejaVuSerif-29" x="1195.417969"/>
     </g>
    </g>
   </g>
   <g id="matplotlib.axis_4">
    <g id="ytick_10">
     <g id="line2d_45">
      <g>
       <use xlink:href="#mbf5a820e5e" x="482.592187" y="309.012965" style="stroke: #000000"/>
      </g>
     </g>
     <g id="line2d_46">
      <g>
       <use xlink:href="#ma6a8f4dc6c" x="845.622187" y="309.012965" style="stroke: #000000"/>
      </g>
     </g>
     <g id="text_27">
      <!-- 0 -->
      <g transform="translate(471.457187 313.572027) scale(0.12 -0.12)">
       <use xlink:href="#DejaVuSerif-30"/>
      </g>
     </g>
    </g>
    <g id="ytick_11">
     <g id="line2d_47">
      <g>
       <use xlink:href="#mbf5a820e5e" x="482.592187" y="259.470648" style="stroke: #000000"/>
      </g>
     </g>
     <g id="line2d_48">
      <g>
       <use xlink:href="#ma6a8f4dc6c" x="845.622187" y="259.470648" style="stroke: #000000"/>
      </g>
     </g>
     <g id="text_28">
      <!-- 100 -->
      <g transform="translate(456.187187 264.02971) scale(0.12 -0.12)">
       <use xlink:href="#DejaVuSerif-31"/>
       <use xlink:href="#DejaVuSerif-30" x="63.623047"/>
       <use xlink:href="#DejaVuSerif-30" x="127.246094"/>
      </g>
     </g>
    </g>
    <g id="ytick_12">
     <g id="line2d_49">
      <g>
       <use xlink:href="#mbf5a820e5e" x="482.592187" y="209.928331" style="stroke: #000000"/>
      </g>
     </g>
     <g id="line2d_50">
      <g>
       <use xlink:href="#ma6a8f4dc6c" x="845.622187" y="209.928331" style="stroke: #000000"/>
      </g>
     </g>
     <g id="text_29">
      <!-- 200 -->
      <g transform="translate(456.187187 214.487393) scale(0.12 -0.12)">
       <use xlink:href="#DejaVuSerif-32"/>
       <use xlink:href="#DejaVuSerif-30" x="63.623047"/>
       <use xlink:href="#DejaVuSerif-30" x="127.246094"/>
      </g>
     </g>
    </g>
    <g id="ytick_13">
     <g id="line2d_51">
      <g>
       <use xlink:href="#mbf5a820e5e" x="482.592187" y="160.386014" style="stroke: #000000"/>
      </g>
     </g>
     <g id="line2d_52">
      <g>
       <use xlink:href="#ma6a8f4dc6c" x="845.622187" y="160.386014" style="stroke: #000000"/>
      </g>
     </g>
     <g id="text_30">
      <!-- 300 -->
      <g transform="translate(456.187187 164.945076) scale(0.12 -0.12)">
       <use xlink:href="#DejaVuSerif-33"/>
       <use xlink:href="#DejaVuSerif-30" x="63.623047"/>
       <use xlink:href="#DejaVuSerif-30" x="127.246094"/>
      </g>
     </g>
    </g>
    <g id="ytick_14">
     <g id="line2d_53">
      <g>
       <use xlink:href="#mbf5a820e5e" x="482.592187" y="110.843697" style="stroke: #000000"/>
      </g>
     </g>
     <g id="line2d_54">
      <g>
       <use xlink:href="#ma6a8f4dc6c" x="845.622187" y="110.843697" style="stroke: #000000"/>
      </g>
     </g>
     <g id="text_31">
      <!-- 400 -->
      <g transform="translate(456.187187 115.402759) scale(0.12 -0.12)">
       <use xlink:href="#DejaVuSerif-34"/>
       <use xlink:href="#DejaVuSerif-30" x="63.623047"/>
       <use xlink:href="#DejaVuSerif-30" x="127.246094"/>
      </g>
     </g>
    </g>
    <g id="ytick_15">
     <g id="line2d_55">
      <g>
       <use xlink:href="#mbf5a820e5e" x="482.592187" y="61.30138" style="stroke: #000000"/>
      </g>
     </g>
     <g id="line2d_56">
      <g>
       <use xlink:href="#ma6a8f4dc6c" x="845.622187" y="61.30138" style="stroke: #000000"/>
      </g>
     </g>
     <g id="text_32">
      <!-- 500 -->
      <g transform="translate(456.187187 65.860442) scale(0.12 -0.12)">
       <use xlink:href="#DejaVuSerif-35"/>
       <use xlink:href="#DejaVuSerif-30" x="63.623047"/>
       <use xlink:href="#DejaVuSerif-30" x="127.246094"/>
      </g>
     </g>
    </g>
    <g id="ytick_16">
     <g id="line2d_57">
      <g>
       <use xlink:href="#mbf5a820e5e" x="482.592187" y="11.759062" style="stroke: #000000"/>
      </g>
     </g>
     <g id="line2d_58">
      <g>
       <use xlink:href="#ma6a8f4dc6c" x="845.622187" y="11.759062" style="stroke: #000000"/>
      </g>
     </g>
     <g id="text_33">
      <!-- 600 -->
      <g transform="translate(456.187187 16.318125) scale(0.12 -0.12)">
       <use xlink:href="#DejaVuSerif-36"/>
       <use xlink:href="#DejaVuSerif-30" x="63.623047"/>
       <use xlink:href="#DejaVuSerif-30" x="127.246094"/>
      </g>
     </g>
    </g>
    <g id="text_34">
     <!-- Number of Samples -->
     <g transform="translate(449.275625 230.014908) rotate(-90) scale(0.14 -0.14)">
      <defs>
       <path id="DejaVuSerif-4e" d="M 313 0 
L 313 331 
L 941 331 
L 941 4331 
L 313 4331 
L 313 4666 
L 1509 4666 
L 4306 984 
L 4306 4331 
L 3681 4331 
L 3681 4666 
L 5319 4666 
L 5319 4331 
L 4691 4331 
L 4691 -91 
L 4313 -91 
L 1325 3841 
L 1325 331 
L 1953 331 
L 1953 0 
L 313 0 
z
" transform="scale(0.015625)"/>
       <path id="DejaVuSerif-62" d="M 738 331 
L 738 4531 
L 184 4531 
L 184 4863 
L 1313 4863 
L 1313 2803 
Q 1481 3116 1742 3264 
Q 2003 3413 2388 3413 
Q 3000 3413 3387 2928 
Q 3775 2444 3775 1663 
Q 3775 881 3387 395 
Q 3000 -91 2388 -91 
Q 2003 -91 1742 57 
Q 1481 206 1313 519 
L 1313 0 
L 184 0 
L 184 331 
L 738 331 
z
M 1313 1497 
Q 1313 897 1542 583 
Q 1772 269 2209 269 
Q 2650 269 2876 622 
Q 3103 975 3103 1663 
Q 3103 2353 2876 2703 
Q 2650 3053 2209 3053 
Q 1772 3053 1542 2737 
Q 1313 2422 1313 1825 
L 1313 1497 
z
" transform="scale(0.015625)"/>
       <path id="DejaVuSerif-6c" d="M 1313 331 
L 1856 331 
L 1856 0 
L 184 0 
L 184 331 
L 738 331 
L 738 4531 
L 184 4531 
L 184 4863 
L 1313 4863 
L 1313 331 
z
" transform="scale(0.015625)"/>
      </defs>
      <use xlink:href="#DejaVuSerif-4e"/>
      <use xlink:href="#DejaVuSerif-75" x="87.5"/>
      <use xlink:href="#DejaVuSerif-6d" x="151.904297"/>
      <use xlink:href="#DejaVuSerif-62" x="246.728516"/>
      <use xlink:href="#DejaVuSerif-65" x="310.742188"/>
      <use xlink:href="#DejaVuSerif-72" x="369.921875"/>
      <use xlink:href="#DejaVuSerif-20" x="417.724609"/>
      <use xlink:href="#DejaVuSerif-6f" x="449.511719"/>
      <use xlink:href="#DejaVuSerif-66" x="509.716797"/>
      <use xlink:href="#DejaVuSerif-20" x="546.728516"/>
      <use xlink:href="#DejaVuSerif-53" x="578.515625"/>
      <use xlink:href="#DejaVuSerif-61" x="647.021484"/>
      <use xlink:href="#DejaVuSerif-6d" x="706.640625"/>
      <use xlink:href="#DejaVuSerif-70" x="801.464844"/>
      <use xlink:href="#DejaVuSerif-6c" x="865.478516"/>
      <use xlink:href="#DejaVuSerif-65" x="897.460938"/>
      <use xlink:href="#DejaVuSerif-73" x="956.640625"/>
     </g>
    </g>
   </g>
   <g id="line2d_59">
    <path d="M 673.371728 309.012965 
L 673.371728 9.901226 
" clip-path="url(#pa338ff7bf3)" style="fill: none; stroke-dasharray: 5.55,2.4; stroke-dashoffset: 0; stroke: #000000; stroke-width: 1.5"/>
   </g>
   <g id="patch_79">
    <path d="M 482.592187 309.012965 
L 482.592187 9.901226 
" style="fill: none; stroke: #000000; stroke-linejoin: miter; stroke-linecap: square"/>
   </g>
   <g id="patch_80">
    <path d="M 845.622187 309.012965 
L 845.622187 9.901226 
" style="fill: none; stroke: #000000; stroke-linejoin: miter; stroke-linecap: square"/>
   </g>
   <g id="patch_81">
    <path d="M 482.592187 309.012965 
L 845.622187 309.012965 
" style="fill: none; stroke: #000000; stroke-linejoin: miter; stroke-linecap: square"/>
   </g>
   <g id="patch_82">
    <path d="M 482.592187 9.901226 
L 845.622187 9.901226 
" style="fill: none; stroke: #000000; stroke-linejoin: miter; stroke-linecap: square"/>
   </g>
   <g id="legend_1">
    <g id="patch_83">
     <path d="M 737.411406 34.847163 
L 840.122187 34.847163 
L 840.122187 15.401226 
L 737.411406 15.401226 
z
" style="fill: #ffffff; stroke: #000000; stroke-linejoin: miter"/>
    </g>
    <g id="line2d_60">
     <path d="M 741.811406 24.309507 
L 752.811406 24.309507 
L 763.811406 24.309507 
" style="fill: none; stroke-dasharray: 5.55,2.4; stroke-dashoffset: 0; stroke: #000000; stroke-width: 1.5"/>
    </g>
    <g id="text_35">
     <!-- Mean: 2.34 -->
     <g transform="translate(772.611406 28.159507) scale(0.11 -0.11)">
      <use xlink:href="#DejaVuSerif-4d"/>
      <use xlink:href="#DejaVuSerif-65" x="102.392578"/>
      <use xlink:href="#DejaVuSerif-61" x="161.572266"/>
      <use xlink:href="#DejaVuSerif-6e" x="221.191406"/>
      <use xlink:href="#DejaVuSerif-3a" x="285.595703"/>
      <use xlink:href="#DejaVuSerif-20" x="319.287109"/>
      <use xlink:href="#DejaVuSerif-32" x="351.074219"/>
      <use xlink:href="#DejaVuSerif-2e" x="414.697266"/>
      <use xlink:href="#DejaVuSerif-33" x="446.484375"/>
      <use xlink:href="#DejaVuSerif-34" x="510.107422"/>
     </g>
    </g>
   </g>
  </g>
 </g>
 <defs>
  <clipPath id="p223c646e0d">
   <rect x="62.802188" y="9.901226" width="363.03" height="299.111739"/>
  </clipPath>
  <clipPath id="pa338ff7bf3">
   <rect x="482.592187" y="9.901226" width="363.03" height="299.111739"/>
  </clipPath>
 </defs>
</svg>
