<?xml version="1.0" encoding="utf-8" standalone="no"?>
<!DOCTYPE svg PUBLIC "-//W3C//DTD SVG 1.1//EN"
  "http://www.w3.org/Graphics/SVG/1.1/DTD/svg11.dtd">
<svg xmlns:xlink="http://www.w3.org/1999/xlink" width="852.56875pt" height="313.163125pt" viewBox="0 0 852.56875 313.163125" xmlns="http://www.w3.org/2000/svg" version="1.1">
 <metadata>
  <rdf:RDF xmlns:dc="http://purl.org/dc/elements/1.1/" xmlns:cc="http://creativecommons.org/ns#" xmlns:rdf="http://www.w3.org/1999/02/22-rdf-syntax-ns#">
   <cc:Work>
    <dc:type rdf:resource="http://purl.org/dc/dcmitype/StillImage"/>
    <dc:date>2026-01-02T11:43:43.697823</dc:date>
    <dc:format>image/svg+xml</dc:format>
    <dc:creator>
     <cc:Agent>
      <dc:title>Matplotlib v3.9.4, https://matplotlib.org/</dc:title>
     </cc:Agent>
    </dc:creator>
   </cc:Work>
  </rdf:RDF>
 </metadata>
 <defs>
  <style type="text/css">*{stroke-linejoin: round; stroke-linecap: butt}</style>
 </defs>
 <g id="figure_1">
  <g id="patch_1">
   <path d="M 0 313.163125 
L 852.56875 313.163125 
L 852.56875 0 
L 0 0 
z
" style="fill: #ffffff"/>
  </g>
  <g id="axes_1">
   <g id="patch_2">
    <path d="M 57.38875 273.3 
L 419.220515 273.3 
L 419.220515 7.2 
L 57.38875 7.2 
z
" style="fill: #ffffff"/>
   </g>
   <g id="matplotlib.axis_1">
    <g id="xtick_1">
     <g id="line2d_1">
      <defs>
       <path id="m7179b2acdf" d="M 0 0 
L 0 -5 
" style="stroke: #000000"/>
      </defs>
      <g>
       <use xlink:href="#m7179b2acdf" x="73.835648" y="273.3" style="stroke: #000000"/>
      </g>
     </g>
     <g id="line2d_2">
      <defs>
       <path id="m5e766435b7" d="M 0 0 
L 0 5 
" style="stroke: #000000"/>
      </defs>
      <g>
       <use xlink:href="#m5e766435b7" x="73.835648" y="7.2" style="stroke: #000000"/>
      </g>
     </g>
     <g id="text_1">
      <!-- 0 -->
      <g transform="translate(70.018148 285.918125) scale(0.12 -0.12)">
       <defs>
        <path id="DejaVuSerif-30" d="M 2034 219 
Q 2513 219 2750 744 
Q 2988 1269 2988 2328 
Q 2988 3391 2750 3916 
Q 2513 4441 2034 4441 
Q 1556 4441 1318 3916 
Q 1081 3391 1081 2328 
Q 1081 1269 1318 744 
Q 1556 219 2034 219 
z
M 2034 -91 
Q 1275 -91 848 546 
Q 422 1184 422 2328 
Q 422 3475 848 4112 
Q 1275 4750 2034 4750 
Q 2797 4750 3222 4112 
Q 3647 3475 3647 2328 
Q 3647 1184 3222 546 
Q 2797 -91 2034 -91 
z
" transform="scale(0.015625)"/>
       </defs>
       <use xlink:href="#DejaVuSerif-30"/>
      </g>
     </g>
    </g>
    <g id="xtick_2">
     <g id="line2d_3">
      <g>
       <use xlink:href="#m7179b2acdf" x="130.549091" y="273.3" style="stroke: #000000"/>
      </g>
     </g>
     <g id="line2d_4">
      <g>
       <use xlink:href="#m5e766435b7" x="130.549091" y="7.2" style="stroke: #000000"/>
      </g>
     </g>
     <g id="text_2">
      <!-- 5 -->
      <g transform="translate(126.731591 285.918125) scale(0.12 -0.12)">
       <defs>
        <path id="DejaVuSerif-35" d="M 3219 4666 
L 3219 4153 
L 1081 4153 
L 1081 2816 
Q 1244 2928 1461 2984 
Q 1678 3041 1947 3041 
Q 2703 3041 3140 2622 
Q 3578 2203 3578 1478 
Q 3578 738 3136 323 
Q 2694 -91 1894 -91 
Q 1572 -91 1234 -12 
Q 897 66 544 225 
L 544 1131 
L 897 1131 
Q 925 688 1179 453 
Q 1434 219 1894 219 
Q 2388 219 2653 544 
Q 2919 869 2919 1478 
Q 2919 2084 2655 2407 
Q 2391 2731 1894 2731 
Q 1613 2731 1398 2631 
Q 1184 2531 1019 2322 
L 750 2322 
L 750 4666 
L 3219 4666 
z
" transform="scale(0.015625)"/>
       </defs>
       <use xlink:href="#DejaVuSerif-35"/>
      </g>
     </g>
    </g>
    <g id="xtick_3">
     <g id="line2d_5">
      <g>
       <use xlink:href="#m7179b2acdf" x="187.262534" y="273.3" style="stroke: #000000"/>
      </g>
     </g>
     <g id="line2d_6">
      <g>
       <use xlink:href="#m5e766435b7" x="187.262534" y="7.2" style="stroke: #000000"/>
      </g>
     </g>
     <g id="text_3">
      <!-- 10 -->
      <g transform="translate(179.627534 285.918125) scale(0.12 -0.12)">
       <defs>
        <path id="DejaVuSerif-31" d="M 909 0 
L 909 331 
L 1722 331 
L 1722 4213 
L 781 3603 
L 781 4013 
L 1919 4750 
L 2350 4750 
L 2350 331 
L 3163 331 
L 3163 0 
L 909 0 
z
" transform="scale(0.015625)"/>
       </defs>
       <use xlink:href="#DejaVuSerif-31"/>
       <use xlink:href="#DejaVuSerif-30" x="63.623047"/>
      </g>
     </g>
    </g>
    <g id="xtick_4">
     <g id="line2d_7">
      <g>
       <use xlink:href="#m7179b2acdf" x="243.975977" y="273.3" style="stroke: #000000"/>
      </g>
     </g>
     <g id="line2d_8">
      <g>
       <use xlink:href="#m5e766435b7" x="243.975977" y="7.2" style="stroke: #000000"/>
      </g>
     </g>
     <g id="text_4">
      <!-- 15 -->
      <g transform="translate(236.340977 285.918125) scale(0.12 -0.12)">
       <use xlink:href="#DejaVuSerif-31"/>
       <use xlink:href="#DejaVuSerif-35" x="63.623047"/>
      </g>
     </g>
    </g>
    <g id="xtick_5">
     <g id="line2d_9">
      <g>
       <use xlink:href="#m7179b2acdf" x="300.68942" y="273.3" style="stroke: #000000"/>
      </g>
     </g>
     <g id="line2d_10">
      <g>
       <use xlink:href="#m5e766435b7" x="300.68942" y="7.2" style="stroke: #000000"/>
      </g>
     </g>
     <g id="text_5">
      <!-- 20 -->
      <g transform="translate(293.05442 285.918125) scale(0.12 -0.12)">
       <defs>
        <path id="DejaVuSerif-32" d="M 819 3553 
L 469 3553 
L 469 4384 
Q 803 4563 1142 4656 
Q 1481 4750 1806 4750 
Q 2534 4750 2956 4397 
Q 3378 4044 3378 3438 
Q 3378 2753 2422 1800 
Q 2347 1728 2309 1691 
L 1131 513 
L 3078 513 
L 3078 1088 
L 3444 1088 
L 3444 0 
L 434 0 
L 434 341 
L 1850 1753 
Q 2319 2222 2519 2614 
Q 2719 3006 2719 3438 
Q 2719 3909 2473 4175 
Q 2228 4441 1797 4441 
Q 1350 4441 1106 4219 
Q 863 3997 819 3553 
z
" transform="scale(0.015625)"/>
       </defs>
       <use xlink:href="#DejaVuSerif-32"/>
       <use xlink:href="#DejaVuSerif-30" x="63.623047"/>
      </g>
     </g>
    </g>
    <g id="xtick_6">
     <g id="line2d_11">
      <g>
       <use xlink:href="#m7179b2acdf" x="357.402863" y="273.3" style="stroke: #000000"/>
      </g>
     </g>
     <g id="line2d_12">
      <g>
       <use xlink:href="#m5e766435b7" x="357.402863" y="7.2" style="stroke: #000000"/>
      </g>
     </g>
     <g id="text_6">
      <!-- 25 -->
      <g transform="translate(349.767863 285.918125) scale(0.12 -0.12)">
       <use xlink:href="#DejaVuSerif-32"/>
       <use xlink:href="#DejaVuSerif-35" x="63.623047"/>
      </g>
     </g>
    </g>
    <g id="xtick_7">
     <g id="line2d_13">
      <g>
       <use xlink:href="#m7179b2acdf" x="414.116306" y="273.3" style="stroke: #000000"/>
      </g>
     </g>
     <g id="line2d_14">
      <g>
       <use xlink:href="#m5e766435b7" x="414.116306" y="7.2" style="stroke: #000000"/>
      </g>
     </g>
     <g id="text_7">
      <!-- 30 -->
      <g transform="translate(406.481306 285.918125) scale(0.12 -0.12)">
       <defs>
        <path id="DejaVuSerif-33" d="M 622 4469 
Q 988 4606 1323 4678 
Q 1659 4750 1953 4750 
Q 2638 4750 3022 4454 
Q 3406 4159 3406 3634 
Q 3406 3213 3140 2930 
Q 2875 2647 2388 2547 
Q 2963 2466 3280 2130 
Q 3597 1794 3597 1259 
Q 3597 606 3158 257 
Q 2719 -91 1894 -91 
Q 1528 -91 1179 -12 
Q 831 66 488 225 
L 488 1131 
L 838 1131 
Q 869 681 1141 450 
Q 1413 219 1906 219 
Q 2384 219 2661 495 
Q 2938 772 2938 1253 
Q 2938 1803 2653 2086 
Q 2369 2369 1819 2369 
L 1522 2369 
L 1522 2688 
L 1678 2688 
Q 2225 2688 2498 2914 
Q 2772 3141 2772 3597 
Q 2772 4006 2547 4223 
Q 2322 4441 1900 4441 
Q 1478 4441 1245 4241 
Q 1013 4041 972 3647 
L 622 3647 
L 622 4469 
z
" transform="scale(0.015625)"/>
       </defs>
       <use xlink:href="#DejaVuSerif-33"/>
       <use xlink:href="#DejaVuSerif-30" x="63.623047"/>
      </g>
     </g>
    </g>
    <g id="text_8">
     <!-- Position from End -->
     <g transform="translate(174.717289 303.051562) scale(0.14 -0.14)">
      <defs>
       <path id="DejaVuSerif-50" d="M 1581 2375 
L 2406 2375 
Q 2872 2375 3115 2626 
Q 3359 2878 3359 3353 
Q 3359 3831 3115 4081 
Q 2872 4331 2406 4331 
L 1581 4331 
L 1581 2375 
z
M 353 0 
L 353 331 
L 947 331 
L 947 4331 
L 353 4331 
L 353 4666 
L 2559 4666 
Q 3259 4666 3668 4311 
Q 4078 3956 4078 3353 
Q 4078 2753 3668 2397 
Q 3259 2041 2559 2041 
L 1581 2041 
L 1581 331 
L 2303 331 
L 2303 0 
L 353 0 
z
" transform="scale(0.015625)"/>
       <path id="DejaVuSerif-6f" d="M 1925 219 
Q 2388 219 2623 584 
Q 2859 950 2859 1663 
Q 2859 2375 2623 2739 
Q 2388 3103 1925 3103 
Q 1463 3103 1227 2739 
Q 991 2375 991 1663 
Q 991 950 1228 584 
Q 1466 219 1925 219 
z
M 1925 -91 
Q 1200 -91 759 389 
Q 319 869 319 1663 
Q 319 2456 758 2934 
Q 1197 3413 1925 3413 
Q 2653 3413 3092 2934 
Q 3531 2456 3531 1663 
Q 3531 869 3092 389 
Q 2653 -91 1925 -91 
z
" transform="scale(0.015625)"/>
       <path id="DejaVuSerif-73" d="M 359 184 
L 359 959 
L 691 959 
Q 703 588 923 403 
Q 1144 219 1575 219 
Q 1963 219 2166 364 
Q 2369 509 2369 788 
Q 2369 1006 2220 1140 
Q 2072 1275 1594 1428 
L 1178 1569 
Q 750 1706 558 1912 
Q 366 2119 366 2438 
Q 366 2894 700 3153 
Q 1034 3413 1625 3413 
Q 1888 3413 2178 3344 
Q 2469 3275 2778 3144 
L 2778 2419 
L 2447 2419 
Q 2434 2741 2221 2922 
Q 2009 3103 1644 3103 
Q 1281 3103 1095 2975 
Q 909 2847 909 2591 
Q 909 2381 1050 2254 
Q 1191 2128 1613 1997 
L 2069 1856 
Q 2541 1709 2748 1489 
Q 2956 1269 2956 922 
Q 2956 450 2595 179 
Q 2234 -91 1600 -91 
Q 1278 -91 972 -22 
Q 666 47 359 184 
z
" transform="scale(0.015625)"/>
       <path id="DejaVuSerif-69" d="M 622 4353 
Q 622 4497 726 4603 
Q 831 4709 978 4709 
Q 1122 4709 1226 4603 
Q 1331 4497 1331 4353 
Q 1331 4206 1228 4103 
Q 1125 4000 978 4000 
Q 831 4000 726 4103 
Q 622 4206 622 4353 
z
M 1356 331 
L 1900 331 
L 1900 0 
L 231 0 
L 231 331 
L 781 331 
L 781 2988 
L 231 2988 
L 231 3322 
L 1356 3322 
L 1356 331 
z
" transform="scale(0.015625)"/>
       <path id="DejaVuSerif-74" d="M 691 2988 
L 184 2988 
L 184 3322 
L 691 3322 
L 691 4353 
L 1269 4353 
L 1269 3322 
L 2350 3322 
L 2350 2988 
L 1269 2988 
L 1269 878 
Q 1269 456 1350 337 
Q 1431 219 1650 219 
Q 1875 219 1978 351 
Q 2081 484 2088 781 
L 2522 781 
Q 2497 328 2275 118 
Q 2053 -91 1600 -91 
Q 1103 -91 897 129 
Q 691 350 691 878 
L 691 2988 
z
" transform="scale(0.015625)"/>
       <path id="DejaVuSerif-6e" d="M 263 0 
L 263 331 
L 781 331 
L 781 2988 
L 231 2988 
L 231 3322 
L 1356 3322 
L 1356 2731 
Q 1516 3069 1770 3241 
Q 2025 3413 2363 3413 
Q 2913 3413 3172 3097 
Q 3431 2781 3431 2113 
L 3431 331 
L 3944 331 
L 3944 0 
L 2356 0 
L 2356 331 
L 2853 331 
L 2853 1931 
Q 2853 2541 2703 2767 
Q 2553 2994 2175 2994 
Q 1775 2994 1565 2701 
Q 1356 2409 1356 1850 
L 1356 331 
L 1856 331 
L 1856 0 
L 263 0 
z
" transform="scale(0.015625)"/>
       <path id="DejaVuSerif-20" transform="scale(0.015625)"/>
       <path id="DejaVuSerif-66" d="M 2753 4078 
L 2450 4078 
Q 2447 4313 2317 4434 
Q 2188 4556 1941 4556 
Q 1619 4556 1487 4379 
Q 1356 4203 1356 3750 
L 1356 3322 
L 2284 3322 
L 2284 2988 
L 1356 2988 
L 1356 331 
L 2094 331 
L 2094 0 
L 231 0 
L 231 331 
L 781 331 
L 781 2988 
L 231 2988 
L 231 3322 
L 781 3322 
L 781 3738 
Q 781 4294 1070 4578 
Q 1359 4863 1919 4863 
Q 2128 4863 2337 4825 
Q 2547 4788 2753 4709 
L 2753 4078 
z
" transform="scale(0.015625)"/>
       <path id="DejaVuSerif-72" d="M 3059 3328 
L 3059 2497 
L 2728 2497 
Q 2713 2744 2591 2866 
Q 2469 2988 2234 2988 
Q 1809 2988 1582 2694 
Q 1356 2400 1356 1850 
L 1356 331 
L 2022 331 
L 2022 0 
L 263 0 
L 263 331 
L 781 331 
L 781 2994 
L 231 2994 
L 231 3322 
L 1356 3322 
L 1356 2731 
Q 1525 3078 1790 3245 
Q 2056 3413 2438 3413 
Q 2578 3413 2733 3391 
Q 2888 3369 3059 3328 
z
" transform="scale(0.015625)"/>
       <path id="DejaVuSerif-6d" d="M 3316 2675 
Q 3481 3041 3739 3227 
Q 3997 3413 4341 3413 
Q 4863 3413 5119 3089 
Q 5375 2766 5375 2113 
L 5375 331 
L 5894 331 
L 5894 0 
L 4300 0 
L 4300 331 
L 4800 331 
L 4800 2047 
Q 4800 2556 4650 2772 
Q 4500 2988 4153 2988 
Q 3769 2988 3567 2697 
Q 3366 2406 3366 1850 
L 3366 331 
L 3866 331 
L 3866 0 
L 2291 0 
L 2291 331 
L 2791 331 
L 2791 2069 
Q 2791 2566 2641 2777 
Q 2491 2988 2144 2988 
Q 1759 2988 1557 2697 
Q 1356 2406 1356 1850 
L 1356 331 
L 1856 331 
L 1856 0 
L 263 0 
L 263 331 
L 781 331 
L 781 2994 
L 231 2994 
L 231 3322 
L 1356 3322 
L 1356 2731 
Q 1516 3063 1762 3238 
Q 2009 3413 2322 3413 
Q 2709 3413 2968 3220 
Q 3228 3028 3316 2675 
z
" transform="scale(0.015625)"/>
       <path id="DejaVuSerif-45" d="M 353 0 
L 353 331 
L 947 331 
L 947 4331 
L 353 4331 
L 353 4666 
L 4109 4666 
L 4109 3628 
L 3725 3628 
L 3725 4281 
L 1581 4281 
L 1581 2719 
L 3109 2719 
L 3109 3303 
L 3494 3303 
L 3494 1753 
L 3109 1753 
L 3109 2338 
L 1581 2338 
L 1581 384 
L 3775 384 
L 3775 1038 
L 4159 1038 
L 4159 0 
L 353 0 
z
" transform="scale(0.015625)"/>
       <path id="DejaVuSerif-64" d="M 3359 331 
L 3909 331 
L 3909 0 
L 2784 0 
L 2784 519 
Q 2616 206 2355 57 
Q 2094 -91 1709 -91 
Q 1097 -91 708 395 
Q 319 881 319 1663 
Q 319 2444 706 2928 
Q 1094 3413 1709 3413 
Q 2094 3413 2355 3264 
Q 2616 3116 2784 2803 
L 2784 4531 
L 2241 4531 
L 2241 4863 
L 3359 4863 
L 3359 331 
z
M 2784 1497 
L 2784 1825 
Q 2784 2422 2554 2737 
Q 2325 3053 1888 3053 
Q 1444 3053 1217 2703 
Q 991 2353 991 1663 
Q 991 975 1217 622 
Q 1444 269 1888 269 
Q 2325 269 2554 583 
Q 2784 897 2784 1497 
z
" transform="scale(0.015625)"/>
      </defs>
      <use xlink:href="#DejaVuSerif-50"/>
      <use xlink:href="#DejaVuSerif-6f" x="63.285156"/>
      <use xlink:href="#DejaVuSerif-73" x="123.490234"/>
      <use xlink:href="#DejaVuSerif-69" x="174.808594"/>
      <use xlink:href="#DejaVuSerif-74" x="206.791016"/>
      <use xlink:href="#DejaVuSerif-69" x="246.976562"/>
      <use xlink:href="#DejaVuSerif-6f" x="278.958984"/>
      <use xlink:href="#DejaVuSerif-6e" x="339.164062"/>
      <use xlink:href="#DejaVuSerif-20" x="403.568359"/>
      <use xlink:href="#DejaVuSerif-66" x="435.355469"/>
      <use xlink:href="#DejaVuSerif-72" x="472.367188"/>
      <use xlink:href="#DejaVuSerif-6f" x="520.169922"/>
      <use xlink:href="#DejaVuSerif-6d" x="580.375"/>
      <use xlink:href="#DejaVuSerif-20" x="675.199219"/>
      <use xlink:href="#DejaVuSerif-45" x="706.986328"/>
      <use xlink:href="#DejaVuSerif-6e" x="779.984375"/>
      <use xlink:href="#DejaVuSerif-64" x="844.388672"/>
     </g>
    </g>
   </g>
   <g id="matplotlib.axis_2">
    <g id="ytick_1">
     <g id="line2d_15">
      <defs>
       <path id="ma7dad27091" d="M 0 0 
L 5 0 
" style="stroke: #000000"/>
      </defs>
      <g>
       <use xlink:href="#ma7dad27091" x="57.38875" y="248.8557" style="stroke: #000000"/>
      </g>
     </g>
     <g id="line2d_16">
      <defs>
       <path id="me21027a856" d="M 0 0 
L -5 0 
" style="stroke: #000000"/>
      </defs>
      <g>
       <use xlink:href="#me21027a856" x="419.220515" y="248.8557" style="stroke: #000000"/>
      </g>
     </g>
     <g id="text_9">
      <!-- −0.2 -->
      <g transform="translate(24.749375 253.414762) scale(0.12 -0.12)">
       <defs>
        <path id="DejaVuSerif-2212" d="M 678 2259 
L 4684 2259 
L 4684 1753 
L 678 1753 
L 678 2259 
z
" transform="scale(0.015625)"/>
        <path id="DejaVuSerif-2e" d="M 603 325 
Q 603 500 722 622 
Q 841 744 1019 744 
Q 1191 744 1312 622 
Q 1434 500 1434 325 
Q 1434 153 1312 31 
Q 1191 -91 1019 -91 
Q 841 -91 722 29 
Q 603 150 603 325 
z
" transform="scale(0.015625)"/>
       </defs>
       <use xlink:href="#DejaVuSerif-2212"/>
       <use xlink:href="#DejaVuSerif-30" x="83.789062"/>
       <use xlink:href="#DejaVuSerif-2e" x="147.412109"/>
       <use xlink:href="#DejaVuSerif-32" x="179.199219"/>
      </g>
     </g>
    </g>
    <g id="ytick_2">
     <g id="line2d_17">
      <g>
       <use xlink:href="#ma7dad27091" x="57.38875" y="191.244502" style="stroke: #000000"/>
      </g>
     </g>
     <g id="line2d_18">
      <g>
       <use xlink:href="#me21027a856" x="419.220515" y="191.244502" style="stroke: #000000"/>
      </g>
     </g>
     <g id="text_10">
      <!-- −0.1 -->
      <g transform="translate(24.749375 195.803565) scale(0.12 -0.12)">
       <use xlink:href="#DejaVuSerif-2212"/>
       <use xlink:href="#DejaVuSerif-30" x="83.789062"/>
       <use xlink:href="#DejaVuSerif-2e" x="147.412109"/>
       <use xlink:href="#DejaVuSerif-31" x="179.199219"/>
      </g>
     </g>
    </g>
    <g id="ytick_3">
     <g id="line2d_19">
      <g>
       <use xlink:href="#ma7dad27091" x="57.38875" y="133.633305" style="stroke: #000000"/>
      </g>
     </g>
     <g id="line2d_20">
      <g>
       <use xlink:href="#me21027a856" x="419.220515" y="133.633305" style="stroke: #000000"/>
      </g>
     </g>
     <g id="text_11">
      <!-- 0.0 -->
      <g transform="translate(34.805 138.192368) scale(0.12 -0.12)">
       <use xlink:href="#DejaVuSerif-30"/>
       <use xlink:href="#DejaVuSerif-2e" x="63.623047"/>
       <use xlink:href="#DejaVuSerif-30" x="95.410156"/>
      </g>
     </g>
    </g>
    <g id="ytick_4">
     <g id="line2d_21">
      <g>
       <use xlink:href="#ma7dad27091" x="57.38875" y="76.022108" style="stroke: #000000"/>
      </g>
     </g>
     <g id="line2d_22">
      <g>
       <use xlink:href="#me21027a856" x="419.220515" y="76.022108" style="stroke: #000000"/>
      </g>
     </g>
     <g id="text_12">
      <!-- 0.1 -->
      <g transform="translate(34.805 80.58117) scale(0.12 -0.12)">
       <use xlink:href="#DejaVuSerif-30"/>
       <use xlink:href="#DejaVuSerif-2e" x="63.623047"/>
       <use xlink:href="#DejaVuSerif-31" x="95.410156"/>
      </g>
     </g>
    </g>
    <g id="ytick_5">
     <g id="line2d_23">
      <g>
       <use xlink:href="#ma7dad27091" x="57.38875" y="18.410911" style="stroke: #000000"/>
      </g>
     </g>
     <g id="line2d_24">
      <g>
       <use xlink:href="#me21027a856" x="419.220515" y="18.410911" style="stroke: #000000"/>
      </g>
     </g>
     <g id="text_13">
      <!-- 0.2 -->
      <g transform="translate(34.805 22.969973) scale(0.12 -0.12)">
       <use xlink:href="#DejaVuSerif-30"/>
       <use xlink:href="#DejaVuSerif-2e" x="63.623047"/>
       <use xlink:href="#DejaVuSerif-32" x="95.410156"/>
      </g>
     </g>
    </g>
    <g id="text_14">
     <!-- Bias Value -->
     <g transform="translate(17.837813 177.103906) rotate(-90) scale(0.14 -0.14)">
      <defs>
       <path id="DejaVuSerif-42" d="M 1581 331 
L 2516 331 
Q 3078 331 3337 575 
Q 3597 819 3597 1350 
Q 3597 1878 3339 2120 
Q 3081 2363 2516 2363 
L 1581 2363 
L 1581 331 
z
M 1581 2694 
L 2375 2694 
Q 2888 2694 3123 2891 
Q 3359 3088 3359 3513 
Q 3359 3941 3123 4136 
Q 2888 4331 2375 4331 
L 1581 4331 
L 1581 2694 
z
M 353 0 
L 353 331 
L 947 331 
L 947 4331 
L 353 4331 
L 353 4666 
L 2656 4666 
Q 3363 4666 3720 4377 
Q 4078 4088 4078 3513 
Q 4078 3097 3829 2850 
Q 3581 2603 3103 2547 
Q 3697 2472 4005 2167 
Q 4313 1863 4313 1350 
Q 4313 656 3875 328 
Q 3438 0 2509 0 
L 353 0 
z
" transform="scale(0.015625)"/>
       <path id="DejaVuSerif-61" d="M 2547 1044 
L 2547 1747 
L 1806 1747 
Q 1378 1747 1168 1562 
Q 959 1378 959 997 
Q 959 650 1171 447 
Q 1384 244 1747 244 
Q 2106 244 2326 466 
Q 2547 688 2547 1044 
z
M 3122 2075 
L 3122 331 
L 3634 331 
L 3634 0 
L 2547 0 
L 2547 359 
Q 2356 128 2106 18 
Q 1856 -91 1522 -91 
Q 969 -91 644 203 
Q 319 497 319 997 
Q 319 1513 691 1797 
Q 1063 2081 1741 2081 
L 2547 2081 
L 2547 2309 
Q 2547 2688 2317 2895 
Q 2088 3103 1672 3103 
Q 1328 3103 1125 2947 
Q 922 2791 872 2484 
L 575 2484 
L 575 3156 
Q 875 3284 1158 3348 
Q 1441 3413 1709 3413 
Q 2400 3413 2761 3070 
Q 3122 2728 3122 2075 
z
" transform="scale(0.015625)"/>
       <path id="DejaVuSerif-56" d="M 1119 4331 
L 2497 750 
L 3872 4331 
L 3347 4331 
L 3347 4666 
L 4716 4666 
L 4716 4331 
L 4263 4331 
L 2597 0 
L 2059 0 
L 403 4331 
L -63 4331 
L -63 4666 
L 1638 4666 
L 1638 4331 
L 1119 4331 
z
" transform="scale(0.015625)"/>
       <path id="DejaVuSerif-6c" d="M 1313 331 
L 1856 331 
L 1856 0 
L 184 0 
L 184 331 
L 738 331 
L 738 4531 
L 184 4531 
L 184 4863 
L 1313 4863 
L 1313 331 
z
" transform="scale(0.015625)"/>
       <path id="DejaVuSerif-75" d="M 2266 3322 
L 3341 3322 
L 3341 331 
L 3884 331 
L 3884 0 
L 2766 0 
L 2766 588 
Q 2606 256 2353 82 
Q 2100 -91 1766 -91 
Q 1213 -91 952 223 
Q 691 538 691 1209 
L 691 2988 
L 172 2988 
L 172 3322 
L 1269 3322 
L 1269 1388 
Q 1269 781 1417 556 
Q 1566 331 1947 331 
Q 2347 331 2556 625 
Q 2766 919 2766 1478 
L 2766 2988 
L 2266 2988 
L 2266 3322 
z
" transform="scale(0.015625)"/>
       <path id="DejaVuSerif-65" d="M 3469 1600 
L 991 1600 
L 991 1575 
Q 991 903 1244 561 
Q 1497 219 1991 219 
Q 2369 219 2611 417 
Q 2853 616 2950 1006 
L 3413 1006 
Q 3275 459 2904 184 
Q 2534 -91 1931 -91 
Q 1203 -91 761 389 
Q 319 869 319 1663 
Q 319 2450 753 2931 
Q 1188 3413 1894 3413 
Q 2647 3413 3050 2948 
Q 3453 2484 3469 1600 
z
M 2791 1931 
Q 2772 2513 2545 2808 
Q 2319 3103 1894 3103 
Q 1497 3103 1269 2806 
Q 1041 2509 991 1931 
L 2791 1931 
z
" transform="scale(0.015625)"/>
      </defs>
      <use xlink:href="#DejaVuSerif-42"/>
      <use xlink:href="#DejaVuSerif-69" x="73.486328"/>
      <use xlink:href="#DejaVuSerif-61" x="105.46875"/>
      <use xlink:href="#DejaVuSerif-73" x="165.087891"/>
      <use xlink:href="#DejaVuSerif-20" x="216.40625"/>
      <use xlink:href="#DejaVuSerif-56" x="248.193359"/>
      <use xlink:href="#DejaVuSerif-61" x="311.285156"/>
      <use xlink:href="#DejaVuSerif-6c" x="370.904297"/>
      <use xlink:href="#DejaVuSerif-75" x="402.886719"/>
      <use xlink:href="#DejaVuSerif-65" x="467.291016"/>
     </g>
    </g>
   </g>
   <g id="line2d_25">
    <path d="M 73.835648 133.633305 
L 85.178337 195.856254 
L 96.521026 19.295455 
L 107.863714 107.696401 
L 119.206403 150.11607 
L 130.549091 152.922856 
L 141.89178 206.041873 
L 153.234468 153.831188 
L 164.577157 166.290313 
L 175.919846 201.236382 
L 187.262534 164.985526 
L 198.605223 183.782194 
L 209.947911 150.336119 
L 221.2906 182.631604 
L 232.633288 163.220437 
L 243.975977 153.573581 
L 255.318666 161.06255 
L 266.661354 189.271829 
L 278.004043 142.490534 
L 289.346731 172.346886 
L 300.68942 217.922085 
L 312.032108 220.493703 
L 323.374797 165.728299 
L 334.717486 208.377437 
L 346.060174 184.573922 
L 357.402863 261.204545 
L 368.745551 160.718531 
L 380.08824 199.662958 
L 391.430928 210.709567 
L 402.773617 201.585983 
" clip-path="url(#p6532af27eb)" style="fill: none; stroke: #0000ff; stroke-width: 1.5; stroke-linecap: square"/>
    <defs>
     <path id="m0fc6f36bf8" d="M 0 3.5 
C 0.928211 3.5 1.81853 3.131218 2.474874 2.474874 
C 3.131218 1.81853 3.5 0.928211 3.5 0 
C 3.5 -0.928211 3.131218 -1.81853 2.474874 -2.474874 
C 1.81853 -3.131218 0.928211 -3.5 0 -3.5 
C -0.928211 -3.5 -1.81853 -3.131218 -2.474874 -2.474874 
C -3.131218 -1.81853 -3.5 -0.928211 -3.5 0 
C -3.5 0.928211 -3.131218 1.81853 -2.474874 2.474874 
C -1.81853 3.131218 -0.928211 3.5 0 3.5 
z
" style="stroke: #0000ff; stroke-width: 1.5"/>
    </defs>
    <g clip-path="url(#p6532af27eb)">
     <use xlink:href="#m0fc6f36bf8" x="73.835648" y="133.633305" style="fill: #ffffff; stroke: #0000ff; stroke-width: 1.5"/>
     <use xlink:href="#m0fc6f36bf8" x="85.178337" y="195.856254" style="fill: #ffffff; stroke: #0000ff; stroke-width: 1.5"/>
     <use xlink:href="#m0fc6f36bf8" x="96.521026" y="19.295455" style="fill: #ffffff; stroke: #0000ff; stroke-width: 1.5"/>
     <use xlink:href="#m0fc6f36bf8" x="107.863714" y="107.696401" style="fill: #ffffff; stroke: #0000ff; stroke-width: 1.5"/>
     <use xlink:href="#m0fc6f36bf8" x="119.206403" y="150.11607" style="fill: #ffffff; stroke: #0000ff; stroke-width: 1.5"/>
     <use xlink:href="#m0fc6f36bf8" x="130.549091" y="152.922856" style="fill: #ffffff; stroke: #0000ff; stroke-width: 1.5"/>
     <use xlink:href="#m0fc6f36bf8" x="141.89178" y="206.041873" style="fill: #ffffff; stroke: #0000ff; stroke-width: 1.5"/>
     <use xlink:href="#m0fc6f36bf8" x="153.234468" y="153.831188" style="fill: #ffffff; stroke: #0000ff; stroke-width: 1.5"/>
     <use xlink:href="#m0fc6f36bf8" x="164.577157" y="166.290313" style="fill: #ffffff; stroke: #0000ff; stroke-width: 1.5"/>
     <use xlink:href="#m0fc6f36bf8" x="175.919846" y="201.236382" style="fill: #ffffff; stroke: #0000ff; stroke-width: 1.5"/>
     <use xlink:href="#m0fc6f36bf8" x="187.262534" y="164.985526" style="fill: #ffffff; stroke: #0000ff; stroke-width: 1.5"/>
     <use xlink:href="#m0fc6f36bf8" x="198.605223" y="183.782194" style="fill: #ffffff; stroke: #0000ff; stroke-width: 1.5"/>
     <use xlink:href="#m0fc6f36bf8" x="209.947911" y="150.336119" style="fill: #ffffff; stroke: #0000ff; stroke-width: 1.5"/>
     <use xlink:href="#m0fc6f36bf8" x="221.2906" y="182.631604" style="fill: #ffffff; stroke: #0000ff; stroke-width: 1.5"/>
     <use xlink:href="#m0fc6f36bf8" x="232.633288" y="163.220437" style="fill: #ffffff; stroke: #0000ff; stroke-width: 1.5"/>
     <use xlink:href="#m0fc6f36bf8" x="243.975977" y="153.573581" style="fill: #ffffff; stroke: #0000ff; stroke-width: 1.5"/>
     <use xlink:href="#m0fc6f36bf8" x="255.318666" y="161.06255" style="fill: #ffffff; stroke: #0000ff; stroke-width: 1.5"/>
     <use xlink:href="#m0fc6f36bf8" x="266.661354" y="189.271829" style="fill: #ffffff; stroke: #0000ff; stroke-width: 1.5"/>
     <use xlink:href="#m0fc6f36bf8" x="278.004043" y="142.490534" style="fill: #ffffff; stroke: #0000ff; stroke-width: 1.5"/>
     <use xlink:href="#m0fc6f36bf8" x="289.346731" y="172.346886" style="fill: #ffffff; stroke: #0000ff; stroke-width: 1.5"/>
     <use xlink:href="#m0fc6f36bf8" x="300.68942" y="217.922085" style="fill: #ffffff; stroke: #0000ff; stroke-width: 1.5"/>
     <use xlink:href="#m0fc6f36bf8" x="312.032108" y="220.493703" style="fill: #ffffff; stroke: #0000ff; stroke-width: 1.5"/>
     <use xlink:href="#m0fc6f36bf8" x="323.374797" y="165.728299" style="fill: #ffffff; stroke: #0000ff; stroke-width: 1.5"/>
     <use xlink:href="#m0fc6f36bf8" x="334.717486" y="208.377437" style="fill: #ffffff; stroke: #0000ff; stroke-width: 1.5"/>
     <use xlink:href="#m0fc6f36bf8" x="346.060174" y="184.573922" style="fill: #ffffff; stroke: #0000ff; stroke-width: 1.5"/>
     <use xlink:href="#m0fc6f36bf8" x="357.402863" y="261.204545" style="fill: #ffffff; stroke: #0000ff; stroke-width: 1.5"/>
     <use xlink:href="#m0fc6f36bf8" x="368.745551" y="160.718531" style="fill: #ffffff; stroke: #0000ff; stroke-width: 1.5"/>
     <use xlink:href="#m0fc6f36bf8" x="380.08824" y="199.662958" style="fill: #ffffff; stroke: #0000ff; stroke-width: 1.5"/>
     <use xlink:href="#m0fc6f36bf8" x="391.430928" y="210.709567" style="fill: #ffffff; stroke: #0000ff; stroke-width: 1.5"/>
     <use xlink:href="#m0fc6f36bf8" x="402.773617" y="201.585983" style="fill: #ffffff; stroke: #0000ff; stroke-width: 1.5"/>
    </g>
   </g>
   <g id="line2d_26">
    <path d="M 57.38875 133.633305 
L 419.220515 133.633305 
" clip-path="url(#p6532af27eb)" style="fill: none; stroke-dasharray: 3.7,1.6; stroke-dashoffset: 0; stroke: #000000"/>
   </g>
   <g id="patch_3">
    <path d="M 57.38875 273.3 
L 57.38875 7.2 
" style="fill: none; stroke: #000000; stroke-linejoin: miter; stroke-linecap: square"/>
   </g>
   <g id="patch_4">
    <path d="M 419.220515 273.3 
L 419.220515 7.2 
" style="fill: none; stroke: #000000; stroke-linejoin: miter; stroke-linecap: square"/>
   </g>
   <g id="patch_5">
    <path d="M 57.38875 273.3 
L 419.220515 273.3 
" style="fill: none; stroke: #000000; stroke-linejoin: miter; stroke-linecap: square"/>
   </g>
   <g id="patch_6">
    <path d="M 57.38875 7.2 
L 419.220515 7.2 
" style="fill: none; stroke: #000000; stroke-linejoin: miter; stroke-linecap: square"/>
   </g>
  </g>
  <g id="axes_2">
   <g id="patch_7">
    <path d="M 483.536985 273.3 
L 845.36875 273.3 
L 845.36875 7.2 
L 483.536985 7.2 
z
" style="fill: #ffffff"/>
   </g>
   <g id="patch_8">
    <path d="M 499.983883 273.3 
L 508.814432 273.3 
L 508.814432 65.491417 
L 499.983883 65.491417 
z
" clip-path="url(#pfd4dcce977)" style="fill: #ffffff; stroke: #ff0000; stroke-linejoin: miter"/>
   </g>
   <g id="patch_9">
    <path d="M 511.02207 273.3 
L 519.852619 273.3 
L 519.852619 86.766206 
L 511.02207 86.766206 
z
" clip-path="url(#pfd4dcce977)" style="fill: #ffffff; stroke: #ff0000; stroke-linejoin: miter"/>
   </g>
   <g id="patch_10">
    <path d="M 522.060257 273.3 
L 530.890806 273.3 
L 530.890806 19.871429 
L 522.060257 19.871429 
z
" clip-path="url(#pfd4dcce977)" style="fill: #ffffff; stroke: #ff0000; stroke-linejoin: miter"/>
   </g>
   <g id="patch_11">
    <path d="M 533.098444 273.3 
L 541.928993 273.3 
L 541.928993 55.921956 
L 533.098444 55.921956 
z
" clip-path="url(#pfd4dcce977)" style="fill: #ffffff; stroke: #ff0000; stroke-linejoin: miter"/>
   </g>
   <g id="patch_12">
    <path d="M 544.13663 273.3 
L 552.96718 273.3 
L 552.96718 71.352647 
L 544.13663 71.352647 
z
" clip-path="url(#pfd4dcce977)" style="fill: #ffffff; stroke: #ff0000; stroke-linejoin: miter"/>
   </g>
   <g id="patch_13">
    <path d="M 555.174817 273.3 
L 564.005367 273.3 
L 564.005367 72.334131 
L 555.174817 72.334131 
z
" clip-path="url(#pfd4dcce977)" style="fill: #ffffff; stroke: #ff0000; stroke-linejoin: miter"/>
   </g>
   <g id="patch_14">
    <path d="M 566.213004 273.3 
L 575.043554 273.3 
L 575.043554 90.035128 
L 566.213004 90.035128 
z
" clip-path="url(#pfd4dcce977)" style="fill: #ffffff; stroke: #ff0000; stroke-linejoin: miter"/>
   </g>
   <g id="patch_15">
    <path d="M 577.251191 273.3 
L 586.081741 273.3 
L 586.081741 72.650736 
L 577.251191 72.650736 
z
" clip-path="url(#pfd4dcce977)" style="fill: #ffffff; stroke: #ff0000; stroke-linejoin: miter"/>
   </g>
   <g id="patch_16">
    <path d="M 588.289378 273.3 
L 597.119927 273.3 
L 597.119927 76.943437 
L 588.289378 76.943437 
z
" clip-path="url(#pfd4dcce977)" style="fill: #ffffff; stroke: #ff0000; stroke-linejoin: miter"/>
   </g>
   <g id="patch_17">
    <path d="M 599.327565 273.3 
L 608.158114 273.3 
L 608.158114 88.500077 
L 599.327565 88.500077 
z
" clip-path="url(#pfd4dcce977)" style="fill: #ffffff; stroke: #ff0000; stroke-linejoin: miter"/>
   </g>
   <g id="patch_18">
    <path d="M 610.365752 273.3 
L 619.196301 273.3 
L 619.196301 76.498221 
L 610.365752 76.498221 
z
" clip-path="url(#pfd4dcce977)" style="fill: #ffffff; stroke: #ff0000; stroke-linejoin: miter"/>
   </g>
   <g id="patch_19">
    <path d="M 621.403938 273.3 
L 630.234488 273.3 
L 630.234488 82.815608 
L 621.403938 82.815608 
z
" clip-path="url(#pfd4dcce977)" style="fill: #ffffff; stroke: #ff0000; stroke-linejoin: miter"/>
   </g>
   <g id="patch_20">
    <path d="M 632.442125 273.3 
L 641.272675 273.3 
L 641.272675 71.429768 
L 632.442125 71.429768 
z
" clip-path="url(#pfd4dcce977)" style="fill: #ffffff; stroke: #ff0000; stroke-linejoin: miter"/>
   </g>
   <g id="patch_21">
    <path d="M 643.480312 273.3 
L 652.310862 273.3 
L 652.310862 82.434799 
L 643.480312 82.434799 
z
" clip-path="url(#pfd4dcce977)" style="fill: #ffffff; stroke: #ff0000; stroke-linejoin: miter"/>
   </g>
   <g id="patch_22">
    <path d="M 654.518499 273.3 
L 663.349049 273.3 
L 663.349049 75.894337 
L 654.518499 75.894337 
z
" clip-path="url(#pfd4dcce977)" style="fill: #ffffff; stroke: #ff0000; stroke-linejoin: miter"/>
   </g>
   <g id="patch_23">
    <path d="M 665.556686 273.3 
L 674.387235 273.3 
L 674.387235 72.560996 
L 665.556686 72.560996 
z
" clip-path="url(#pfd4dcce977)" style="fill: #ffffff; stroke: #ff0000; stroke-linejoin: miter"/>
   </g>
   <g id="patch_24">
    <path d="M 676.594873 273.3 
L 685.425422 273.3 
L 685.425422 75.153547 
L 676.594873 75.153547 
z
" clip-path="url(#pfd4dcce977)" style="fill: #ffffff; stroke: #ff0000; stroke-linejoin: miter"/>
   </g>
   <g id="patch_25">
    <path d="M 687.63306 273.3 
L 696.463609 273.3 
L 696.463609 84.622068 
L 687.63306 84.622068 
z
" clip-path="url(#pfd4dcce977)" style="fill: #ffffff; stroke: #ff0000; stroke-linejoin: miter"/>
   </g>
   <g id="patch_26">
    <path d="M 698.671247 273.3 
L 707.501796 273.3 
L 707.501796 68.661863 
L 698.671247 68.661863 
z
" clip-path="url(#pfd4dcce977)" style="fill: #ffffff; stroke: #ff0000; stroke-linejoin: miter"/>
   </g>
   <g id="patch_27">
    <path d="M 709.709433 273.3 
L 718.539983 273.3 
L 718.539983 78.996889 
L 709.709433 78.996889 
z
" clip-path="url(#pfd4dcce977)" style="fill: #ffffff; stroke: #ff0000; stroke-linejoin: miter"/>
   </g>
   <g id="patch_28">
    <path d="M 720.74762 273.3 
L 729.57817 273.3 
L 729.57817 93.775599 
L 720.74762 93.775599 
z
" clip-path="url(#pfd4dcce977)" style="fill: #ffffff; stroke: #ff0000; stroke-linejoin: miter"/>
   </g>
   <g id="patch_29">
    <path d="M 731.785807 273.3 
L 740.616357 273.3 
L 740.616357 94.575165 
L 731.785807 94.575165 
z
" clip-path="url(#pfd4dcce977)" style="fill: #ffffff; stroke: #ff0000; stroke-linejoin: miter"/>
   </g>
   <g id="patch_30">
    <path d="M 742.823994 273.3 
L 751.654544 273.3 
L 751.654544 76.751792 
L 742.823994 76.751792 
z
" clip-path="url(#pfd4dcce977)" style="fill: #ffffff; stroke: #ff0000; stroke-linejoin: miter"/>
   </g>
   <g id="patch_31">
    <path d="M 753.862181 273.3 
L 762.69273 273.3 
L 762.69273 90.776582 
L 753.862181 90.776582 
z
" clip-path="url(#pfd4dcce977)" style="fill: #ffffff; stroke: #ff0000; stroke-linejoin: miter"/>
   </g>
   <g id="patch_32">
    <path d="M 764.900368 273.3 
L 773.730917 273.3 
L 773.730917 83.077203 
L 764.900368 83.077203 
z
" clip-path="url(#pfd4dcce977)" style="fill: #ffffff; stroke: #ff0000; stroke-linejoin: miter"/>
   </g>
   <g id="patch_33">
    <path d="M 775.938555 273.3 
L 784.769104 273.3 
L 784.769104 106.768817 
L 775.938555 106.768817 
z
" clip-path="url(#pfd4dcce977)" style="fill: #ffffff; stroke: #ff0000; stroke-linejoin: miter"/>
   </g>
   <g id="patch_34">
    <path d="M 786.976741 273.3 
L 795.807291 273.3 
L 795.807291 75.035191 
L 786.976741 75.035191 
z
" clip-path="url(#pfd4dcce977)" style="fill: #ffffff; stroke: #ff0000; stroke-linejoin: miter"/>
   </g>
   <g id="patch_35">
    <path d="M 798.014928 273.3 
L 806.845478 273.3 
L 806.845478 87.994679 
L 798.014928 87.994679 
z
" clip-path="url(#pfd4dcce977)" style="fill: #ffffff; stroke: #ff0000; stroke-linejoin: miter"/>
   </g>
   <g id="patch_36">
    <path d="M 809.053115 273.3 
L 817.883665 273.3 
L 817.883665 91.513952 
L 809.053115 91.513952 
z
" clip-path="url(#pfd4dcce977)" style="fill: #ffffff; stroke: #ff0000; stroke-linejoin: miter"/>
   </g>
   <g id="patch_37">
    <path d="M 820.091302 273.3 
L 828.921852 273.3 
L 828.921852 88.612185 
L 820.091302 88.612185 
z
" clip-path="url(#pfd4dcce977)" style="fill: #ffffff; stroke: #ff0000; stroke-linejoin: miter"/>
   </g>
   <g id="matplotlib.axis_3">
    <g id="xtick_8">
     <g id="line2d_27">
      <g>
       <use xlink:href="#m7179b2acdf" x="504.399158" y="273.3" style="stroke: #000000"/>
      </g>
     </g>
     <g id="line2d_28">
      <g>
       <use xlink:href="#m5e766435b7" x="504.399158" y="7.2" style="stroke: #000000"/>
      </g>
     </g>
     <g id="text_15">
      <!-- 0 -->
      <g transform="translate(500.581658 285.918125) scale(0.12 -0.12)">
       <use xlink:href="#DejaVuSerif-30"/>
      </g>
     </g>
    </g>
    <g id="xtick_9">
     <g id="line2d_29">
      <g>
       <use xlink:href="#m7179b2acdf" x="559.590092" y="273.3" style="stroke: #000000"/>
      </g>
     </g>
     <g id="line2d_30">
      <g>
       <use xlink:href="#m5e766435b7" x="559.590092" y="7.2" style="stroke: #000000"/>
      </g>
     </g>
     <g id="text_16">
      <!-- 5 -->
      <g transform="translate(555.772592 285.918125) scale(0.12 -0.12)">
       <use xlink:href="#DejaVuSerif-35"/>
      </g>
     </g>
    </g>
    <g id="xtick_10">
     <g id="line2d_31">
      <g>
       <use xlink:href="#m7179b2acdf" x="614.781026" y="273.3" style="stroke: #000000"/>
      </g>
     </g>
     <g id="line2d_32">
      <g>
       <use xlink:href="#m5e766435b7" x="614.781026" y="7.2" style="stroke: #000000"/>
      </g>
     </g>
     <g id="text_17">
      <!-- 10 -->
      <g transform="translate(607.146026 285.918125) scale(0.12 -0.12)">
       <use xlink:href="#DejaVuSerif-31"/>
       <use xlink:href="#DejaVuSerif-30" x="63.623047"/>
      </g>
     </g>
    </g>
    <g id="xtick_11">
     <g id="line2d_33">
      <g>
       <use xlink:href="#m7179b2acdf" x="669.971961" y="273.3" style="stroke: #000000"/>
      </g>
     </g>
     <g id="line2d_34">
      <g>
       <use xlink:href="#m5e766435b7" x="669.971961" y="7.2" style="stroke: #000000"/>
      </g>
     </g>
     <g id="text_18">
      <!-- 15 -->
      <g transform="translate(662.336961 285.918125) scale(0.12 -0.12)">
       <use xlink:href="#DejaVuSerif-31"/>
       <use xlink:href="#DejaVuSerif-35" x="63.623047"/>
      </g>
     </g>
    </g>
    <g id="xtick_12">
     <g id="line2d_35">
      <g>
       <use xlink:href="#m7179b2acdf" x="725.162895" y="273.3" style="stroke: #000000"/>
      </g>
     </g>
     <g id="line2d_36">
      <g>
       <use xlink:href="#m5e766435b7" x="725.162895" y="7.2" style="stroke: #000000"/>
      </g>
     </g>
     <g id="text_19">
      <!-- 20 -->
      <g transform="translate(717.527895 285.918125) scale(0.12 -0.12)">
       <use xlink:href="#DejaVuSerif-32"/>
       <use xlink:href="#DejaVuSerif-30" x="63.623047"/>
      </g>
     </g>
    </g>
    <g id="xtick_13">
     <g id="line2d_37">
      <g>
       <use xlink:href="#m7179b2acdf" x="780.353829" y="273.3" style="stroke: #000000"/>
      </g>
     </g>
     <g id="line2d_38">
      <g>
       <use xlink:href="#m5e766435b7" x="780.353829" y="7.2" style="stroke: #000000"/>
      </g>
     </g>
     <g id="text_20">
      <!-- 25 -->
      <g transform="translate(772.718829 285.918125) scale(0.12 -0.12)">
       <use xlink:href="#DejaVuSerif-32"/>
       <use xlink:href="#DejaVuSerif-35" x="63.623047"/>
      </g>
     </g>
    </g>
    <g id="xtick_14">
     <g id="line2d_39">
      <g>
       <use xlink:href="#m7179b2acdf" x="835.544764" y="273.3" style="stroke: #000000"/>
      </g>
     </g>
     <g id="line2d_40">
      <g>
       <use xlink:href="#m5e766435b7" x="835.544764" y="7.2" style="stroke: #000000"/>
      </g>
     </g>
     <g id="text_21">
      <!-- 30 -->
      <g transform="translate(827.909764 285.918125) scale(0.12 -0.12)">
       <use xlink:href="#DejaVuSerif-33"/>
       <use xlink:href="#DejaVuSerif-30" x="63.623047"/>
      </g>
     </g>
    </g>
    <g id="text_22">
     <!-- Position from End -->
     <g transform="translate(600.865524 303.051562) scale(0.14 -0.14)">
      <use xlink:href="#DejaVuSerif-50"/>
      <use xlink:href="#DejaVuSerif-6f" x="63.285156"/>
      <use xlink:href="#DejaVuSerif-73" x="123.490234"/>
      <use xlink:href="#DejaVuSerif-69" x="174.808594"/>
      <use xlink:href="#DejaVuSerif-74" x="206.791016"/>
      <use xlink:href="#DejaVuSerif-69" x="246.976562"/>
      <use xlink:href="#DejaVuSerif-6f" x="278.958984"/>
      <use xlink:href="#DejaVuSerif-6e" x="339.164062"/>
      <use xlink:href="#DejaVuSerif-20" x="403.568359"/>
      <use xlink:href="#DejaVuSerif-66" x="435.355469"/>
      <use xlink:href="#DejaVuSerif-72" x="472.367188"/>
      <use xlink:href="#DejaVuSerif-6f" x="520.169922"/>
      <use xlink:href="#DejaVuSerif-6d" x="580.375"/>
      <use xlink:href="#DejaVuSerif-20" x="675.199219"/>
      <use xlink:href="#DejaVuSerif-45" x="706.986328"/>
      <use xlink:href="#DejaVuSerif-6e" x="779.984375"/>
      <use xlink:href="#DejaVuSerif-64" x="844.388672"/>
     </g>
    </g>
   </g>
   <g id="matplotlib.axis_4">
    <g id="ytick_6">
     <g id="line2d_41">
      <g>
       <use xlink:href="#ma7dad27091" x="483.536985" y="273.3" style="stroke: #000000"/>
      </g>
     </g>
     <g id="line2d_42">
      <g>
       <use xlink:href="#me21027a856" x="845.36875" y="273.3" style="stroke: #000000"/>
      </g>
     </g>
     <g id="text_23">
      <!-- 0.00 -->
      <g transform="translate(453.318235 277.859062) scale(0.12 -0.12)">
       <use xlink:href="#DejaVuSerif-30"/>
       <use xlink:href="#DejaVuSerif-2e" x="63.623047"/>
       <use xlink:href="#DejaVuSerif-30" x="95.410156"/>
       <use xlink:href="#DejaVuSerif-30" x="159.033203"/>
      </g>
     </g>
    </g>
    <g id="ytick_7">
     <g id="line2d_43">
      <g>
       <use xlink:href="#ma7dad27091" x="483.536985" y="214.888164" style="stroke: #000000"/>
      </g>
     </g>
     <g id="line2d_44">
      <g>
       <use xlink:href="#me21027a856" x="845.36875" y="214.888164" style="stroke: #000000"/>
      </g>
     </g>
     <g id="text_24">
      <!-- 0.01 -->
      <g transform="translate(453.318235 219.447227) scale(0.12 -0.12)">
       <use xlink:href="#DejaVuSerif-30"/>
       <use xlink:href="#DejaVuSerif-2e" x="63.623047"/>
       <use xlink:href="#DejaVuSerif-30" x="95.410156"/>
       <use xlink:href="#DejaVuSerif-31" x="159.033203"/>
      </g>
     </g>
    </g>
    <g id="ytick_8">
     <g id="line2d_45">
      <g>
       <use xlink:href="#ma7dad27091" x="483.536985" y="156.476328" style="stroke: #000000"/>
      </g>
     </g>
     <g id="line2d_46">
      <g>
       <use xlink:href="#me21027a856" x="845.36875" y="156.476328" style="stroke: #000000"/>
      </g>
     </g>
     <g id="text_25">
      <!-- 0.02 -->
      <g transform="translate(453.318235 161.035391) scale(0.12 -0.12)">
       <use xlink:href="#DejaVuSerif-30"/>
       <use xlink:href="#DejaVuSerif-2e" x="63.623047"/>
       <use xlink:href="#DejaVuSerif-30" x="95.410156"/>
       <use xlink:href="#DejaVuSerif-32" x="159.033203"/>
      </g>
     </g>
    </g>
    <g id="ytick_9">
     <g id="line2d_47">
      <g>
       <use xlink:href="#ma7dad27091" x="483.536985" y="98.064493" style="stroke: #000000"/>
      </g>
     </g>
     <g id="line2d_48">
      <g>
       <use xlink:href="#me21027a856" x="845.36875" y="98.064493" style="stroke: #000000"/>
      </g>
     </g>
     <g id="text_26">
      <!-- 0.03 -->
      <g transform="translate(453.318235 102.623555) scale(0.12 -0.12)">
       <use xlink:href="#DejaVuSerif-30"/>
       <use xlink:href="#DejaVuSerif-2e" x="63.623047"/>
       <use xlink:href="#DejaVuSerif-30" x="95.410156"/>
       <use xlink:href="#DejaVuSerif-33" x="159.033203"/>
      </g>
     </g>
    </g>
    <g id="ytick_10">
     <g id="line2d_49">
      <g>
       <use xlink:href="#ma7dad27091" x="483.536985" y="39.652657" style="stroke: #000000"/>
      </g>
     </g>
     <g id="line2d_50">
      <g>
       <use xlink:href="#me21027a856" x="845.36875" y="39.652657" style="stroke: #000000"/>
      </g>
     </g>
     <g id="text_27">
      <!-- 0.04 -->
      <g transform="translate(453.318235 44.211719) scale(0.12 -0.12)">
       <defs>
        <path id="DejaVuSerif-34" d="M 2234 1581 
L 2234 4063 
L 641 1581 
L 2234 1581 
z
M 3609 0 
L 1484 0 
L 1484 331 
L 2234 331 
L 2234 1247 
L 197 1247 
L 197 1588 
L 2241 4750 
L 2859 4750 
L 2859 1581 
L 3750 1581 
L 3750 1247 
L 2859 1247 
L 2859 331 
L 3609 331 
L 3609 0 
z
" transform="scale(0.015625)"/>
       </defs>
       <use xlink:href="#DejaVuSerif-30"/>
       <use xlink:href="#DejaVuSerif-2e" x="63.623047"/>
       <use xlink:href="#DejaVuSerif-30" x="95.410156"/>
       <use xlink:href="#DejaVuSerif-34" x="159.033203"/>
      </g>
     </g>
    </g>
    <g id="text_28">
     <!-- Attention Weight (equal base) -->
     <g transform="translate(446.20761 246.117344) rotate(-90) scale(0.14 -0.14)">
      <defs>
       <path id="DejaVuSerif-41" d="M 1281 1691 
L 2994 1691 
L 2138 3909 
L 1281 1691 
z
M -38 0 
L -38 331 
L 372 331 
L 2034 4666 
L 2559 4666 
L 4225 331 
L 4684 331 
L 4684 0 
L 2988 0 
L 2988 331 
L 3506 331 
L 3116 1356 
L 1153 1356 
L 763 331 
L 1275 331 
L 1275 0 
L -38 0 
z
" transform="scale(0.015625)"/>
       <path id="DejaVuSerif-57" d="M 4878 0 
L 4366 0 
L 3297 3794 
L 2228 0 
L 1716 0 
L 494 4331 
L 31 4331 
L 31 4666 
L 1734 4666 
L 1734 4331 
L 1153 4331 
L 2125 884 
L 3188 4666 
L 3694 4666 
L 4775 844 
L 5753 4331 
L 5216 4331 
L 5216 4666 
L 6559 4666 
L 6559 4331 
L 6100 4331 
L 4878 0 
z
" transform="scale(0.015625)"/>
       <path id="DejaVuSerif-67" d="M 3359 2988 
L 3359 72 
Q 3359 -644 2965 -1033 
Q 2572 -1422 1844 -1422 
Q 1516 -1422 1216 -1362 
Q 916 -1303 641 -1184 
L 641 -488 
L 941 -488 
Q 997 -813 1206 -963 
Q 1416 -1113 1806 -1113 
Q 2313 -1113 2548 -827 
Q 2784 -541 2784 72 
L 2784 519 
Q 2616 206 2355 57 
Q 2094 -91 1709 -91 
Q 1097 -91 708 395 
Q 319 881 319 1663 
Q 319 2444 706 2928 
Q 1094 3413 1709 3413 
Q 2094 3413 2355 3264 
Q 2616 3116 2784 2803 
L 2784 3322 
L 3909 3322 
L 3909 2988 
L 3359 2988 
z
M 2784 1825 
Q 2784 2422 2554 2737 
Q 2325 3053 1888 3053 
Q 1444 3053 1217 2703 
Q 991 2353 991 1663 
Q 991 975 1217 622 
Q 1444 269 1888 269 
Q 2325 269 2554 583 
Q 2784 897 2784 1497 
L 2784 1825 
z
" transform="scale(0.015625)"/>
       <path id="DejaVuSerif-68" d="M 263 0 
L 263 331 
L 781 331 
L 781 4531 
L 231 4531 
L 231 4863 
L 1356 4863 
L 1356 2731 
Q 1516 3069 1770 3241 
Q 2025 3413 2363 3413 
Q 2913 3413 3172 3097 
Q 3431 2781 3431 2113 
L 3431 331 
L 3944 331 
L 3944 0 
L 2356 0 
L 2356 331 
L 2853 331 
L 2853 1931 
Q 2853 2541 2704 2764 
Q 2556 2988 2175 2988 
Q 1775 2988 1565 2697 
Q 1356 2406 1356 1850 
L 1356 331 
L 1856 331 
L 1856 0 
L 263 0 
z
" transform="scale(0.015625)"/>
       <path id="DejaVuSerif-28" d="M 2041 -997 
Q 1281 -656 893 83 
Q 506 822 506 1931 
Q 506 3044 893 3783 
Q 1281 4522 2041 4863 
L 2041 4556 
Q 1559 4225 1350 3623 
Q 1141 3022 1141 1931 
Q 1141 844 1350 242 
Q 1559 -359 2041 -691 
L 2041 -997 
z
" transform="scale(0.015625)"/>
       <path id="DejaVuSerif-71" d="M 3359 2988 
L 3359 -997 
L 3909 -997 
L 3909 -1331 
L 2241 -1331 
L 2241 -997 
L 2784 -997 
L 2784 519 
Q 2616 206 2355 57 
Q 2094 -91 1709 -91 
Q 1097 -91 708 395 
Q 319 881 319 1663 
Q 319 2444 706 2928 
Q 1094 3413 1709 3413 
Q 2094 3413 2355 3264 
Q 2616 3116 2784 2803 
L 2784 3322 
L 3909 3322 
L 3909 2988 
L 3359 2988 
z
M 2784 1825 
Q 2784 2422 2554 2737 
Q 2325 3053 1888 3053 
Q 1444 3053 1217 2703 
Q 991 2353 991 1663 
Q 991 975 1217 622 
Q 1444 269 1888 269 
Q 2325 269 2554 583 
Q 2784 897 2784 1497 
L 2784 1825 
z
" transform="scale(0.015625)"/>
       <path id="DejaVuSerif-62" d="M 738 331 
L 738 4531 
L 184 4531 
L 184 4863 
L 1313 4863 
L 1313 2803 
Q 1481 3116 1742 3264 
Q 2003 3413 2388 3413 
Q 3000 3413 3387 2928 
Q 3775 2444 3775 1663 
Q 3775 881 3387 395 
Q 3000 -91 2388 -91 
Q 2003 -91 1742 57 
Q 1481 206 1313 519 
L 1313 0 
L 184 0 
L 184 331 
L 738 331 
z
M 1313 1497 
Q 1313 897 1542 583 
Q 1772 269 2209 269 
Q 2650 269 2876 622 
Q 3103 975 3103 1663 
Q 3103 2353 2876 2703 
Q 2650 3053 2209 3053 
Q 1772 3053 1542 2737 
Q 1313 2422 1313 1825 
L 1313 1497 
z
" transform="scale(0.015625)"/>
       <path id="DejaVuSerif-29" d="M 453 -997 
L 453 -691 
Q 934 -359 1145 242 
Q 1356 844 1356 1931 
Q 1356 3022 1145 3623 
Q 934 4225 453 4556 
L 453 4863 
Q 1216 4522 1603 3783 
Q 1991 3044 1991 1931 
Q 1991 822 1603 83 
Q 1216 -656 453 -997 
z
" transform="scale(0.015625)"/>
      </defs>
      <use xlink:href="#DejaVuSerif-41"/>
      <use xlink:href="#DejaVuSerif-74" x="70.466797"/>
      <use xlink:href="#DejaVuSerif-74" x="110.652344"/>
      <use xlink:href="#DejaVuSerif-65" x="150.837891"/>
      <use xlink:href="#DejaVuSerif-6e" x="210.017578"/>
      <use xlink:href="#DejaVuSerif-74" x="274.421875"/>
      <use xlink:href="#DejaVuSerif-69" x="314.607422"/>
      <use xlink:href="#DejaVuSerif-6f" x="346.589844"/>
      <use xlink:href="#DejaVuSerif-6e" x="406.794922"/>
      <use xlink:href="#DejaVuSerif-20" x="471.199219"/>
      <use xlink:href="#DejaVuSerif-57" x="502.986328"/>
      <use xlink:href="#DejaVuSerif-65" x="597.644531"/>
      <use xlink:href="#DejaVuSerif-69" x="656.824219"/>
      <use xlink:href="#DejaVuSerif-67" x="688.806641"/>
      <use xlink:href="#DejaVuSerif-68" x="752.820312"/>
      <use xlink:href="#DejaVuSerif-74" x="817.224609"/>
      <use xlink:href="#DejaVuSerif-20" x="857.410156"/>
      <use xlink:href="#DejaVuSerif-28" x="889.197266"/>
      <use xlink:href="#DejaVuSerif-65" x="928.210938"/>
      <use xlink:href="#DejaVuSerif-71" x="987.390625"/>
      <use xlink:href="#DejaVuSerif-75" x="1051.404297"/>
      <use xlink:href="#DejaVuSerif-61" x="1115.808594"/>
      <use xlink:href="#DejaVuSerif-6c" x="1175.427734"/>
      <use xlink:href="#DejaVuSerif-20" x="1207.410156"/>
      <use xlink:href="#DejaVuSerif-62" x="1239.197266"/>
      <use xlink:href="#DejaVuSerif-61" x="1303.210938"/>
      <use xlink:href="#DejaVuSerif-73" x="1362.830078"/>
      <use xlink:href="#DejaVuSerif-65" x="1414.148438"/>
      <use xlink:href="#DejaVuSerif-29" x="1473.328125"/>
     </g>
    </g>
   </g>
   <g id="patch_38">
    <path d="M 483.536985 273.3 
L 483.536985 7.2 
" style="fill: none; stroke: #000000; stroke-linejoin: miter; stroke-linecap: square"/>
   </g>
   <g id="patch_39">
    <path d="M 845.36875 273.3 
L 845.36875 7.2 
" style="fill: none; stroke: #000000; stroke-linejoin: miter; stroke-linecap: square"/>
   </g>
   <g id="patch_40">
    <path d="M 483.536985 273.3 
L 845.36875 273.3 
" style="fill: none; stroke: #000000; stroke-linejoin: miter; stroke-linecap: square"/>
   </g>
   <g id="patch_41">
    <path d="M 483.536985 7.2 
L 845.36875 7.2 
" style="fill: none; stroke: #000000; stroke-linejoin: miter; stroke-linecap: square"/>
   </g>
   <g id="patch_42">
    <path d="M 565.697304 96.688913 
Q 535.940541 81.544304 507.180187 66.906813 
" style="fill: none; stroke: #000000; stroke-linecap: round"/>
    <path d="M 509.837885 70.503567 
L 507.180187 66.906813 
L 511.652209 66.938707 
" style="fill: none; stroke: #000000; stroke-linecap: round"/>
   </g>
   <g id="text_29">
    <!-- Recency -->
    <g transform="translate(559.590092 107.053134) scale(0.1 -0.1)">
     <defs>
      <path id="DejaVuSerif-52" d="M 3066 2316 
Q 3284 2256 3442 2114 
Q 3600 1972 3725 1716 
L 4403 331 
L 4972 331 
L 4972 0 
L 3872 0 
L 3144 1484 
Q 2934 1916 2759 2042 
Q 2584 2169 2278 2169 
L 1581 2169 
L 1581 331 
L 2241 331 
L 2241 0 
L 353 0 
L 353 331 
L 947 331 
L 947 4331 
L 353 4331 
L 353 4666 
L 2719 4666 
Q 3400 4666 3770 4341 
Q 4141 4016 4141 3419 
Q 4141 2938 3870 2661 
Q 3600 2384 3066 2316 
z
M 1581 2503 
L 2503 2503 
Q 2975 2503 3200 2726 
Q 3425 2950 3425 3419 
Q 3425 3888 3200 4109 
Q 2975 4331 2503 4331 
L 1581 4331 
L 1581 2503 
z
" transform="scale(0.015625)"/>
      <path id="DejaVuSerif-63" d="M 3291 997 
Q 3169 466 2822 187 
Q 2475 -91 1925 -91 
Q 1200 -91 759 389 
Q 319 869 319 1663 
Q 319 2459 759 2936 
Q 1200 3413 1925 3413 
Q 2241 3413 2553 3339 
Q 2866 3266 3181 3116 
L 3181 2266 
L 2847 2266 
Q 2781 2703 2561 2903 
Q 2341 3103 1931 3103 
Q 1466 3103 1228 2742 
Q 991 2381 991 1663 
Q 991 944 1227 581 
Q 1463 219 1931 219 
Q 2303 219 2525 412 
Q 2747 606 2828 997 
L 3291 997 
z
" transform="scale(0.015625)"/>
      <path id="DejaVuSerif-79" d="M 1381 -609 
L 1600 -56 
L 359 2988 
L -19 2988 
L -19 3322 
L 1509 3322 
L 1509 2988 
L 978 2988 
L 1913 703 
L 2847 2988 
L 2350 2988 
L 2350 3322 
L 3597 3322 
L 3597 2988 
L 3225 2988 
L 1703 -750 
Q 1547 -1138 1356 -1280 
Q 1166 -1422 819 -1422 
Q 672 -1422 517 -1397 
Q 363 -1372 206 -1325 
L 206 -691 
L 500 -691 
Q 519 -903 608 -995 
Q 697 -1088 884 -1088 
Q 1056 -1088 1161 -992 
Q 1266 -897 1381 -609 
z
" transform="scale(0.015625)"/>
     </defs>
     <use xlink:href="#DejaVuSerif-52"/>
     <use xlink:href="#DejaVuSerif-65" x="75.292969"/>
     <use xlink:href="#DejaVuSerif-63" x="134.472656"/>
     <use xlink:href="#DejaVuSerif-65" x="190.478516"/>
     <use xlink:href="#DejaVuSerif-6e" x="249.658203"/>
     <use xlink:href="#DejaVuSerif-63" x="314.0625"/>
     <use xlink:href="#DejaVuSerif-79" x="370.068359"/>
    </g>
   </g>
  </g>
 </g>
 <defs>
  <clipPath id="p6532af27eb">
   <rect x="57.38875" y="7.2" width="361.831765" height="266.1"/>
  </clipPath>
  <clipPath id="pfd4dcce977">
   <rect x="483.536985" y="7.2" width="361.831765" height="266.1"/>
  </clipPath>
 </defs>
</svg>
