<?xml version="1.0" encoding="utf-8" standalone="no"?>
<!DOCTYPE svg PUBLIC "-//W3C//DTD SVG 1.1//EN"
  "http://www.w3.org/Graphics/SVG/1.1/DTD/svg11.dtd">
<svg xmlns:xlink="http://www.w3.org/1999/xlink" width="708.619375pt" height="421.494588pt" viewBox="0 0 708.619375 421.494588" xmlns="http://www.w3.org/2000/svg" version="1.1">
 <metadata>
  <rdf:RDF xmlns:dc="http://purl.org/dc/elements/1.1/" xmlns:cc="http://creativecommons.org/ns#" xmlns:rdf="http://www.w3.org/1999/02/22-rdf-syntax-ns#">
   <cc:Work>
    <dc:type rdf:resource="http://purl.org/dc/dcmitype/StillImage"/>
    <dc:date>2026-01-02T11:10:52.493088</dc:date>
    <dc:format>image/svg+xml</dc:format>
    <dc:creator>
     <cc:Agent>
      <dc:title>Matplotlib v3.9.4, https://matplotlib.org/</dc:title>
     </cc:Agent>
    </dc:creator>
   </cc:Work>
  </rdf:RDF>
 </metadata>
 <defs>
  <style type="text/css">*{stroke-linejoin: round; stroke-linecap: butt}</style>
 </defs>
 <g id="figure_1">
  <g id="patch_1">
   <path d="M 0 421.494588 
L 708.619375 421.494588 
L 708.619375 0 
L 0 0 
z
" style="fill: #ffffff"/>
  </g>
  <g id="axes_1">
   <g id="patch_2">
    <path d="M 43.519375 381.432401 
L 701.419375 381.432401 
L 701.419375 10.720482 
L 43.519375 10.720482 
z
" style="fill: #ffffff"/>
   </g>
   <g id="patch_3">
    <path d="M 487.486858 381.432401 
L 671.51483 381.432401 
L 671.51483 10.720482 
L 487.486858 10.720482 
z
" clip-path="url(#p26b35eff2a)" style="fill: #ff0000; opacity: 0.1; stroke: #ff0000; stroke-linejoin: miter"/>
   </g>
   <g id="matplotlib.axis_1">
    <g id="xtick_1">
     <g id="line2d_1">
      <defs>
       <path id="m53c9fe1d18" d="M 0 0 
L 0 -5 
" style="stroke: #000000"/>
      </defs>
      <g>
       <use xlink:href="#m53c9fe1d18" x="73.42392" y="381.432401" style="stroke: #000000"/>
      </g>
     </g>
     <g id="line2d_2">
      <defs>
       <path id="me6b113d924" d="M 0 0 
L 0 5 
" style="stroke: #000000"/>
      </defs>
      <g>
       <use xlink:href="#me6b113d924" x="73.42392" y="10.720482" style="stroke: #000000"/>
      </g>
     </g>
     <g id="text_1">
      <!-- Mon -->
      <g transform="translate(59.80392 394.050526) scale(0.12 -0.12)">
       <defs>
        <path id="DejaVuSerif-4d" d="M 353 0 
L 353 331 
L 947 331 
L 947 4331 
L 319 4331 
L 319 4666 
L 1678 4666 
L 3316 1344 
L 4953 4666 
L 6228 4666 
L 6228 4331 
L 5606 4331 
L 5606 331 
L 6203 331 
L 6203 0 
L 4378 0 
L 4378 331 
L 4972 331 
L 4972 3938 
L 3372 684 
L 2931 684 
L 1331 3938 
L 1331 331 
L 1925 331 
L 1925 0 
L 353 0 
z
" transform="scale(0.015625)"/>
        <path id="DejaVuSerif-6f" d="M 1925 219 
Q 2388 219 2623 584 
Q 2859 950 2859 1663 
Q 2859 2375 2623 2739 
Q 2388 3103 1925 3103 
Q 1463 3103 1227 2739 
Q 991 2375 991 1663 
Q 991 950 1228 584 
Q 1466 219 1925 219 
z
M 1925 -91 
Q 1200 -91 759 389 
Q 319 869 319 1663 
Q 319 2456 758 2934 
Q 1197 3413 1925 3413 
Q 2653 3413 3092 2934 
Q 3531 2456 3531 1663 
Q 3531 869 3092 389 
Q 2653 -91 1925 -91 
z
" transform="scale(0.015625)"/>
        <path id="DejaVuSerif-6e" d="M 263 0 
L 263 331 
L 781 331 
L 781 2988 
L 231 2988 
L 231 3322 
L 1356 3322 
L 1356 2731 
Q 1516 3069 1770 3241 
Q 2025 3413 2363 3413 
Q 2913 3413 3172 3097 
Q 3431 2781 3431 2113 
L 3431 331 
L 3944 331 
L 3944 0 
L 2356 0 
L 2356 331 
L 2853 331 
L 2853 1931 
Q 2853 2541 2703 2767 
Q 2553 2994 2175 2994 
Q 1775 2994 1565 2701 
Q 1356 2409 1356 1850 
L 1356 331 
L 1856 331 
L 1856 0 
L 263 0 
z
" transform="scale(0.015625)"/>
       </defs>
       <use xlink:href="#DejaVuSerif-4d"/>
       <use xlink:href="#DejaVuSerif-6f" x="102.392578"/>
       <use xlink:href="#DejaVuSerif-6e" x="162.597656"/>
      </g>
     </g>
    </g>
    <g id="xtick_2">
     <g id="line2d_3">
      <g>
       <use xlink:href="#m53c9fe1d18" x="165.437906" y="381.432401" style="stroke: #000000"/>
      </g>
     </g>
     <g id="line2d_4">
      <g>
       <use xlink:href="#me6b113d924" x="165.437906" y="10.720482" style="stroke: #000000"/>
      </g>
     </g>
     <g id="text_2">
      <!-- Tue -->
      <g transform="translate(154.020094 394.050526) scale(0.12 -0.12)">
       <defs>
        <path id="DejaVuSerif-54" d="M 1222 0 
L 1222 331 
L 1819 331 
L 1819 4294 
L 447 4294 
L 447 3566 
L 63 3566 
L 63 4666 
L 4206 4666 
L 4206 3566 
L 3822 3566 
L 3822 4294 
L 2450 4294 
L 2450 331 
L 3047 331 
L 3047 0 
L 1222 0 
z
" transform="scale(0.015625)"/>
        <path id="DejaVuSerif-75" d="M 2266 3322 
L 3341 3322 
L 3341 331 
L 3884 331 
L 3884 0 
L 2766 0 
L 2766 588 
Q 2606 256 2353 82 
Q 2100 -91 1766 -91 
Q 1213 -91 952 223 
Q 691 538 691 1209 
L 691 2988 
L 172 2988 
L 172 3322 
L 1269 3322 
L 1269 1388 
Q 1269 781 1417 556 
Q 1566 331 1947 331 
Q 2347 331 2556 625 
Q 2766 919 2766 1478 
L 2766 2988 
L 2266 2988 
L 2266 3322 
z
" transform="scale(0.015625)"/>
        <path id="DejaVuSerif-65" d="M 3469 1600 
L 991 1600 
L 991 1575 
Q 991 903 1244 561 
Q 1497 219 1991 219 
Q 2369 219 2611 417 
Q 2853 616 2950 1006 
L 3413 1006 
Q 3275 459 2904 184 
Q 2534 -91 1931 -91 
Q 1203 -91 761 389 
Q 319 869 319 1663 
Q 319 2450 753 2931 
Q 1188 3413 1894 3413 
Q 2647 3413 3050 2948 
Q 3453 2484 3469 1600 
z
M 2791 1931 
Q 2772 2513 2545 2808 
Q 2319 3103 1894 3103 
Q 1497 3103 1269 2806 
Q 1041 2509 991 1931 
L 2791 1931 
z
" transform="scale(0.015625)"/>
       </defs>
       <use xlink:href="#DejaVuSerif-54"/>
       <use xlink:href="#DejaVuSerif-75" x="66.699219"/>
       <use xlink:href="#DejaVuSerif-65" x="131.103516"/>
      </g>
     </g>
    </g>
    <g id="xtick_3">
     <g id="line2d_5">
      <g>
       <use xlink:href="#m53c9fe1d18" x="257.451892" y="381.432401" style="stroke: #000000"/>
      </g>
     </g>
     <g id="line2d_6">
      <g>
       <use xlink:href="#me6b113d924" x="257.451892" y="10.720482" style="stroke: #000000"/>
      </g>
     </g>
     <g id="text_3">
      <!-- Wed -->
      <g transform="translate(244.38033 394.050526) scale(0.12 -0.12)">
       <defs>
        <path id="DejaVuSerif-57" d="M 4878 0 
L 4366 0 
L 3297 3794 
L 2228 0 
L 1716 0 
L 494 4331 
L 31 4331 
L 31 4666 
L 1734 4666 
L 1734 4331 
L 1153 4331 
L 2125 884 
L 3188 4666 
L 3694 4666 
L 4775 844 
L 5753 4331 
L 5216 4331 
L 5216 4666 
L 6559 4666 
L 6559 4331 
L 6100 4331 
L 4878 0 
z
" transform="scale(0.015625)"/>
        <path id="DejaVuSerif-64" d="M 3359 331 
L 3909 331 
L 3909 0 
L 2784 0 
L 2784 519 
Q 2616 206 2355 57 
Q 2094 -91 1709 -91 
Q 1097 -91 708 395 
Q 319 881 319 1663 
Q 319 2444 706 2928 
Q 1094 3413 1709 3413 
Q 2094 3413 2355 3264 
Q 2616 3116 2784 2803 
L 2784 4531 
L 2241 4531 
L 2241 4863 
L 3359 4863 
L 3359 331 
z
M 2784 1497 
L 2784 1825 
Q 2784 2422 2554 2737 
Q 2325 3053 1888 3053 
Q 1444 3053 1217 2703 
Q 991 2353 991 1663 
Q 991 975 1217 622 
Q 1444 269 1888 269 
Q 2325 269 2554 583 
Q 2784 897 2784 1497 
z
" transform="scale(0.015625)"/>
       </defs>
       <use xlink:href="#DejaVuSerif-57"/>
       <use xlink:href="#DejaVuSerif-65" x="94.658203"/>
       <use xlink:href="#DejaVuSerif-64" x="153.837891"/>
      </g>
     </g>
    </g>
    <g id="xtick_4">
     <g id="line2d_7">
      <g>
       <use xlink:href="#m53c9fe1d18" x="349.465878" y="381.432401" style="stroke: #000000"/>
      </g>
     </g>
     <g id="line2d_8">
      <g>
       <use xlink:href="#me6b113d924" x="349.465878" y="10.720482" style="stroke: #000000"/>
      </g>
     </g>
     <g id="text_4">
      <!-- Thu -->
      <g transform="translate(337.734941 394.050526) scale(0.12 -0.12)">
       <defs>
        <path id="DejaVuSerif-68" d="M 263 0 
L 263 331 
L 781 331 
L 781 4531 
L 231 4531 
L 231 4863 
L 1356 4863 
L 1356 2731 
Q 1516 3069 1770 3241 
Q 2025 3413 2363 3413 
Q 2913 3413 3172 3097 
Q 3431 2781 3431 2113 
L 3431 331 
L 3944 331 
L 3944 0 
L 2356 0 
L 2356 331 
L 2853 331 
L 2853 1931 
Q 2853 2541 2704 2764 
Q 2556 2988 2175 2988 
Q 1775 2988 1565 2697 
Q 1356 2406 1356 1850 
L 1356 331 
L 1856 331 
L 1856 0 
L 263 0 
z
" transform="scale(0.015625)"/>
       </defs>
       <use xlink:href="#DejaVuSerif-54"/>
       <use xlink:href="#DejaVuSerif-68" x="66.699219"/>
       <use xlink:href="#DejaVuSerif-75" x="131.103516"/>
      </g>
     </g>
    </g>
    <g id="xtick_5">
     <g id="line2d_9">
      <g>
       <use xlink:href="#m53c9fe1d18" x="441.479865" y="381.432401" style="stroke: #000000"/>
      </g>
     </g>
     <g id="line2d_10">
      <g>
       <use xlink:href="#me6b113d924" x="441.479865" y="10.720482" style="stroke: #000000"/>
      </g>
     </g>
     <g id="text_5">
      <!-- Fri -->
      <g transform="translate(432.529552 394.050526) scale(0.12 -0.12)">
       <defs>
        <path id="DejaVuSerif-46" d="M 353 0 
L 353 331 
L 947 331 
L 947 4331 
L 353 4331 
L 353 4666 
L 4172 4666 
L 4172 3628 
L 3788 3628 
L 3788 4281 
L 1581 4281 
L 1581 2719 
L 3175 2719 
L 3175 3303 
L 3559 3303 
L 3559 1753 
L 3175 1753 
L 3175 2338 
L 1581 2338 
L 1581 331 
L 2328 331 
L 2328 0 
L 353 0 
z
" transform="scale(0.015625)"/>
        <path id="DejaVuSerif-72" d="M 3059 3328 
L 3059 2497 
L 2728 2497 
Q 2713 2744 2591 2866 
Q 2469 2988 2234 2988 
Q 1809 2988 1582 2694 
Q 1356 2400 1356 1850 
L 1356 331 
L 2022 331 
L 2022 0 
L 263 0 
L 263 331 
L 781 331 
L 781 2994 
L 231 2994 
L 231 3322 
L 1356 3322 
L 1356 2731 
Q 1525 3078 1790 3245 
Q 2056 3413 2438 3413 
Q 2578 3413 2733 3391 
Q 2888 3369 3059 3328 
z
" transform="scale(0.015625)"/>
        <path id="DejaVuSerif-69" d="M 622 4353 
Q 622 4497 726 4603 
Q 831 4709 978 4709 
Q 1122 4709 1226 4603 
Q 1331 4497 1331 4353 
Q 1331 4206 1228 4103 
Q 1125 4000 978 4000 
Q 831 4000 726 4103 
Q 622 4206 622 4353 
z
M 1356 331 
L 1900 331 
L 1900 0 
L 231 0 
L 231 331 
L 781 331 
L 781 2988 
L 231 2988 
L 231 3322 
L 1356 3322 
L 1356 331 
z
" transform="scale(0.015625)"/>
       </defs>
       <use xlink:href="#DejaVuSerif-46"/>
       <use xlink:href="#DejaVuSerif-72" x="69.384766"/>
       <use xlink:href="#DejaVuSerif-69" x="117.1875"/>
      </g>
     </g>
    </g>
    <g id="xtick_6">
     <g id="line2d_11">
      <g>
       <use xlink:href="#m53c9fe1d18" x="533.493851" y="381.432401" style="stroke: #000000"/>
      </g>
     </g>
     <g id="line2d_12">
      <g>
       <use xlink:href="#me6b113d924" x="533.493851" y="10.720482" style="stroke: #000000"/>
      </g>
     </g>
     <g id="text_6">
      <!-- Sat -->
      <g transform="translate(523.395101 394.050526) scale(0.12 -0.12)">
       <defs>
        <path id="DejaVuSerif-53" d="M 594 225 
L 594 1288 
L 953 1284 
Q 969 753 1261 498 
Q 1553 244 2150 244 
Q 2706 244 2998 464 
Q 3291 684 3291 1106 
Q 3291 1444 3114 1625 
Q 2938 1806 2369 1978 
L 1753 2163 
Q 1084 2366 811 2669 
Q 538 2972 538 3500 
Q 538 4094 959 4422 
Q 1381 4750 2144 4750 
Q 2469 4750 2856 4679 
Q 3244 4609 3681 4475 
L 3681 3481 
L 3328 3481 
Q 3275 3975 2998 4195 
Q 2722 4416 2156 4416 
Q 1663 4416 1405 4214 
Q 1147 4013 1147 3628 
Q 1147 3294 1340 3103 
Q 1534 2913 2163 2725 
L 2741 2553 
Q 3375 2363 3645 2067 
Q 3916 1772 3916 1275 
Q 3916 597 3481 253 
Q 3047 -91 2188 -91 
Q 1803 -91 1404 -12 
Q 1006 66 594 225 
z
" transform="scale(0.015625)"/>
        <path id="DejaVuSerif-61" d="M 2547 1044 
L 2547 1747 
L 1806 1747 
Q 1378 1747 1168 1562 
Q 959 1378 959 997 
Q 959 650 1171 447 
Q 1384 244 1747 244 
Q 2106 244 2326 466 
Q 2547 688 2547 1044 
z
M 3122 2075 
L 3122 331 
L 3634 331 
L 3634 0 
L 2547 0 
L 2547 359 
Q 2356 128 2106 18 
Q 1856 -91 1522 -91 
Q 969 -91 644 203 
Q 319 497 319 997 
Q 319 1513 691 1797 
Q 1063 2081 1741 2081 
L 2547 2081 
L 2547 2309 
Q 2547 2688 2317 2895 
Q 2088 3103 1672 3103 
Q 1328 3103 1125 2947 
Q 922 2791 872 2484 
L 575 2484 
L 575 3156 
Q 875 3284 1158 3348 
Q 1441 3413 1709 3413 
Q 2400 3413 2761 3070 
Q 3122 2728 3122 2075 
z
" transform="scale(0.015625)"/>
        <path id="DejaVuSerif-74" d="M 691 2988 
L 184 2988 
L 184 3322 
L 691 3322 
L 691 4353 
L 1269 4353 
L 1269 3322 
L 2350 3322 
L 2350 2988 
L 1269 2988 
L 1269 878 
Q 1269 456 1350 337 
Q 1431 219 1650 219 
Q 1875 219 1978 351 
Q 2081 484 2088 781 
L 2522 781 
Q 2497 328 2275 118 
Q 2053 -91 1600 -91 
Q 1103 -91 897 129 
Q 691 350 691 878 
L 691 2988 
z
" transform="scale(0.015625)"/>
       </defs>
       <use xlink:href="#DejaVuSerif-53"/>
       <use xlink:href="#DejaVuSerif-61" x="68.505859"/>
       <use xlink:href="#DejaVuSerif-74" x="128.125"/>
      </g>
     </g>
    </g>
    <g id="xtick_7">
     <g id="line2d_13">
      <g>
       <use xlink:href="#m53c9fe1d18" x="625.507837" y="381.432401" style="stroke: #000000"/>
      </g>
     </g>
     <g id="line2d_14">
      <g>
       <use xlink:href="#me6b113d924" x="625.507837" y="10.720482" style="stroke: #000000"/>
      </g>
     </g>
     <g id="text_7">
      <!-- Sun -->
      <g transform="translate(613.669087 394.050526) scale(0.12 -0.12)">
       <use xlink:href="#DejaVuSerif-53"/>
       <use xlink:href="#DejaVuSerif-75" x="68.505859"/>
       <use xlink:href="#DejaVuSerif-6e" x="132.910156"/>
      </g>
     </g>
    </g>
    <g id="text_8">
     <!-- Day of Week -->
     <g transform="translate(328.320156 411.183963) scale(0.14 -0.14)">
      <defs>
       <path id="DejaVuSerif-44" d="M 1581 331 
L 2163 331 
Q 3072 331 3558 850 
Q 4044 1369 4044 2338 
Q 4044 3306 3559 3818 
Q 3075 4331 2163 4331 
L 1581 4331 
L 1581 331 
z
M 353 0 
L 353 331 
L 947 331 
L 947 4331 
L 353 4331 
L 353 4666 
L 2209 4666 
Q 3416 4666 4089 4050 
Q 4763 3434 4763 2338 
Q 4763 1238 4088 619 
Q 3413 0 2209 0 
L 353 0 
z
" transform="scale(0.015625)"/>
       <path id="DejaVuSerif-79" d="M 1381 -609 
L 1600 -56 
L 359 2988 
L -19 2988 
L -19 3322 
L 1509 3322 
L 1509 2988 
L 978 2988 
L 1913 703 
L 2847 2988 
L 2350 2988 
L 2350 3322 
L 3597 3322 
L 3597 2988 
L 3225 2988 
L 1703 -750 
Q 1547 -1138 1356 -1280 
Q 1166 -1422 819 -1422 
Q 672 -1422 517 -1397 
Q 363 -1372 206 -1325 
L 206 -691 
L 500 -691 
Q 519 -903 608 -995 
Q 697 -1088 884 -1088 
Q 1056 -1088 1161 -992 
Q 1266 -897 1381 -609 
z
" transform="scale(0.015625)"/>
       <path id="DejaVuSerif-20" transform="scale(0.015625)"/>
       <path id="DejaVuSerif-66" d="M 2753 4078 
L 2450 4078 
Q 2447 4313 2317 4434 
Q 2188 4556 1941 4556 
Q 1619 4556 1487 4379 
Q 1356 4203 1356 3750 
L 1356 3322 
L 2284 3322 
L 2284 2988 
L 1356 2988 
L 1356 331 
L 2094 331 
L 2094 0 
L 231 0 
L 231 331 
L 781 331 
L 781 2988 
L 231 2988 
L 231 3322 
L 781 3322 
L 781 3738 
Q 781 4294 1070 4578 
Q 1359 4863 1919 4863 
Q 2128 4863 2337 4825 
Q 2547 4788 2753 4709 
L 2753 4078 
z
" transform="scale(0.015625)"/>
       <path id="DejaVuSerif-6b" d="M 1831 0 
L 219 0 
L 219 331 
L 738 331 
L 738 4531 
L 184 4531 
L 184 4863 
L 1313 4863 
L 1313 1697 
L 2713 2988 
L 2234 2988 
L 2234 3322 
L 3738 3322 
L 3738 2988 
L 3169 2988 
L 2181 2075 
L 3444 331 
L 3922 331 
L 3922 0 
L 2284 0 
L 2284 331 
L 2759 331 
L 1766 1697 
L 1313 1275 
L 1313 331 
L 1831 331 
L 1831 0 
z
" transform="scale(0.015625)"/>
      </defs>
      <use xlink:href="#DejaVuSerif-44"/>
      <use xlink:href="#DejaVuSerif-61" x="80.175781"/>
      <use xlink:href="#DejaVuSerif-79" x="139.794922"/>
      <use xlink:href="#DejaVuSerif-20" x="196.289062"/>
      <use xlink:href="#DejaVuSerif-6f" x="228.076172"/>
      <use xlink:href="#DejaVuSerif-66" x="288.28125"/>
      <use xlink:href="#DejaVuSerif-20" x="325.292969"/>
      <use xlink:href="#DejaVuSerif-57" x="357.080078"/>
      <use xlink:href="#DejaVuSerif-65" x="451.738281"/>
      <use xlink:href="#DejaVuSerif-65" x="510.917969"/>
      <use xlink:href="#DejaVuSerif-6b" x="570.097656"/>
     </g>
    </g>
   </g>
   <g id="matplotlib.axis_2">
    <g id="ytick_1">
     <g id="line2d_15">
      <defs>
       <path id="m94bac41b41" d="M 0 0 
L 5 0 
" style="stroke: #000000"/>
      </defs>
      <g>
       <use xlink:href="#m94bac41b41" x="43.519375" y="363.596347" style="stroke: #000000"/>
      </g>
     </g>
     <g id="line2d_16">
      <defs>
       <path id="m8ae4958a8c" d="M 0 0 
L -5 0 
" style="stroke: #000000"/>
      </defs>
      <g>
       <use xlink:href="#m8ae4958a8c" x="701.419375" y="363.596347" style="stroke: #000000"/>
      </g>
     </g>
     <g id="text_9">
      <!-- 55 -->
      <g transform="translate(24.749375 368.15541) scale(0.12 -0.12)">
       <defs>
        <path id="DejaVuSerif-35" d="M 3219 4666 
L 3219 4153 
L 1081 4153 
L 1081 2816 
Q 1244 2928 1461 2984 
Q 1678 3041 1947 3041 
Q 2703 3041 3140 2622 
Q 3578 2203 3578 1478 
Q 3578 738 3136 323 
Q 2694 -91 1894 -91 
Q 1572 -91 1234 -12 
Q 897 66 544 225 
L 544 1131 
L 897 1131 
Q 925 688 1179 453 
Q 1434 219 1894 219 
Q 2388 219 2653 544 
Q 2919 869 2919 1478 
Q 2919 2084 2655 2407 
Q 2391 2731 1894 2731 
Q 1613 2731 1398 2631 
Q 1184 2531 1019 2322 
L 750 2322 
L 750 4666 
L 3219 4666 
z
" transform="scale(0.015625)"/>
       </defs>
       <use xlink:href="#DejaVuSerif-35"/>
       <use xlink:href="#DejaVuSerif-35" x="63.623047"/>
      </g>
     </g>
    </g>
    <g id="ytick_2">
     <g id="line2d_17">
      <g>
       <use xlink:href="#m94bac41b41" x="43.519375" y="313.333878" style="stroke: #000000"/>
      </g>
     </g>
     <g id="line2d_18">
      <g>
       <use xlink:href="#m8ae4958a8c" x="701.419375" y="313.333878" style="stroke: #000000"/>
      </g>
     </g>
     <g id="text_10">
      <!-- 60 -->
      <g transform="translate(24.749375 317.892941) scale(0.12 -0.12)">
       <defs>
        <path id="DejaVuSerif-36" d="M 2094 219 
Q 2534 219 2771 542 
Q 3009 866 3009 1472 
Q 3009 2078 2771 2401 
Q 2534 2725 2094 2725 
Q 1647 2725 1412 2412 
Q 1178 2100 1178 1509 
Q 1178 888 1415 553 
Q 1653 219 2094 219 
z
M 1075 2569 
Q 1288 2803 1556 2918 
Q 1825 3034 2163 3034 
Q 2859 3034 3264 2615 
Q 3669 2197 3669 1472 
Q 3669 763 3233 336 
Q 2797 -91 2069 -91 
Q 1278 -91 853 498 
Q 428 1088 428 2181 
Q 428 3406 931 4078 
Q 1434 4750 2350 4750 
Q 2597 4750 2869 4703 
Q 3141 4656 3425 4563 
L 3425 3794 
L 3072 3794 
Q 3034 4109 2831 4275 
Q 2628 4441 2284 4441 
Q 1678 4441 1381 3981 
Q 1084 3522 1075 2569 
z
" transform="scale(0.015625)"/>
        <path id="DejaVuSerif-30" d="M 2034 219 
Q 2513 219 2750 744 
Q 2988 1269 2988 2328 
Q 2988 3391 2750 3916 
Q 2513 4441 2034 4441 
Q 1556 4441 1318 3916 
Q 1081 3391 1081 2328 
Q 1081 1269 1318 744 
Q 1556 219 2034 219 
z
M 2034 -91 
Q 1275 -91 848 546 
Q 422 1184 422 2328 
Q 422 3475 848 4112 
Q 1275 4750 2034 4750 
Q 2797 4750 3222 4112 
Q 3647 3475 3647 2328 
Q 3647 1184 3222 546 
Q 2797 -91 2034 -91 
z
" transform="scale(0.015625)"/>
       </defs>
       <use xlink:href="#DejaVuSerif-36"/>
       <use xlink:href="#DejaVuSerif-30" x="63.623047"/>
      </g>
     </g>
    </g>
    <g id="ytick_3">
     <g id="line2d_19">
      <g>
       <use xlink:href="#m94bac41b41" x="43.519375" y="263.071409" style="stroke: #000000"/>
      </g>
     </g>
     <g id="line2d_20">
      <g>
       <use xlink:href="#m8ae4958a8c" x="701.419375" y="263.071409" style="stroke: #000000"/>
      </g>
     </g>
     <g id="text_11">
      <!-- 65 -->
      <g transform="translate(24.749375 267.630471) scale(0.12 -0.12)">
       <use xlink:href="#DejaVuSerif-36"/>
       <use xlink:href="#DejaVuSerif-35" x="63.623047"/>
      </g>
     </g>
    </g>
    <g id="ytick_4">
     <g id="line2d_21">
      <g>
       <use xlink:href="#m94bac41b41" x="43.519375" y="212.80894" style="stroke: #000000"/>
      </g>
     </g>
     <g id="line2d_22">
      <g>
       <use xlink:href="#m8ae4958a8c" x="701.419375" y="212.80894" style="stroke: #000000"/>
      </g>
     </g>
     <g id="text_12">
      <!-- 70 -->
      <g transform="translate(24.749375 217.368002) scale(0.12 -0.12)">
       <defs>
        <path id="DejaVuSerif-37" d="M 3609 4347 
L 1784 0 
L 1319 0 
L 3059 4153 
L 903 4153 
L 903 3578 
L 538 3578 
L 538 4666 
L 3609 4666 
L 3609 4347 
z
" transform="scale(0.015625)"/>
       </defs>
       <use xlink:href="#DejaVuSerif-37"/>
       <use xlink:href="#DejaVuSerif-30" x="63.623047"/>
      </g>
     </g>
    </g>
    <g id="ytick_5">
     <g id="line2d_23">
      <g>
       <use xlink:href="#m94bac41b41" x="43.519375" y="162.54647" style="stroke: #000000"/>
      </g>
     </g>
     <g id="line2d_24">
      <g>
       <use xlink:href="#m8ae4958a8c" x="701.419375" y="162.54647" style="stroke: #000000"/>
      </g>
     </g>
     <g id="text_13">
      <!-- 75 -->
      <g transform="translate(24.749375 167.105533) scale(0.12 -0.12)">
       <use xlink:href="#DejaVuSerif-37"/>
       <use xlink:href="#DejaVuSerif-35" x="63.623047"/>
      </g>
     </g>
    </g>
    <g id="ytick_6">
     <g id="line2d_25">
      <g>
       <use xlink:href="#m94bac41b41" x="43.519375" y="112.284001" style="stroke: #000000"/>
      </g>
     </g>
     <g id="line2d_26">
      <g>
       <use xlink:href="#m8ae4958a8c" x="701.419375" y="112.284001" style="stroke: #000000"/>
      </g>
     </g>
     <g id="text_14">
      <!-- 80 -->
      <g transform="translate(24.749375 116.843064) scale(0.12 -0.12)">
       <defs>
        <path id="DejaVuSerif-38" d="M 2981 1275 
Q 2981 1775 2732 2051 
Q 2484 2328 2034 2328 
Q 1584 2328 1336 2051 
Q 1088 1775 1088 1275 
Q 1088 772 1336 495 
Q 1584 219 2034 219 
Q 2484 219 2732 495 
Q 2981 772 2981 1275 
z
M 2853 3541 
Q 2853 3966 2637 4203 
Q 2422 4441 2034 4441 
Q 1650 4441 1433 4203 
Q 1216 3966 1216 3541 
Q 1216 3113 1433 2875 
Q 1650 2638 2034 2638 
Q 2422 2638 2637 2875 
Q 2853 3113 2853 3541 
z
M 2516 2484 
Q 3047 2413 3344 2092 
Q 3641 1772 3641 1275 
Q 3641 619 3225 264 
Q 2809 -91 2034 -91 
Q 1263 -91 845 264 
Q 428 619 428 1275 
Q 428 1772 725 2092 
Q 1022 2413 1556 2484 
Q 1084 2569 832 2842 
Q 581 3116 581 3541 
Q 581 4103 968 4426 
Q 1356 4750 2034 4750 
Q 2713 4750 3100 4426 
Q 3488 4103 3488 3541 
Q 3488 3116 3236 2842 
Q 2984 2569 2516 2484 
z
" transform="scale(0.015625)"/>
       </defs>
       <use xlink:href="#DejaVuSerif-38"/>
       <use xlink:href="#DejaVuSerif-30" x="63.623047"/>
      </g>
     </g>
    </g>
    <g id="ytick_7">
     <g id="line2d_27">
      <g>
       <use xlink:href="#m94bac41b41" x="43.519375" y="62.021532" style="stroke: #000000"/>
      </g>
     </g>
     <g id="line2d_28">
      <g>
       <use xlink:href="#m8ae4958a8c" x="701.419375" y="62.021532" style="stroke: #000000"/>
      </g>
     </g>
     <g id="text_15">
      <!-- 85 -->
      <g transform="translate(24.749375 66.580594) scale(0.12 -0.12)">
       <use xlink:href="#DejaVuSerif-38"/>
       <use xlink:href="#DejaVuSerif-35" x="63.623047"/>
      </g>
     </g>
    </g>
    <g id="ytick_8">
     <g id="line2d_29">
      <g>
       <use xlink:href="#m94bac41b41" x="43.519375" y="11.759063" style="stroke: #000000"/>
      </g>
     </g>
     <g id="line2d_30">
      <g>
       <use xlink:href="#m8ae4958a8c" x="701.419375" y="11.759063" style="stroke: #000000"/>
      </g>
     </g>
     <g id="text_16">
      <!-- 90 -->
      <g transform="translate(24.749375 16.318125) scale(0.12 -0.12)">
       <defs>
        <path id="DejaVuSerif-39" d="M 2994 2091 
Q 2784 1856 2512 1740 
Q 2241 1625 1900 1625 
Q 1206 1625 804 2044 
Q 403 2463 403 3188 
Q 403 3897 839 4323 
Q 1275 4750 2003 4750 
Q 2794 4750 3217 4161 
Q 3641 3572 3641 2478 
Q 3641 1253 3137 581 
Q 2634 -91 1722 -91 
Q 1475 -91 1203 -44 
Q 931 3 647 97 
L 647 872 
L 997 872 
Q 1038 556 1241 387 
Q 1444 219 1784 219 
Q 2391 219 2687 676 
Q 2984 1134 2994 2091 
z
M 1978 4441 
Q 1534 4441 1298 4117 
Q 1063 3794 1063 3188 
Q 1063 2581 1298 2256 
Q 1534 1931 1978 1931 
Q 2422 1931 2658 2245 
Q 2894 2559 2894 3150 
Q 2894 3772 2656 4106 
Q 2419 4441 1978 4441 
z
" transform="scale(0.015625)"/>
       </defs>
       <use xlink:href="#DejaVuSerif-39"/>
       <use xlink:href="#DejaVuSerif-30" x="63.623047"/>
      </g>
     </g>
    </g>
    <g id="text_17">
     <!-- Score (%) -->
     <g transform="translate(17.837813 230.832535) rotate(-90) scale(0.14 -0.14)">
      <defs>
       <path id="DejaVuSerif-63" d="M 3291 997 
Q 3169 466 2822 187 
Q 2475 -91 1925 -91 
Q 1200 -91 759 389 
Q 319 869 319 1663 
Q 319 2459 759 2936 
Q 1200 3413 1925 3413 
Q 2241 3413 2553 3339 
Q 2866 3266 3181 3116 
L 3181 2266 
L 2847 2266 
Q 2781 2703 2561 2903 
Q 2341 3103 1931 3103 
Q 1466 3103 1228 2742 
Q 991 2381 991 1663 
Q 991 944 1227 581 
Q 1463 219 1931 219 
Q 2303 219 2525 412 
Q 2747 606 2828 997 
L 3291 997 
z
" transform="scale(0.015625)"/>
       <path id="DejaVuSerif-28" d="M 2041 -997 
Q 1281 -656 893 83 
Q 506 822 506 1931 
Q 506 3044 893 3783 
Q 1281 4522 2041 4863 
L 2041 4556 
Q 1559 4225 1350 3623 
Q 1141 3022 1141 1931 
Q 1141 844 1350 242 
Q 1559 -359 2041 -691 
L 2041 -997 
z
" transform="scale(0.015625)"/>
       <path id="DejaVuSerif-25" d="M 1434 4459 
Q 1159 4459 1004 4200 
Q 850 3941 850 3475 
Q 850 3016 1008 2753 
Q 1166 2491 1434 2491 
Q 1700 2491 1854 2752 
Q 2009 3013 2009 3475 
Q 2009 3938 1854 4198 
Q 1700 4459 1434 4459 
z
M 4653 2169 
Q 4381 2169 4226 1906 
Q 4072 1644 4072 1178 
Q 4072 719 4228 458 
Q 4384 197 4653 197 
Q 4922 197 5075 458 
Q 5228 719 5228 1178 
Q 5228 1641 5073 1905 
Q 4919 2169 4653 2169 
z
M 4653 2450 
Q 5147 2450 5437 2106 
Q 5728 1763 5728 1178 
Q 5728 594 5436 251 
Q 5144 -91 4653 -91 
Q 4153 -91 3862 251 
Q 3572 594 3572 1178 
Q 3572 1766 3864 2108 
Q 4156 2450 4653 2450 
z
M 4263 4750 
L 4738 4750 
L 1819 -91 
L 1344 -91 
L 4263 4750 
z
M 1428 4750 
Q 1922 4750 2215 4408 
Q 2509 4066 2509 3481 
Q 2509 2891 2217 2550 
Q 1925 2209 1428 2209 
Q 931 2209 642 2551 
Q 353 2894 353 3481 
Q 353 4063 643 4406 
Q 934 4750 1428 4750 
z
" transform="scale(0.015625)"/>
       <path id="DejaVuSerif-29" d="M 453 -997 
L 453 -691 
Q 934 -359 1145 242 
Q 1356 844 1356 1931 
Q 1356 3022 1145 3623 
Q 934 4225 453 4556 
L 453 4863 
Q 1216 4522 1603 3783 
Q 1991 3044 1991 1931 
Q 1991 822 1603 83 
Q 1216 -656 453 -997 
z
" transform="scale(0.015625)"/>
      </defs>
      <use xlink:href="#DejaVuSerif-53"/>
      <use xlink:href="#DejaVuSerif-63" x="68.505859"/>
      <use xlink:href="#DejaVuSerif-6f" x="124.511719"/>
      <use xlink:href="#DejaVuSerif-72" x="184.716797"/>
      <use xlink:href="#DejaVuSerif-65" x="232.519531"/>
      <use xlink:href="#DejaVuSerif-20" x="291.699219"/>
      <use xlink:href="#DejaVuSerif-28" x="323.486328"/>
      <use xlink:href="#DejaVuSerif-25" x="362.5"/>
      <use xlink:href="#DejaVuSerif-29" x="457.519531"/>
     </g>
    </g>
   </g>
   <g id="line2d_31">
    <path d="M 73.42392 340.704543 
L 165.437906 297.931513 
L 257.451892 338.767888 
L 349.465878 362.749401 
L 441.479865 351.481789 
L 533.493851 364.581859 
L 625.507837 360.66529 
" clip-path="url(#p26b35eff2a)" style="fill: none; stroke: #000000; stroke-width: 1.5; stroke-linecap: square"/>
    <defs>
     <path id="mc9b4e820ac" d="M 0 3.5 
C 0.928211 3.5 1.81853 3.131218 2.474874 2.474874 
C 3.131218 1.81853 3.5 0.928211 3.5 0 
C 3.5 -0.928211 3.131218 -1.81853 2.474874 -2.474874 
C 1.81853 -3.131218 0.928211 -3.5 0 -3.5 
C -0.928211 -3.5 -1.81853 -3.131218 -2.474874 -2.474874 
C -3.131218 -1.81853 -3.5 -0.928211 -3.5 0 
C -3.5 0.928211 -3.131218 1.81853 -2.474874 2.474874 
C -1.81853 3.131218 -0.928211 3.5 0 3.5 
z
" style="stroke: #000000; stroke-width: 1.5"/>
    </defs>
    <g clip-path="url(#p26b35eff2a)">
     <use xlink:href="#mc9b4e820ac" x="73.42392" y="340.704543" style="fill: #ffffff; stroke: #000000; stroke-width: 1.5"/>
     <use xlink:href="#mc9b4e820ac" x="165.437906" y="297.931513" style="fill: #ffffff; stroke: #000000; stroke-width: 1.5"/>
     <use xlink:href="#mc9b4e820ac" x="257.451892" y="338.767888" style="fill: #ffffff; stroke: #000000; stroke-width: 1.5"/>
     <use xlink:href="#mc9b4e820ac" x="349.465878" y="362.749401" style="fill: #ffffff; stroke: #000000; stroke-width: 1.5"/>
     <use xlink:href="#mc9b4e820ac" x="441.479865" y="351.481789" style="fill: #ffffff; stroke: #000000; stroke-width: 1.5"/>
     <use xlink:href="#mc9b4e820ac" x="533.493851" y="364.581859" style="fill: #ffffff; stroke: #000000; stroke-width: 1.5"/>
     <use xlink:href="#mc9b4e820ac" x="625.507837" y="360.66529" style="fill: #ffffff; stroke: #000000; stroke-width: 1.5"/>
    </g>
   </g>
   <g id="line2d_32">
    <path d="M 73.42392 87.899231 
L 165.437906 53.78782 
L 257.451892 87.455542 
L 349.465878 107.494301 
L 441.479865 83.930833 
L 533.493851 111.972777 
L 625.507837 88.184079 
" clip-path="url(#p26b35eff2a)" style="fill: none; stroke: #0000ff; stroke-width: 1.5; stroke-linecap: square"/>
    <defs>
     <path id="mbee5f06de9" d="M -3.5 3.5 
L 3.5 3.5 
L 3.5 -3.5 
L -3.5 -3.5 
z
" style="stroke: #0000ff; stroke-width: 1.5; stroke-linejoin: miter"/>
    </defs>
    <g clip-path="url(#p26b35eff2a)">
     <use xlink:href="#mbee5f06de9" x="73.42392" y="87.899231" style="fill: #ffffff; stroke: #0000ff; stroke-width: 1.5; stroke-linejoin: miter"/>
     <use xlink:href="#mbee5f06de9" x="165.437906" y="53.78782" style="fill: #ffffff; stroke: #0000ff; stroke-width: 1.5; stroke-linejoin: miter"/>
     <use xlink:href="#mbee5f06de9" x="257.451892" y="87.455542" style="fill: #ffffff; stroke: #0000ff; stroke-width: 1.5; stroke-linejoin: miter"/>
     <use xlink:href="#mbee5f06de9" x="349.465878" y="107.494301" style="fill: #ffffff; stroke: #0000ff; stroke-width: 1.5; stroke-linejoin: miter"/>
     <use xlink:href="#mbee5f06de9" x="441.479865" y="83.930833" style="fill: #ffffff; stroke: #0000ff; stroke-width: 1.5; stroke-linejoin: miter"/>
     <use xlink:href="#mbee5f06de9" x="533.493851" y="111.972777" style="fill: #ffffff; stroke: #0000ff; stroke-width: 1.5; stroke-linejoin: miter"/>
     <use xlink:href="#mbee5f06de9" x="625.507837" y="88.184079" style="fill: #ffffff; stroke: #0000ff; stroke-width: 1.5; stroke-linejoin: miter"/>
    </g>
   </g>
   <g id="line2d_33">
    <path d="M 73.42392 60.030928 
L 165.437906 27.571024 
L 257.451892 70.499539 
L 349.465878 71.279665 
L 441.479865 48.36043 
L 533.493851 73.588647 
L 625.507837 62.672871 
" clip-path="url(#p26b35eff2a)" style="fill: none; stroke: #ff0000; stroke-width: 1.5; stroke-linecap: square"/>
    <defs>
     <path id="m6ec8765d16" d="M 0 -3.5 
L -3.5 3.5 
L 3.5 3.5 
z
" style="stroke: #ff0000; stroke-width: 1.5; stroke-linejoin: miter"/>
    </defs>
    <g clip-path="url(#p26b35eff2a)">
     <use xlink:href="#m6ec8765d16" x="73.42392" y="60.030928" style="fill: #ffffff; stroke: #ff0000; stroke-width: 1.5; stroke-linejoin: miter"/>
     <use xlink:href="#m6ec8765d16" x="165.437906" y="27.571024" style="fill: #ffffff; stroke: #ff0000; stroke-width: 1.5; stroke-linejoin: miter"/>
     <use xlink:href="#m6ec8765d16" x="257.451892" y="70.499539" style="fill: #ffffff; stroke: #ff0000; stroke-width: 1.5; stroke-linejoin: miter"/>
     <use xlink:href="#m6ec8765d16" x="349.465878" y="71.279665" style="fill: #ffffff; stroke: #ff0000; stroke-width: 1.5; stroke-linejoin: miter"/>
     <use xlink:href="#m6ec8765d16" x="441.479865" y="48.36043" style="fill: #ffffff; stroke: #ff0000; stroke-width: 1.5; stroke-linejoin: miter"/>
     <use xlink:href="#m6ec8765d16" x="533.493851" y="73.588647" style="fill: #ffffff; stroke: #ff0000; stroke-width: 1.5; stroke-linejoin: miter"/>
     <use xlink:href="#m6ec8765d16" x="625.507837" y="62.672871" style="fill: #ffffff; stroke: #ff0000; stroke-width: 1.5; stroke-linejoin: miter"/>
    </g>
   </g>
   <g id="line2d_34">
    <path d="M 73.42392 231.696276 
L 165.437906 194.250634 
L 257.451892 231.66422 
L 349.465878 250.879353 
L 441.479865 235.284677 
L 533.493851 252.242537 
L 625.507837 243.95043 
" clip-path="url(#p26b35eff2a)" style="fill: none; stroke: #008000; stroke-width: 1.5; stroke-linecap: square"/>
    <defs>
     <path id="m0914f92cff" d="M -0 4.949747 
L 4.949747 0 
L 0 -4.949747 
L -4.949747 -0 
z
" style="stroke: #008000; stroke-width: 1.5; stroke-linejoin: miter"/>
    </defs>
    <g clip-path="url(#p26b35eff2a)">
     <use xlink:href="#m0914f92cff" x="73.42392" y="231.696276" style="fill: #ffffff; stroke: #008000; stroke-width: 1.5; stroke-linejoin: miter"/>
     <use xlink:href="#m0914f92cff" x="165.437906" y="194.250634" style="fill: #ffffff; stroke: #008000; stroke-width: 1.5; stroke-linejoin: miter"/>
     <use xlink:href="#m0914f92cff" x="257.451892" y="231.66422" style="fill: #ffffff; stroke: #008000; stroke-width: 1.5; stroke-linejoin: miter"/>
     <use xlink:href="#m0914f92cff" x="349.465878" y="250.879353" style="fill: #ffffff; stroke: #008000; stroke-width: 1.5; stroke-linejoin: miter"/>
     <use xlink:href="#m0914f92cff" x="441.479865" y="235.284677" style="fill: #ffffff; stroke: #008000; stroke-width: 1.5; stroke-linejoin: miter"/>
     <use xlink:href="#m0914f92cff" x="533.493851" y="252.242537" style="fill: #ffffff; stroke: #008000; stroke-width: 1.5; stroke-linejoin: miter"/>
     <use xlink:href="#m0914f92cff" x="625.507837" y="243.95043" style="fill: #ffffff; stroke: #008000; stroke-width: 1.5; stroke-linejoin: miter"/>
    </g>
   </g>
   <g id="patch_4">
    <path d="M 43.519375 381.432401 
L 43.519375 10.720482 
" style="fill: none; stroke: #000000; stroke-linejoin: miter; stroke-linecap: square"/>
   </g>
   <g id="patch_5">
    <path d="M 701.419375 381.432401 
L 701.419375 10.720482 
" style="fill: none; stroke: #000000; stroke-linejoin: miter; stroke-linecap: square"/>
   </g>
   <g id="patch_6">
    <path d="M 43.519375 381.432401 
L 701.419375 381.432401 
" style="fill: none; stroke: #000000; stroke-linejoin: miter; stroke-linecap: square"/>
   </g>
   <g id="patch_7">
    <path d="M 43.519375 10.720482 
L 701.419375 10.720482 
" style="fill: none; stroke: #000000; stroke-linejoin: miter; stroke-linecap: square"/>
   </g>
   <g id="legend_1">
    <g id="patch_8">
     <path d="M 327.301484 238.091285 
L 417.637266 238.091285 
L 417.637266 154.061598 
L 327.301484 154.061598 
z
" style="fill: #ffffff; stroke: #000000; stroke-linejoin: miter"/>
    </g>
    <g id="line2d_35">
     <path d="M 331.701484 162.969879 
L 342.701484 162.969879 
L 353.701484 162.969879 
" style="fill: none; stroke: #000000; stroke-width: 1.5; stroke-linecap: square"/>
     <g>
      <use xlink:href="#mc9b4e820ac" x="342.701484" y="162.969879" style="fill: #ffffff; stroke: #000000; stroke-width: 1.5"/>
     </g>
    </g>
    <g id="text_18">
     <!-- ACC@1 -->
     <g transform="translate(362.501484 166.819879) scale(0.11 -0.11)">
      <defs>
       <path id="DejaVuSerif-41" d="M 1281 1691 
L 2994 1691 
L 2138 3909 
L 1281 1691 
z
M -38 0 
L -38 331 
L 372 331 
L 2034 4666 
L 2559 4666 
L 4225 331 
L 4684 331 
L 4684 0 
L 2988 0 
L 2988 331 
L 3506 331 
L 3116 1356 
L 1153 1356 
L 763 331 
L 1275 331 
L 1275 0 
L -38 0 
z
" transform="scale(0.015625)"/>
       <path id="DejaVuSerif-43" d="M 4513 1234 
Q 4306 581 3820 245 
Q 3334 -91 2591 -91 
Q 2134 -91 1743 65 
Q 1353 222 1050 525 
Q 700 875 529 1320 
Q 359 1766 359 2328 
Q 359 3416 987 4083 
Q 1616 4750 2644 4750 
Q 3025 4750 3456 4650 
Q 3888 4550 4384 4347 
L 4384 3272 
L 4031 3272 
Q 3916 3859 3567 4137 
Q 3219 4416 2591 4416 
Q 1844 4416 1459 3886 
Q 1075 3356 1075 2328 
Q 1075 1303 1459 773 
Q 1844 244 2591 244 
Q 3113 244 3450 492 
Q 3788 741 3938 1234 
L 4513 1234 
z
" transform="scale(0.015625)"/>
       <path id="DejaVuSerif-40" d="M 4044 775 
Q 3859 519 3629 394 
Q 3400 269 3109 269 
Q 2563 269 2222 659 
Q 1881 1050 1881 1678 
Q 1881 2306 2222 2695 
Q 2563 3084 3109 3084 
Q 3400 3084 3629 2959 
Q 3859 2834 4044 2578 
L 4044 3022 
L 4531 3022 
L 4531 609 
Q 5063 725 5356 1115 
Q 5650 1506 5650 2094 
Q 5650 2441 5544 2750 
Q 5438 3059 5228 3322 
Q 4897 3738 4420 3958 
Q 3944 4178 3384 4178 
Q 3103 4178 2828 4118 
Q 2553 4059 2284 3938 
Q 1653 3647 1303 3058 
Q 953 2469 953 1697 
Q 953 1175 1109 736 
Q 1266 297 1563 -25 
Q 1903 -397 2370 -592 
Q 2838 -788 3378 -788 
Q 3781 -788 4131 -669 
Q 4481 -550 4781 -313 
L 4947 -531 
Q 4609 -822 4181 -967 
Q 3753 -1113 3244 -1113 
Q 2672 -1113 2151 -905 
Q 1631 -697 1241 -313 
Q 838 84 630 595 
Q 422 1106 422 1697 
Q 422 2272 631 2781 
Q 841 3291 1241 3688 
Q 1638 4081 2177 4293 
Q 2716 4506 3322 4506 
Q 3991 4506 4542 4247 
Q 5094 3988 5466 3500 
Q 5703 3194 5825 2834 
Q 5947 2475 5947 2088 
Q 5947 1250 5437 764 
Q 4928 278 4047 269 
L 4044 775 
z
M 4044 1516 
L 4044 1844 
Q 4044 2234 3820 2476 
Q 3597 2719 3238 2719 
Q 2859 2719 2648 2445 
Q 2438 2172 2438 1678 
Q 2438 1181 2650 907 
Q 2863 634 3244 634 
Q 3600 634 3822 879 
Q 4044 1125 4044 1516 
z
" transform="scale(0.015625)"/>
       <path id="DejaVuSerif-31" d="M 909 0 
L 909 331 
L 1722 331 
L 1722 4213 
L 781 3603 
L 781 4013 
L 1919 4750 
L 2350 4750 
L 2350 331 
L 3163 331 
L 3163 0 
L 909 0 
z
" transform="scale(0.015625)"/>
      </defs>
      <use xlink:href="#DejaVuSerif-41"/>
      <use xlink:href="#DejaVuSerif-43" x="72.216797"/>
      <use xlink:href="#DejaVuSerif-43" x="148.730469"/>
      <use xlink:href="#DejaVuSerif-40" x="225.244141"/>
      <use xlink:href="#DejaVuSerif-31" x="325.244141"/>
     </g>
    </g>
    <g id="line2d_36">
     <path d="M 331.701484 179.115816 
L 342.701484 179.115816 
L 353.701484 179.115816 
" style="fill: none; stroke: #0000ff; stroke-width: 1.5; stroke-linecap: square"/>
     <g>
      <use xlink:href="#mbee5f06de9" x="342.701484" y="179.115816" style="fill: #ffffff; stroke: #0000ff; stroke-width: 1.5; stroke-linejoin: miter"/>
     </g>
    </g>
    <g id="text_19">
     <!-- ACC@5 -->
     <g transform="translate(362.501484 182.965816) scale(0.11 -0.11)">
      <use xlink:href="#DejaVuSerif-41"/>
      <use xlink:href="#DejaVuSerif-43" x="72.216797"/>
      <use xlink:href="#DejaVuSerif-43" x="148.730469"/>
      <use xlink:href="#DejaVuSerif-40" x="225.244141"/>
      <use xlink:href="#DejaVuSerif-35" x="325.244141"/>
     </g>
    </g>
    <g id="line2d_37">
     <path d="M 331.701484 195.261754 
L 342.701484 195.261754 
L 353.701484 195.261754 
" style="fill: none; stroke: #ff0000; stroke-width: 1.5; stroke-linecap: square"/>
     <g>
      <use xlink:href="#m6ec8765d16" x="342.701484" y="195.261754" style="fill: #ffffff; stroke: #ff0000; stroke-width: 1.5; stroke-linejoin: miter"/>
     </g>
    </g>
    <g id="text_20">
     <!-- ACC@10 -->
     <g transform="translate(362.501484 199.111754) scale(0.11 -0.11)">
      <use xlink:href="#DejaVuSerif-41"/>
      <use xlink:href="#DejaVuSerif-43" x="72.216797"/>
      <use xlink:href="#DejaVuSerif-43" x="148.730469"/>
      <use xlink:href="#DejaVuSerif-40" x="225.244141"/>
      <use xlink:href="#DejaVuSerif-31" x="325.244141"/>
      <use xlink:href="#DejaVuSerif-30" x="388.867188"/>
     </g>
    </g>
    <g id="line2d_38">
     <path d="M 331.701484 211.407691 
L 342.701484 211.407691 
L 353.701484 211.407691 
" style="fill: none; stroke: #008000; stroke-width: 1.5; stroke-linecap: square"/>
     <g>
      <use xlink:href="#m0914f92cff" x="342.701484" y="211.407691" style="fill: #ffffff; stroke: #008000; stroke-width: 1.5; stroke-linejoin: miter"/>
     </g>
    </g>
    <g id="text_21">
     <!-- MRR -->
     <g transform="translate(362.501484 215.257691) scale(0.11 -0.11)">
      <defs>
       <path id="DejaVuSerif-52" d="M 3066 2316 
Q 3284 2256 3442 2114 
Q 3600 1972 3725 1716 
L 4403 331 
L 4972 331 
L 4972 0 
L 3872 0 
L 3144 1484 
Q 2934 1916 2759 2042 
Q 2584 2169 2278 2169 
L 1581 2169 
L 1581 331 
L 2241 331 
L 2241 0 
L 353 0 
L 353 331 
L 947 331 
L 947 4331 
L 353 4331 
L 353 4666 
L 2719 4666 
Q 3400 4666 3770 4341 
Q 4141 4016 4141 3419 
Q 4141 2938 3870 2661 
Q 3600 2384 3066 2316 
z
M 1581 2503 
L 2503 2503 
Q 2975 2503 3200 2726 
Q 3425 2950 3425 3419 
Q 3425 3888 3200 4109 
Q 2975 4331 2503 4331 
L 1581 4331 
L 1581 2503 
z
" transform="scale(0.015625)"/>
      </defs>
      <use xlink:href="#DejaVuSerif-4d"/>
      <use xlink:href="#DejaVuSerif-52" x="102.392578"/>
      <use xlink:href="#DejaVuSerif-52" x="177.685547"/>
     </g>
    </g>
    <g id="patch_9">
     <path d="M 331.701484 231.403629 
L 353.701484 231.403629 
L 353.701484 223.703629 
L 331.701484 223.703629 
z
" style="fill: #ff0000; opacity: 0.1; stroke: #ff0000; stroke-linejoin: miter"/>
    </g>
    <g id="text_22">
     <!-- Weekend -->
     <g transform="translate(362.501484 231.403629) scale(0.11 -0.11)">
      <use xlink:href="#DejaVuSerif-57"/>
      <use xlink:href="#DejaVuSerif-65" x="94.658203"/>
      <use xlink:href="#DejaVuSerif-65" x="153.837891"/>
      <use xlink:href="#DejaVuSerif-6b" x="213.017578"/>
      <use xlink:href="#DejaVuSerif-65" x="273.613281"/>
      <use xlink:href="#DejaVuSerif-6e" x="332.792969"/>
      <use xlink:href="#DejaVuSerif-64" x="397.197266"/>
     </g>
    </g>
   </g>
  </g>
 </g>
 <defs>
  <clipPath id="p26b35eff2a">
   <rect x="43.519375" y="10.720482" width="657.9" height="370.711919"/>
  </clipPath>
 </defs>
</svg>
