<?xml version="1.0" encoding="utf-8" standalone="no"?>
<!DOCTYPE svg PUBLIC "-//W3C//DTD SVG 1.1//EN"
  "http://www.w3.org/Graphics/SVG/1.1/DTD/svg11.dtd">
<svg xmlns:xlink="http://www.w3.org/1999/xlink" width="996.428437pt" height="313.362188pt" viewBox="0 0 996.428437 313.362188" xmlns="http://www.w3.org/2000/svg" version="1.1">
 <metadata>
  <rdf:RDF xmlns:dc="http://purl.org/dc/elements/1.1/" xmlns:cc="http://creativecommons.org/ns#" xmlns:rdf="http://www.w3.org/1999/02/22-rdf-syntax-ns#">
   <cc:Work>
    <dc:type rdf:resource="http://purl.org/dc/dcmitype/StillImage"/>
    <dc:date>2026-01-02T11:10:55.108265</dc:date>
    <dc:format>image/svg+xml</dc:format>
    <dc:creator>
     <cc:Agent>
      <dc:title>Matplotlib v3.9.4, https://matplotlib.org/</dc:title>
     </cc:Agent>
    </dc:creator>
   </cc:Work>
  </rdf:RDF>
 </metadata>
 <defs>
  <style type="text/css">*{stroke-linejoin: round; stroke-linecap: butt}</style>
 </defs>
 <g id="figure_1">
  <g id="patch_1">
   <path d="M 0 313.362188 
L 996.428437 313.362188 
L 996.428437 0 
L 0 0 
z
" style="fill: #ffffff"/>
  </g>
  <g id="axes_1">
   <g id="patch_2">
    <path d="M 43.718438 273.3 
L 325.868438 273.3 
L 325.868438 7.2 
L 43.718438 7.2 
z
" style="fill: #ffffff"/>
   </g>
   <g id="patch_3">
    <path d="M 56.543438 578.95807 
L 83.341945 578.95807 
L 83.341945 105.708754 
L 56.543438 105.708754 
z
" clip-path="url(#p65add679f0)" style="fill: url(#h9cf470d530); stroke: #008000; stroke-width: 1.5; stroke-linejoin: miter"/>
   </g>
   <g id="patch_4">
    <path d="M 94.82702 578.95807 
L 121.625527 578.95807 
L 121.625527 108.466117 
L 94.82702 108.466117 
z
" clip-path="url(#p65add679f0)" style="fill: url(#h9cf470d530); stroke: #008000; stroke-width: 1.5; stroke-linejoin: miter"/>
   </g>
   <g id="patch_5">
    <path d="M 133.110602 578.95807 
L 159.909109 578.95807 
L 159.909109 49.55245 
L 133.110602 49.55245 
z
" clip-path="url(#p65add679f0)" style="fill: url(#h9cf470d530); stroke: #008000; stroke-width: 1.5; stroke-linejoin: miter"/>
   </g>
   <g id="patch_6">
    <path d="M 171.394184 578.95807 
L 198.192691 578.95807 
L 198.192691 81.779478 
L 171.394184 81.779478 
z
" clip-path="url(#p65add679f0)" style="fill: url(#h9cf470d530); stroke: #008000; stroke-width: 1.5; stroke-linejoin: miter"/>
   </g>
   <g id="patch_7">
    <path d="M 209.677766 578.95807 
L 236.476273 578.95807 
L 236.476273 105.970905 
L 209.677766 105.970905 
z
" clip-path="url(#p65add679f0)" style="fill: url(#h9cf470d530); stroke: #008000; stroke-width: 1.5; stroke-linejoin: miter"/>
   </g>
   <g id="patch_8">
    <path d="M 247.961348 578.95807 
L 274.759855 578.95807 
L 274.759855 246.721037 
L 247.961348 246.721037 
z
" clip-path="url(#p65add679f0)" style="fill: url(#h567765487c); stroke: #ffa500; stroke-width: 1.5; stroke-linejoin: miter"/>
   </g>
   <g id="patch_9">
    <path d="M 286.24493 578.95807 
L 313.043438 578.95807 
L 313.043438 206.60935 
L 286.24493 206.60935 
z
" clip-path="url(#p65add679f0)" style="fill: url(#h567765487c); stroke: #ffa500; stroke-width: 1.5; stroke-linejoin: miter"/>
   </g>
   <g id="matplotlib.axis_1">
    <g id="xtick_1">
     <g id="line2d_1">
      <defs>
       <path id="me8113b2e8f" d="M 0 0 
L 0 -5 
" style="stroke: #000000"/>
      </defs>
      <g>
       <use xlink:href="#me8113b2e8f" x="69.942691" y="273.3" style="stroke: #000000"/>
      </g>
     </g>
     <g id="line2d_2">
      <defs>
       <path id="m8e72f5d520" d="M 0 0 
L 0 5 
" style="stroke: #000000"/>
      </defs>
      <g>
       <use xlink:href="#m8e72f5d520" x="69.942691" y="7.2" style="stroke: #000000"/>
      </g>
     </g>
     <g id="text_1">
      <!-- Mon -->
      <g transform="translate(56.322691 285.918125) scale(0.12 -0.12)">
       <defs>
        <path id="DejaVuSerif-4d" d="M 353 0 
L 353 331 
L 947 331 
L 947 4331 
L 319 4331 
L 319 4666 
L 1678 4666 
L 3316 1344 
L 4953 4666 
L 6228 4666 
L 6228 4331 
L 5606 4331 
L 5606 331 
L 6203 331 
L 6203 0 
L 4378 0 
L 4378 331 
L 4972 331 
L 4972 3938 
L 3372 684 
L 2931 684 
L 1331 3938 
L 1331 331 
L 1925 331 
L 1925 0 
L 353 0 
z
" transform="scale(0.015625)"/>
        <path id="DejaVuSerif-6f" d="M 1925 219 
Q 2388 219 2623 584 
Q 2859 950 2859 1663 
Q 2859 2375 2623 2739 
Q 2388 3103 1925 3103 
Q 1463 3103 1227 2739 
Q 991 2375 991 1663 
Q 991 950 1228 584 
Q 1466 219 1925 219 
z
M 1925 -91 
Q 1200 -91 759 389 
Q 319 869 319 1663 
Q 319 2456 758 2934 
Q 1197 3413 1925 3413 
Q 2653 3413 3092 2934 
Q 3531 2456 3531 1663 
Q 3531 869 3092 389 
Q 2653 -91 1925 -91 
z
" transform="scale(0.015625)"/>
        <path id="DejaVuSerif-6e" d="M 263 0 
L 263 331 
L 781 331 
L 781 2988 
L 231 2988 
L 231 3322 
L 1356 3322 
L 1356 2731 
Q 1516 3069 1770 3241 
Q 2025 3413 2363 3413 
Q 2913 3413 3172 3097 
Q 3431 2781 3431 2113 
L 3431 331 
L 3944 331 
L 3944 0 
L 2356 0 
L 2356 331 
L 2853 331 
L 2853 1931 
Q 2853 2541 2703 2767 
Q 2553 2994 2175 2994 
Q 1775 2994 1565 2701 
Q 1356 2409 1356 1850 
L 1356 331 
L 1856 331 
L 1856 0 
L 263 0 
z
" transform="scale(0.015625)"/>
       </defs>
       <use xlink:href="#DejaVuSerif-4d"/>
       <use xlink:href="#DejaVuSerif-6f" x="102.392578"/>
       <use xlink:href="#DejaVuSerif-6e" x="162.597656"/>
      </g>
     </g>
    </g>
    <g id="xtick_2">
     <g id="line2d_3">
      <g>
       <use xlink:href="#me8113b2e8f" x="108.226273" y="273.3" style="stroke: #000000"/>
      </g>
     </g>
     <g id="line2d_4">
      <g>
       <use xlink:href="#m8e72f5d520" x="108.226273" y="7.2" style="stroke: #000000"/>
      </g>
     </g>
     <g id="text_2">
      <!-- Tue -->
      <g transform="translate(96.808461 285.918125) scale(0.12 -0.12)">
       <defs>
        <path id="DejaVuSerif-54" d="M 1222 0 
L 1222 331 
L 1819 331 
L 1819 4294 
L 447 4294 
L 447 3566 
L 63 3566 
L 63 4666 
L 4206 4666 
L 4206 3566 
L 3822 3566 
L 3822 4294 
L 2450 4294 
L 2450 331 
L 3047 331 
L 3047 0 
L 1222 0 
z
" transform="scale(0.015625)"/>
        <path id="DejaVuSerif-75" d="M 2266 3322 
L 3341 3322 
L 3341 331 
L 3884 331 
L 3884 0 
L 2766 0 
L 2766 588 
Q 2606 256 2353 82 
Q 2100 -91 1766 -91 
Q 1213 -91 952 223 
Q 691 538 691 1209 
L 691 2988 
L 172 2988 
L 172 3322 
L 1269 3322 
L 1269 1388 
Q 1269 781 1417 556 
Q 1566 331 1947 331 
Q 2347 331 2556 625 
Q 2766 919 2766 1478 
L 2766 2988 
L 2266 2988 
L 2266 3322 
z
" transform="scale(0.015625)"/>
        <path id="DejaVuSerif-65" d="M 3469 1600 
L 991 1600 
L 991 1575 
Q 991 903 1244 561 
Q 1497 219 1991 219 
Q 2369 219 2611 417 
Q 2853 616 2950 1006 
L 3413 1006 
Q 3275 459 2904 184 
Q 2534 -91 1931 -91 
Q 1203 -91 761 389 
Q 319 869 319 1663 
Q 319 2450 753 2931 
Q 1188 3413 1894 3413 
Q 2647 3413 3050 2948 
Q 3453 2484 3469 1600 
z
M 2791 1931 
Q 2772 2513 2545 2808 
Q 2319 3103 1894 3103 
Q 1497 3103 1269 2806 
Q 1041 2509 991 1931 
L 2791 1931 
z
" transform="scale(0.015625)"/>
       </defs>
       <use xlink:href="#DejaVuSerif-54"/>
       <use xlink:href="#DejaVuSerif-75" x="66.699219"/>
       <use xlink:href="#DejaVuSerif-65" x="131.103516"/>
      </g>
     </g>
    </g>
    <g id="xtick_3">
     <g id="line2d_5">
      <g>
       <use xlink:href="#me8113b2e8f" x="146.509855" y="273.3" style="stroke: #000000"/>
      </g>
     </g>
     <g id="line2d_6">
      <g>
       <use xlink:href="#m8e72f5d520" x="146.509855" y="7.2" style="stroke: #000000"/>
      </g>
     </g>
     <g id="text_3">
      <!-- Wed -->
      <g transform="translate(133.438293 285.918125) scale(0.12 -0.12)">
       <defs>
        <path id="DejaVuSerif-57" d="M 4878 0 
L 4366 0 
L 3297 3794 
L 2228 0 
L 1716 0 
L 494 4331 
L 31 4331 
L 31 4666 
L 1734 4666 
L 1734 4331 
L 1153 4331 
L 2125 884 
L 3188 4666 
L 3694 4666 
L 4775 844 
L 5753 4331 
L 5216 4331 
L 5216 4666 
L 6559 4666 
L 6559 4331 
L 6100 4331 
L 4878 0 
z
" transform="scale(0.015625)"/>
        <path id="DejaVuSerif-64" d="M 3359 331 
L 3909 331 
L 3909 0 
L 2784 0 
L 2784 519 
Q 2616 206 2355 57 
Q 2094 -91 1709 -91 
Q 1097 -91 708 395 
Q 319 881 319 1663 
Q 319 2444 706 2928 
Q 1094 3413 1709 3413 
Q 2094 3413 2355 3264 
Q 2616 3116 2784 2803 
L 2784 4531 
L 2241 4531 
L 2241 4863 
L 3359 4863 
L 3359 331 
z
M 2784 1497 
L 2784 1825 
Q 2784 2422 2554 2737 
Q 2325 3053 1888 3053 
Q 1444 3053 1217 2703 
Q 991 2353 991 1663 
Q 991 975 1217 622 
Q 1444 269 1888 269 
Q 2325 269 2554 583 
Q 2784 897 2784 1497 
z
" transform="scale(0.015625)"/>
       </defs>
       <use xlink:href="#DejaVuSerif-57"/>
       <use xlink:href="#DejaVuSerif-65" x="94.658203"/>
       <use xlink:href="#DejaVuSerif-64" x="153.837891"/>
      </g>
     </g>
    </g>
    <g id="xtick_4">
     <g id="line2d_7">
      <g>
       <use xlink:href="#me8113b2e8f" x="184.793438" y="273.3" style="stroke: #000000"/>
      </g>
     </g>
     <g id="line2d_8">
      <g>
       <use xlink:href="#m8e72f5d520" x="184.793438" y="7.2" style="stroke: #000000"/>
      </g>
     </g>
     <g id="text_4">
      <!-- Thu -->
      <g transform="translate(173.0625 285.918125) scale(0.12 -0.12)">
       <defs>
        <path id="DejaVuSerif-68" d="M 263 0 
L 263 331 
L 781 331 
L 781 4531 
L 231 4531 
L 231 4863 
L 1356 4863 
L 1356 2731 
Q 1516 3069 1770 3241 
Q 2025 3413 2363 3413 
Q 2913 3413 3172 3097 
Q 3431 2781 3431 2113 
L 3431 331 
L 3944 331 
L 3944 0 
L 2356 0 
L 2356 331 
L 2853 331 
L 2853 1931 
Q 2853 2541 2704 2764 
Q 2556 2988 2175 2988 
Q 1775 2988 1565 2697 
Q 1356 2406 1356 1850 
L 1356 331 
L 1856 331 
L 1856 0 
L 263 0 
z
" transform="scale(0.015625)"/>
       </defs>
       <use xlink:href="#DejaVuSerif-54"/>
       <use xlink:href="#DejaVuSerif-68" x="66.699219"/>
       <use xlink:href="#DejaVuSerif-75" x="131.103516"/>
      </g>
     </g>
    </g>
    <g id="xtick_5">
     <g id="line2d_9">
      <g>
       <use xlink:href="#me8113b2e8f" x="223.07702" y="273.3" style="stroke: #000000"/>
      </g>
     </g>
     <g id="line2d_10">
      <g>
       <use xlink:href="#m8e72f5d520" x="223.07702" y="7.2" style="stroke: #000000"/>
      </g>
     </g>
     <g id="text_5">
      <!-- Fri -->
      <g transform="translate(214.126707 285.918125) scale(0.12 -0.12)">
       <defs>
        <path id="DejaVuSerif-46" d="M 353 0 
L 353 331 
L 947 331 
L 947 4331 
L 353 4331 
L 353 4666 
L 4172 4666 
L 4172 3628 
L 3788 3628 
L 3788 4281 
L 1581 4281 
L 1581 2719 
L 3175 2719 
L 3175 3303 
L 3559 3303 
L 3559 1753 
L 3175 1753 
L 3175 2338 
L 1581 2338 
L 1581 331 
L 2328 331 
L 2328 0 
L 353 0 
z
" transform="scale(0.015625)"/>
        <path id="DejaVuSerif-72" d="M 3059 3328 
L 3059 2497 
L 2728 2497 
Q 2713 2744 2591 2866 
Q 2469 2988 2234 2988 
Q 1809 2988 1582 2694 
Q 1356 2400 1356 1850 
L 1356 331 
L 2022 331 
L 2022 0 
L 263 0 
L 263 331 
L 781 331 
L 781 2994 
L 231 2994 
L 231 3322 
L 1356 3322 
L 1356 2731 
Q 1525 3078 1790 3245 
Q 2056 3413 2438 3413 
Q 2578 3413 2733 3391 
Q 2888 3369 3059 3328 
z
" transform="scale(0.015625)"/>
        <path id="DejaVuSerif-69" d="M 622 4353 
Q 622 4497 726 4603 
Q 831 4709 978 4709 
Q 1122 4709 1226 4603 
Q 1331 4497 1331 4353 
Q 1331 4206 1228 4103 
Q 1125 4000 978 4000 
Q 831 4000 726 4103 
Q 622 4206 622 4353 
z
M 1356 331 
L 1900 331 
L 1900 0 
L 231 0 
L 231 331 
L 781 331 
L 781 2988 
L 231 2988 
L 231 3322 
L 1356 3322 
L 1356 331 
z
" transform="scale(0.015625)"/>
       </defs>
       <use xlink:href="#DejaVuSerif-46"/>
       <use xlink:href="#DejaVuSerif-72" x="69.384766"/>
       <use xlink:href="#DejaVuSerif-69" x="117.1875"/>
      </g>
     </g>
    </g>
    <g id="xtick_6">
     <g id="line2d_11">
      <g>
       <use xlink:href="#me8113b2e8f" x="261.360602" y="273.3" style="stroke: #000000"/>
      </g>
     </g>
     <g id="line2d_12">
      <g>
       <use xlink:href="#m8e72f5d520" x="261.360602" y="7.2" style="stroke: #000000"/>
      </g>
     </g>
     <g id="text_6">
      <!-- Sat -->
      <g transform="translate(251.261852 285.918125) scale(0.12 -0.12)">
       <defs>
        <path id="DejaVuSerif-53" d="M 594 225 
L 594 1288 
L 953 1284 
Q 969 753 1261 498 
Q 1553 244 2150 244 
Q 2706 244 2998 464 
Q 3291 684 3291 1106 
Q 3291 1444 3114 1625 
Q 2938 1806 2369 1978 
L 1753 2163 
Q 1084 2366 811 2669 
Q 538 2972 538 3500 
Q 538 4094 959 4422 
Q 1381 4750 2144 4750 
Q 2469 4750 2856 4679 
Q 3244 4609 3681 4475 
L 3681 3481 
L 3328 3481 
Q 3275 3975 2998 4195 
Q 2722 4416 2156 4416 
Q 1663 4416 1405 4214 
Q 1147 4013 1147 3628 
Q 1147 3294 1340 3103 
Q 1534 2913 2163 2725 
L 2741 2553 
Q 3375 2363 3645 2067 
Q 3916 1772 3916 1275 
Q 3916 597 3481 253 
Q 3047 -91 2188 -91 
Q 1803 -91 1404 -12 
Q 1006 66 594 225 
z
" transform="scale(0.015625)"/>
        <path id="DejaVuSerif-61" d="M 2547 1044 
L 2547 1747 
L 1806 1747 
Q 1378 1747 1168 1562 
Q 959 1378 959 997 
Q 959 650 1171 447 
Q 1384 244 1747 244 
Q 2106 244 2326 466 
Q 2547 688 2547 1044 
z
M 3122 2075 
L 3122 331 
L 3634 331 
L 3634 0 
L 2547 0 
L 2547 359 
Q 2356 128 2106 18 
Q 1856 -91 1522 -91 
Q 969 -91 644 203 
Q 319 497 319 997 
Q 319 1513 691 1797 
Q 1063 2081 1741 2081 
L 2547 2081 
L 2547 2309 
Q 2547 2688 2317 2895 
Q 2088 3103 1672 3103 
Q 1328 3103 1125 2947 
Q 922 2791 872 2484 
L 575 2484 
L 575 3156 
Q 875 3284 1158 3348 
Q 1441 3413 1709 3413 
Q 2400 3413 2761 3070 
Q 3122 2728 3122 2075 
z
" transform="scale(0.015625)"/>
        <path id="DejaVuSerif-74" d="M 691 2988 
L 184 2988 
L 184 3322 
L 691 3322 
L 691 4353 
L 1269 4353 
L 1269 3322 
L 2350 3322 
L 2350 2988 
L 1269 2988 
L 1269 878 
Q 1269 456 1350 337 
Q 1431 219 1650 219 
Q 1875 219 1978 351 
Q 2081 484 2088 781 
L 2522 781 
Q 2497 328 2275 118 
Q 2053 -91 1600 -91 
Q 1103 -91 897 129 
Q 691 350 691 878 
L 691 2988 
z
" transform="scale(0.015625)"/>
       </defs>
       <use xlink:href="#DejaVuSerif-53"/>
       <use xlink:href="#DejaVuSerif-61" x="68.505859"/>
       <use xlink:href="#DejaVuSerif-74" x="128.125"/>
      </g>
     </g>
    </g>
    <g id="xtick_7">
     <g id="line2d_13">
      <g>
       <use xlink:href="#me8113b2e8f" x="299.644184" y="273.3" style="stroke: #000000"/>
      </g>
     </g>
     <g id="line2d_14">
      <g>
       <use xlink:href="#m8e72f5d520" x="299.644184" y="7.2" style="stroke: #000000"/>
      </g>
     </g>
     <g id="text_7">
      <!-- Sun -->
      <g transform="translate(287.805434 285.918125) scale(0.12 -0.12)">
       <use xlink:href="#DejaVuSerif-53"/>
       <use xlink:href="#DejaVuSerif-75" x="68.505859"/>
       <use xlink:href="#DejaVuSerif-6e" x="132.910156"/>
      </g>
     </g>
    </g>
    <g id="text_8">
     <!-- Day of Week -->
     <g transform="translate(140.644219 303.051562) scale(0.14 -0.14)">
      <defs>
       <path id="DejaVuSerif-44" d="M 1581 331 
L 2163 331 
Q 3072 331 3558 850 
Q 4044 1369 4044 2338 
Q 4044 3306 3559 3818 
Q 3075 4331 2163 4331 
L 1581 4331 
L 1581 331 
z
M 353 0 
L 353 331 
L 947 331 
L 947 4331 
L 353 4331 
L 353 4666 
L 2209 4666 
Q 3416 4666 4089 4050 
Q 4763 3434 4763 2338 
Q 4763 1238 4088 619 
Q 3413 0 2209 0 
L 353 0 
z
" transform="scale(0.015625)"/>
       <path id="DejaVuSerif-79" d="M 1381 -609 
L 1600 -56 
L 359 2988 
L -19 2988 
L -19 3322 
L 1509 3322 
L 1509 2988 
L 978 2988 
L 1913 703 
L 2847 2988 
L 2350 2988 
L 2350 3322 
L 3597 3322 
L 3597 2988 
L 3225 2988 
L 1703 -750 
Q 1547 -1138 1356 -1280 
Q 1166 -1422 819 -1422 
Q 672 -1422 517 -1397 
Q 363 -1372 206 -1325 
L 206 -691 
L 500 -691 
Q 519 -903 608 -995 
Q 697 -1088 884 -1088 
Q 1056 -1088 1161 -992 
Q 1266 -897 1381 -609 
z
" transform="scale(0.015625)"/>
       <path id="DejaVuSerif-20" transform="scale(0.015625)"/>
       <path id="DejaVuSerif-66" d="M 2753 4078 
L 2450 4078 
Q 2447 4313 2317 4434 
Q 2188 4556 1941 4556 
Q 1619 4556 1487 4379 
Q 1356 4203 1356 3750 
L 1356 3322 
L 2284 3322 
L 2284 2988 
L 1356 2988 
L 1356 331 
L 2094 331 
L 2094 0 
L 231 0 
L 231 331 
L 781 331 
L 781 2988 
L 231 2988 
L 231 3322 
L 781 3322 
L 781 3738 
Q 781 4294 1070 4578 
Q 1359 4863 1919 4863 
Q 2128 4863 2337 4825 
Q 2547 4788 2753 4709 
L 2753 4078 
z
" transform="scale(0.015625)"/>
       <path id="DejaVuSerif-6b" d="M 1831 0 
L 219 0 
L 219 331 
L 738 331 
L 738 4531 
L 184 4531 
L 184 4863 
L 1313 4863 
L 1313 1697 
L 2713 2988 
L 2234 2988 
L 2234 3322 
L 3738 3322 
L 3738 2988 
L 3169 2988 
L 2181 2075 
L 3444 331 
L 3922 331 
L 3922 0 
L 2284 0 
L 2284 331 
L 2759 331 
L 1766 1697 
L 1313 1275 
L 1313 331 
L 1831 331 
L 1831 0 
z
" transform="scale(0.015625)"/>
      </defs>
      <use xlink:href="#DejaVuSerif-44"/>
      <use xlink:href="#DejaVuSerif-61" x="80.175781"/>
      <use xlink:href="#DejaVuSerif-79" x="139.794922"/>
      <use xlink:href="#DejaVuSerif-20" x="196.289062"/>
      <use xlink:href="#DejaVuSerif-6f" x="228.076172"/>
      <use xlink:href="#DejaVuSerif-66" x="288.28125"/>
      <use xlink:href="#DejaVuSerif-20" x="325.292969"/>
      <use xlink:href="#DejaVuSerif-57" x="357.080078"/>
      <use xlink:href="#DejaVuSerif-65" x="451.738281"/>
      <use xlink:href="#DejaVuSerif-65" x="510.917969"/>
      <use xlink:href="#DejaVuSerif-6b" x="570.097656"/>
     </g>
    </g>
   </g>
   <g id="matplotlib.axis_2">
    <g id="ytick_1">
     <g id="line2d_15">
      <defs>
       <path id="md6b31146eb" d="M 0 0 
L 5 0 
" style="stroke: #000000"/>
      </defs>
      <g>
       <use xlink:href="#md6b31146eb" x="43.718438" y="269.538468" style="stroke: #000000"/>
      </g>
     </g>
     <g id="line2d_16">
      <defs>
       <path id="mb44713c154" d="M 0 0 
L -5 0 
" style="stroke: #000000"/>
      </defs>
      <g>
       <use xlink:href="#mb44713c154" x="325.868438" y="269.538468" style="stroke: #000000"/>
      </g>
     </g>
     <g id="text_9">
      <!-- 35 -->
      <g transform="translate(24.948438 274.09753) scale(0.12 -0.12)">
       <defs>
        <path id="DejaVuSerif-33" d="M 622 4469 
Q 988 4606 1323 4678 
Q 1659 4750 1953 4750 
Q 2638 4750 3022 4454 
Q 3406 4159 3406 3634 
Q 3406 3213 3140 2930 
Q 2875 2647 2388 2547 
Q 2963 2466 3280 2130 
Q 3597 1794 3597 1259 
Q 3597 606 3158 257 
Q 2719 -91 1894 -91 
Q 1528 -91 1179 -12 
Q 831 66 488 225 
L 488 1131 
L 838 1131 
Q 869 681 1141 450 
Q 1413 219 1906 219 
Q 2384 219 2661 495 
Q 2938 772 2938 1253 
Q 2938 1803 2653 2086 
Q 2369 2369 1819 2369 
L 1522 2369 
L 1522 2688 
L 1678 2688 
Q 2225 2688 2498 2914 
Q 2772 3141 2772 3597 
Q 2772 4006 2547 4223 
Q 2322 4441 1900 4441 
Q 1478 4441 1245 4241 
Q 1013 4041 972 3647 
L 622 3647 
L 622 4469 
z
" transform="scale(0.015625)"/>
        <path id="DejaVuSerif-35" d="M 3219 4666 
L 3219 4153 
L 1081 4153 
L 1081 2816 
Q 1244 2928 1461 2984 
Q 1678 3041 1947 3041 
Q 2703 3041 3140 2622 
Q 3578 2203 3578 1478 
Q 3578 738 3136 323 
Q 2694 -91 1894 -91 
Q 1572 -91 1234 -12 
Q 897 66 544 225 
L 544 1131 
L 897 1131 
Q 925 688 1179 453 
Q 1434 219 1894 219 
Q 2388 219 2653 544 
Q 2919 869 2919 1478 
Q 2919 2084 2655 2407 
Q 2391 2731 1894 2731 
Q 1613 2731 1398 2631 
Q 1184 2531 1019 2322 
L 750 2322 
L 750 4666 
L 3219 4666 
z
" transform="scale(0.015625)"/>
       </defs>
       <use xlink:href="#DejaVuSerif-33"/>
       <use xlink:href="#DejaVuSerif-35" x="63.623047"/>
      </g>
     </g>
    </g>
    <g id="ytick_2">
     <g id="line2d_17">
      <g>
       <use xlink:href="#md6b31146eb" x="43.718438" y="225.335668" style="stroke: #000000"/>
      </g>
     </g>
     <g id="line2d_18">
      <g>
       <use xlink:href="#mb44713c154" x="325.868438" y="225.335668" style="stroke: #000000"/>
      </g>
     </g>
     <g id="text_10">
      <!-- 40 -->
      <g transform="translate(24.948438 229.89473) scale(0.12 -0.12)">
       <defs>
        <path id="DejaVuSerif-34" d="M 2234 1581 
L 2234 4063 
L 641 1581 
L 2234 1581 
z
M 3609 0 
L 1484 0 
L 1484 331 
L 2234 331 
L 2234 1247 
L 197 1247 
L 197 1588 
L 2241 4750 
L 2859 4750 
L 2859 1581 
L 3750 1581 
L 3750 1247 
L 2859 1247 
L 2859 331 
L 3609 331 
L 3609 0 
z
" transform="scale(0.015625)"/>
        <path id="DejaVuSerif-30" d="M 2034 219 
Q 2513 219 2750 744 
Q 2988 1269 2988 2328 
Q 2988 3391 2750 3916 
Q 2513 4441 2034 4441 
Q 1556 4441 1318 3916 
Q 1081 3391 1081 2328 
Q 1081 1269 1318 744 
Q 1556 219 2034 219 
z
M 2034 -91 
Q 1275 -91 848 546 
Q 422 1184 422 2328 
Q 422 3475 848 4112 
Q 1275 4750 2034 4750 
Q 2797 4750 3222 4112 
Q 3647 3475 3647 2328 
Q 3647 1184 3222 546 
Q 2797 -91 2034 -91 
z
" transform="scale(0.015625)"/>
       </defs>
       <use xlink:href="#DejaVuSerif-34"/>
       <use xlink:href="#DejaVuSerif-30" x="63.623047"/>
      </g>
     </g>
    </g>
    <g id="ytick_3">
     <g id="line2d_19">
      <g>
       <use xlink:href="#md6b31146eb" x="43.718438" y="181.132867" style="stroke: #000000"/>
      </g>
     </g>
     <g id="line2d_20">
      <g>
       <use xlink:href="#mb44713c154" x="325.868438" y="181.132867" style="stroke: #000000"/>
      </g>
     </g>
     <g id="text_11">
      <!-- 45 -->
      <g transform="translate(24.948438 185.69193) scale(0.12 -0.12)">
       <use xlink:href="#DejaVuSerif-34"/>
       <use xlink:href="#DejaVuSerif-35" x="63.623047"/>
      </g>
     </g>
    </g>
    <g id="ytick_4">
     <g id="line2d_21">
      <g>
       <use xlink:href="#md6b31146eb" x="43.718438" y="136.930067" style="stroke: #000000"/>
      </g>
     </g>
     <g id="line2d_22">
      <g>
       <use xlink:href="#mb44713c154" x="325.868438" y="136.930067" style="stroke: #000000"/>
      </g>
     </g>
     <g id="text_12">
      <!-- 50 -->
      <g transform="translate(24.948438 141.48913) scale(0.12 -0.12)">
       <use xlink:href="#DejaVuSerif-35"/>
       <use xlink:href="#DejaVuSerif-30" x="63.623047"/>
      </g>
     </g>
    </g>
    <g id="ytick_5">
     <g id="line2d_23">
      <g>
       <use xlink:href="#md6b31146eb" x="43.718438" y="92.727267" style="stroke: #000000"/>
      </g>
     </g>
     <g id="line2d_24">
      <g>
       <use xlink:href="#mb44713c154" x="325.868438" y="92.727267" style="stroke: #000000"/>
      </g>
     </g>
     <g id="text_13">
      <!-- 55 -->
      <g transform="translate(24.948438 97.286329) scale(0.12 -0.12)">
       <use xlink:href="#DejaVuSerif-35"/>
       <use xlink:href="#DejaVuSerif-35" x="63.623047"/>
      </g>
     </g>
    </g>
    <g id="ytick_6">
     <g id="line2d_25">
      <g>
       <use xlink:href="#md6b31146eb" x="43.718438" y="48.524466" style="stroke: #000000"/>
      </g>
     </g>
     <g id="line2d_26">
      <g>
       <use xlink:href="#mb44713c154" x="325.868438" y="48.524466" style="stroke: #000000"/>
      </g>
     </g>
     <g id="text_14">
      <!-- 60 -->
      <g transform="translate(24.948438 53.083529) scale(0.12 -0.12)">
       <defs>
        <path id="DejaVuSerif-36" d="M 2094 219 
Q 2534 219 2771 542 
Q 3009 866 3009 1472 
Q 3009 2078 2771 2401 
Q 2534 2725 2094 2725 
Q 1647 2725 1412 2412 
Q 1178 2100 1178 1509 
Q 1178 888 1415 553 
Q 1653 219 2094 219 
z
M 1075 2569 
Q 1288 2803 1556 2918 
Q 1825 3034 2163 3034 
Q 2859 3034 3264 2615 
Q 3669 2197 3669 1472 
Q 3669 763 3233 336 
Q 2797 -91 2069 -91 
Q 1278 -91 853 498 
Q 428 1088 428 2181 
Q 428 3406 931 4078 
Q 1434 4750 2350 4750 
Q 2597 4750 2869 4703 
Q 3141 4656 3425 4563 
L 3425 3794 
L 3072 3794 
Q 3034 4109 2831 4275 
Q 2628 4441 2284 4441 
Q 1678 4441 1381 3981 
Q 1084 3522 1075 2569 
z
" transform="scale(0.015625)"/>
       </defs>
       <use xlink:href="#DejaVuSerif-36"/>
       <use xlink:href="#DejaVuSerif-30" x="63.623047"/>
      </g>
     </g>
    </g>
    <g id="text_15">
     <!-- Accuracy@1 (%) -->
     <g transform="translate(17.837813 198.84) rotate(-90) scale(0.14 -0.14)">
      <defs>
       <path id="DejaVuSerif-41" d="M 1281 1691 
L 2994 1691 
L 2138 3909 
L 1281 1691 
z
M -38 0 
L -38 331 
L 372 331 
L 2034 4666 
L 2559 4666 
L 4225 331 
L 4684 331 
L 4684 0 
L 2988 0 
L 2988 331 
L 3506 331 
L 3116 1356 
L 1153 1356 
L 763 331 
L 1275 331 
L 1275 0 
L -38 0 
z
" transform="scale(0.015625)"/>
       <path id="DejaVuSerif-63" d="M 3291 997 
Q 3169 466 2822 187 
Q 2475 -91 1925 -91 
Q 1200 -91 759 389 
Q 319 869 319 1663 
Q 319 2459 759 2936 
Q 1200 3413 1925 3413 
Q 2241 3413 2553 3339 
Q 2866 3266 3181 3116 
L 3181 2266 
L 2847 2266 
Q 2781 2703 2561 2903 
Q 2341 3103 1931 3103 
Q 1466 3103 1228 2742 
Q 991 2381 991 1663 
Q 991 944 1227 581 
Q 1463 219 1931 219 
Q 2303 219 2525 412 
Q 2747 606 2828 997 
L 3291 997 
z
" transform="scale(0.015625)"/>
       <path id="DejaVuSerif-40" d="M 4044 775 
Q 3859 519 3629 394 
Q 3400 269 3109 269 
Q 2563 269 2222 659 
Q 1881 1050 1881 1678 
Q 1881 2306 2222 2695 
Q 2563 3084 3109 3084 
Q 3400 3084 3629 2959 
Q 3859 2834 4044 2578 
L 4044 3022 
L 4531 3022 
L 4531 609 
Q 5063 725 5356 1115 
Q 5650 1506 5650 2094 
Q 5650 2441 5544 2750 
Q 5438 3059 5228 3322 
Q 4897 3738 4420 3958 
Q 3944 4178 3384 4178 
Q 3103 4178 2828 4118 
Q 2553 4059 2284 3938 
Q 1653 3647 1303 3058 
Q 953 2469 953 1697 
Q 953 1175 1109 736 
Q 1266 297 1563 -25 
Q 1903 -397 2370 -592 
Q 2838 -788 3378 -788 
Q 3781 -788 4131 -669 
Q 4481 -550 4781 -313 
L 4947 -531 
Q 4609 -822 4181 -967 
Q 3753 -1113 3244 -1113 
Q 2672 -1113 2151 -905 
Q 1631 -697 1241 -313 
Q 838 84 630 595 
Q 422 1106 422 1697 
Q 422 2272 631 2781 
Q 841 3291 1241 3688 
Q 1638 4081 2177 4293 
Q 2716 4506 3322 4506 
Q 3991 4506 4542 4247 
Q 5094 3988 5466 3500 
Q 5703 3194 5825 2834 
Q 5947 2475 5947 2088 
Q 5947 1250 5437 764 
Q 4928 278 4047 269 
L 4044 775 
z
M 4044 1516 
L 4044 1844 
Q 4044 2234 3820 2476 
Q 3597 2719 3238 2719 
Q 2859 2719 2648 2445 
Q 2438 2172 2438 1678 
Q 2438 1181 2650 907 
Q 2863 634 3244 634 
Q 3600 634 3822 879 
Q 4044 1125 4044 1516 
z
" transform="scale(0.015625)"/>
       <path id="DejaVuSerif-31" d="M 909 0 
L 909 331 
L 1722 331 
L 1722 4213 
L 781 3603 
L 781 4013 
L 1919 4750 
L 2350 4750 
L 2350 331 
L 3163 331 
L 3163 0 
L 909 0 
z
" transform="scale(0.015625)"/>
       <path id="DejaVuSerif-28" d="M 2041 -997 
Q 1281 -656 893 83 
Q 506 822 506 1931 
Q 506 3044 893 3783 
Q 1281 4522 2041 4863 
L 2041 4556 
Q 1559 4225 1350 3623 
Q 1141 3022 1141 1931 
Q 1141 844 1350 242 
Q 1559 -359 2041 -691 
L 2041 -997 
z
" transform="scale(0.015625)"/>
       <path id="DejaVuSerif-25" d="M 1434 4459 
Q 1159 4459 1004 4200 
Q 850 3941 850 3475 
Q 850 3016 1008 2753 
Q 1166 2491 1434 2491 
Q 1700 2491 1854 2752 
Q 2009 3013 2009 3475 
Q 2009 3938 1854 4198 
Q 1700 4459 1434 4459 
z
M 4653 2169 
Q 4381 2169 4226 1906 
Q 4072 1644 4072 1178 
Q 4072 719 4228 458 
Q 4384 197 4653 197 
Q 4922 197 5075 458 
Q 5228 719 5228 1178 
Q 5228 1641 5073 1905 
Q 4919 2169 4653 2169 
z
M 4653 2450 
Q 5147 2450 5437 2106 
Q 5728 1763 5728 1178 
Q 5728 594 5436 251 
Q 5144 -91 4653 -91 
Q 4153 -91 3862 251 
Q 3572 594 3572 1178 
Q 3572 1766 3864 2108 
Q 4156 2450 4653 2450 
z
M 4263 4750 
L 4738 4750 
L 1819 -91 
L 1344 -91 
L 4263 4750 
z
M 1428 4750 
Q 1922 4750 2215 4408 
Q 2509 4066 2509 3481 
Q 2509 2891 2217 2550 
Q 1925 2209 1428 2209 
Q 931 2209 642 2551 
Q 353 2894 353 3481 
Q 353 4063 643 4406 
Q 934 4750 1428 4750 
z
" transform="scale(0.015625)"/>
       <path id="DejaVuSerif-29" d="M 453 -997 
L 453 -691 
Q 934 -359 1145 242 
Q 1356 844 1356 1931 
Q 1356 3022 1145 3623 
Q 934 4225 453 4556 
L 453 4863 
Q 1216 4522 1603 3783 
Q 1991 3044 1991 1931 
Q 1991 822 1603 83 
Q 1216 -656 453 -997 
z
" transform="scale(0.015625)"/>
      </defs>
      <use xlink:href="#DejaVuSerif-41"/>
      <use xlink:href="#DejaVuSerif-63" x="72.216797"/>
      <use xlink:href="#DejaVuSerif-63" x="128.222656"/>
      <use xlink:href="#DejaVuSerif-75" x="184.228516"/>
      <use xlink:href="#DejaVuSerif-72" x="248.632812"/>
      <use xlink:href="#DejaVuSerif-61" x="296.435547"/>
      <use xlink:href="#DejaVuSerif-63" x="356.054688"/>
      <use xlink:href="#DejaVuSerif-79" x="412.060547"/>
      <use xlink:href="#DejaVuSerif-40" x="468.554688"/>
      <use xlink:href="#DejaVuSerif-31" x="568.554688"/>
      <use xlink:href="#DejaVuSerif-20" x="632.177734"/>
      <use xlink:href="#DejaVuSerif-28" x="663.964844"/>
      <use xlink:href="#DejaVuSerif-25" x="702.978516"/>
      <use xlink:href="#DejaVuSerif-29" x="797.998047"/>
     </g>
    </g>
   </g>
   <g id="patch_10">
    <path d="M 43.718438 273.3 
L 43.718438 7.2 
" style="fill: none; stroke: #000000; stroke-linejoin: miter; stroke-linecap: square"/>
   </g>
   <g id="patch_11">
    <path d="M 325.868438 273.3 
L 325.868438 7.2 
" style="fill: none; stroke: #000000; stroke-linejoin: miter; stroke-linecap: square"/>
   </g>
   <g id="patch_12">
    <path d="M 43.718438 273.3 
L 325.868438 273.3 
" style="fill: none; stroke: #000000; stroke-linejoin: miter; stroke-linecap: square"/>
   </g>
   <g id="patch_13">
    <path d="M 43.718438 7.2 
L 325.868438 7.2 
" style="fill: none; stroke: #000000; stroke-linejoin: miter; stroke-linecap: square"/>
   </g>
   <g id="text_16">
    <!-- 53.5 -->
    <g transform="translate(59.92316 100.837035) scale(0.09 -0.09)">
     <defs>
      <path id="DejaVuSerif-2e" d="M 603 325 
Q 603 500 722 622 
Q 841 744 1019 744 
Q 1191 744 1312 622 
Q 1434 500 1434 325 
Q 1434 153 1312 31 
Q 1191 -91 1019 -91 
Q 841 -91 722 29 
Q 603 150 603 325 
z
" transform="scale(0.015625)"/>
     </defs>
     <use xlink:href="#DejaVuSerif-35"/>
     <use xlink:href="#DejaVuSerif-33" x="63.623047"/>
     <use xlink:href="#DejaVuSerif-2e" x="127.246094"/>
     <use xlink:href="#DejaVuSerif-35" x="159.033203"/>
    </g>
   </g>
   <g id="text_17">
    <!-- 53.2 -->
    <g transform="translate(98.206742 103.594398) scale(0.09 -0.09)">
     <defs>
      <path id="DejaVuSerif-32" d="M 819 3553 
L 469 3553 
L 469 4384 
Q 803 4563 1142 4656 
Q 1481 4750 1806 4750 
Q 2534 4750 2956 4397 
Q 3378 4044 3378 3438 
Q 3378 2753 2422 1800 
Q 2347 1728 2309 1691 
L 1131 513 
L 3078 513 
L 3078 1088 
L 3444 1088 
L 3444 0 
L 434 0 
L 434 341 
L 1850 1753 
Q 2319 2222 2519 2614 
Q 2719 3006 2719 3438 
Q 2719 3909 2473 4175 
Q 2228 4441 1797 4441 
Q 1350 4441 1106 4219 
Q 863 3997 819 3553 
z
" transform="scale(0.015625)"/>
     </defs>
     <use xlink:href="#DejaVuSerif-35"/>
     <use xlink:href="#DejaVuSerif-33" x="63.623047"/>
     <use xlink:href="#DejaVuSerif-2e" x="127.246094"/>
     <use xlink:href="#DejaVuSerif-32" x="159.033203"/>
    </g>
   </g>
   <g id="text_18">
    <!-- 59.9 -->
    <g transform="translate(136.490324 44.680731) scale(0.09 -0.09)">
     <defs>
      <path id="DejaVuSerif-39" d="M 2994 2091 
Q 2784 1856 2512 1740 
Q 2241 1625 1900 1625 
Q 1206 1625 804 2044 
Q 403 2463 403 3188 
Q 403 3897 839 4323 
Q 1275 4750 2003 4750 
Q 2794 4750 3217 4161 
Q 3641 3572 3641 2478 
Q 3641 1253 3137 581 
Q 2634 -91 1722 -91 
Q 1475 -91 1203 -44 
Q 931 3 647 97 
L 647 872 
L 997 872 
Q 1038 556 1241 387 
Q 1444 219 1784 219 
Q 2391 219 2687 676 
Q 2984 1134 2994 2091 
z
M 1978 4441 
Q 1534 4441 1298 4117 
Q 1063 3794 1063 3188 
Q 1063 2581 1298 2256 
Q 1534 1931 1978 1931 
Q 2422 1931 2658 2245 
Q 2894 2559 2894 3150 
Q 2894 3772 2656 4106 
Q 2419 4441 1978 4441 
z
" transform="scale(0.015625)"/>
     </defs>
     <use xlink:href="#DejaVuSerif-35"/>
     <use xlink:href="#DejaVuSerif-39" x="63.623047"/>
     <use xlink:href="#DejaVuSerif-2e" x="127.246094"/>
     <use xlink:href="#DejaVuSerif-39" x="159.033203"/>
    </g>
   </g>
   <g id="text_19">
    <!-- 56.2 -->
    <g transform="translate(174.773906 76.907759) scale(0.09 -0.09)">
     <use xlink:href="#DejaVuSerif-35"/>
     <use xlink:href="#DejaVuSerif-36" x="63.623047"/>
     <use xlink:href="#DejaVuSerif-2e" x="127.246094"/>
     <use xlink:href="#DejaVuSerif-32" x="159.033203"/>
    </g>
   </g>
   <g id="text_20">
    <!-- 53.5 -->
    <g transform="translate(213.057488 101.099187) scale(0.09 -0.09)">
     <use xlink:href="#DejaVuSerif-35"/>
     <use xlink:href="#DejaVuSerif-33" x="63.623047"/>
     <use xlink:href="#DejaVuSerif-2e" x="127.246094"/>
     <use xlink:href="#DejaVuSerif-35" x="159.033203"/>
    </g>
   </g>
   <g id="text_21">
    <!-- 37.6 -->
    <g transform="translate(251.34107 241.849319) scale(0.09 -0.09)">
     <defs>
      <path id="DejaVuSerif-37" d="M 3609 4347 
L 1784 0 
L 1319 0 
L 3059 4153 
L 903 4153 
L 903 3578 
L 538 3578 
L 538 4666 
L 3609 4666 
L 3609 4347 
z
" transform="scale(0.015625)"/>
     </defs>
     <use xlink:href="#DejaVuSerif-33"/>
     <use xlink:href="#DejaVuSerif-37" x="63.623047"/>
     <use xlink:href="#DejaVuSerif-2e" x="127.246094"/>
     <use xlink:href="#DejaVuSerif-36" x="159.033203"/>
    </g>
   </g>
   <g id="text_22">
    <!-- 42.1 -->
    <g transform="translate(289.624653 201.737632) scale(0.09 -0.09)">
     <use xlink:href="#DejaVuSerif-34"/>
     <use xlink:href="#DejaVuSerif-32" x="63.623047"/>
     <use xlink:href="#DejaVuSerif-2e" x="127.246094"/>
     <use xlink:href="#DejaVuSerif-31" x="159.033203"/>
    </g>
   </g>
  </g>
  <g id="axes_2">
   <g id="patch_14">
    <path d="M 375.398438 273.3 
L 657.548437 273.3 
L 657.548437 7.2 
L 375.398438 7.2 
z
" style="fill: #ffffff"/>
   </g>
   <g id="patch_15">
    <path d="M 388.223438 745.137351 
L 415.021945 745.137351 
L 415.021945 61.862026 
L 388.223438 61.862026 
z
" clip-path="url(#p4941f61ed8)" style="fill: url(#h9cf470d530); stroke: #008000; stroke-width: 1.5; stroke-linejoin: miter"/>
   </g>
   <g id="patch_16">
    <path d="M 426.50702 745.137351 
L 453.305527 745.137351 
L 453.305527 110.903192 
L 426.50702 110.903192 
z
" clip-path="url(#p4941f61ed8)" style="fill: url(#h9cf470d530); stroke: #008000; stroke-width: 1.5; stroke-linejoin: miter"/>
   </g>
   <g id="patch_17">
    <path d="M 464.790602 745.137351 
L 491.589109 745.137351 
L 491.589109 97.628517 
L 464.790602 97.628517 
z
" clip-path="url(#p4941f61ed8)" style="fill: url(#h9cf470d530); stroke: #008000; stroke-width: 1.5; stroke-linejoin: miter"/>
   </g>
   <g id="patch_18">
    <path d="M 503.074184 745.137351 
L 529.872691 745.137351 
L 529.872691 98.856293 
L 503.074184 98.856293 
z
" clip-path="url(#p4941f61ed8)" style="fill: url(#h9cf470d530); stroke: #008000; stroke-width: 1.5; stroke-linejoin: miter"/>
   </g>
   <g id="patch_19">
    <path d="M 541.357766 745.137351 
L 568.156273 745.137351 
L 568.156273 121.761646 
L 541.357766 121.761646 
z
" clip-path="url(#p4941f61ed8)" style="fill: url(#h9cf470d530); stroke: #008000; stroke-width: 1.5; stroke-linejoin: miter"/>
   </g>
   <g id="patch_20">
    <path d="M 579.641348 745.137351 
L 606.439855 745.137351 
L 606.439855 232.270665 
L 579.641348 232.270665 
z
" clip-path="url(#p4941f61ed8)" style="fill: url(#h567765487c); stroke: #ffa500; stroke-width: 1.5; stroke-linejoin: miter"/>
   </g>
   <g id="patch_21">
    <path d="M 617.92493 745.137351 
L 644.723437 745.137351 
L 644.723437 197.758896 
L 617.92493 197.758896 
z
" clip-path="url(#p4941f61ed8)" style="fill: url(#h567765487c); stroke: #ffa500; stroke-width: 1.5; stroke-linejoin: miter"/>
   </g>
   <g id="matplotlib.axis_3">
    <g id="xtick_8">
     <g id="line2d_27">
      <g>
       <use xlink:href="#me8113b2e8f" x="401.622691" y="273.3" style="stroke: #000000"/>
      </g>
     </g>
     <g id="line2d_28">
      <g>
       <use xlink:href="#m8e72f5d520" x="401.622691" y="7.2" style="stroke: #000000"/>
      </g>
     </g>
     <g id="text_23">
      <!-- Mon -->
      <g transform="translate(388.002691 285.918125) scale(0.12 -0.12)">
       <use xlink:href="#DejaVuSerif-4d"/>
       <use xlink:href="#DejaVuSerif-6f" x="102.392578"/>
       <use xlink:href="#DejaVuSerif-6e" x="162.597656"/>
      </g>
     </g>
    </g>
    <g id="xtick_9">
     <g id="line2d_29">
      <g>
       <use xlink:href="#me8113b2e8f" x="439.906273" y="273.3" style="stroke: #000000"/>
      </g>
     </g>
     <g id="line2d_30">
      <g>
       <use xlink:href="#m8e72f5d520" x="439.906273" y="7.2" style="stroke: #000000"/>
      </g>
     </g>
     <g id="text_24">
      <!-- Tue -->
      <g transform="translate(428.488461 285.918125) scale(0.12 -0.12)">
       <use xlink:href="#DejaVuSerif-54"/>
       <use xlink:href="#DejaVuSerif-75" x="66.699219"/>
       <use xlink:href="#DejaVuSerif-65" x="131.103516"/>
      </g>
     </g>
    </g>
    <g id="xtick_10">
     <g id="line2d_31">
      <g>
       <use xlink:href="#me8113b2e8f" x="478.189855" y="273.3" style="stroke: #000000"/>
      </g>
     </g>
     <g id="line2d_32">
      <g>
       <use xlink:href="#m8e72f5d520" x="478.189855" y="7.2" style="stroke: #000000"/>
      </g>
     </g>
     <g id="text_25">
      <!-- Wed -->
      <g transform="translate(465.118293 285.918125) scale(0.12 -0.12)">
       <use xlink:href="#DejaVuSerif-57"/>
       <use xlink:href="#DejaVuSerif-65" x="94.658203"/>
       <use xlink:href="#DejaVuSerif-64" x="153.837891"/>
      </g>
     </g>
    </g>
    <g id="xtick_11">
     <g id="line2d_33">
      <g>
       <use xlink:href="#me8113b2e8f" x="516.473438" y="273.3" style="stroke: #000000"/>
      </g>
     </g>
     <g id="line2d_34">
      <g>
       <use xlink:href="#m8e72f5d520" x="516.473438" y="7.2" style="stroke: #000000"/>
      </g>
     </g>
     <g id="text_26">
      <!-- Thu -->
      <g transform="translate(504.7425 285.918125) scale(0.12 -0.12)">
       <use xlink:href="#DejaVuSerif-54"/>
       <use xlink:href="#DejaVuSerif-68" x="66.699219"/>
       <use xlink:href="#DejaVuSerif-75" x="131.103516"/>
      </g>
     </g>
    </g>
    <g id="xtick_12">
     <g id="line2d_35">
      <g>
       <use xlink:href="#me8113b2e8f" x="554.75702" y="273.3" style="stroke: #000000"/>
      </g>
     </g>
     <g id="line2d_36">
      <g>
       <use xlink:href="#m8e72f5d520" x="554.75702" y="7.2" style="stroke: #000000"/>
      </g>
     </g>
     <g id="text_27">
      <!-- Fri -->
      <g transform="translate(545.806707 285.918125) scale(0.12 -0.12)">
       <use xlink:href="#DejaVuSerif-46"/>
       <use xlink:href="#DejaVuSerif-72" x="69.384766"/>
       <use xlink:href="#DejaVuSerif-69" x="117.1875"/>
      </g>
     </g>
    </g>
    <g id="xtick_13">
     <g id="line2d_37">
      <g>
       <use xlink:href="#me8113b2e8f" x="593.040602" y="273.3" style="stroke: #000000"/>
      </g>
     </g>
     <g id="line2d_38">
      <g>
       <use xlink:href="#m8e72f5d520" x="593.040602" y="7.2" style="stroke: #000000"/>
      </g>
     </g>
     <g id="text_28">
      <!-- Sat -->
      <g transform="translate(582.941852 285.918125) scale(0.12 -0.12)">
       <use xlink:href="#DejaVuSerif-53"/>
       <use xlink:href="#DejaVuSerif-61" x="68.505859"/>
       <use xlink:href="#DejaVuSerif-74" x="128.125"/>
      </g>
     </g>
    </g>
    <g id="xtick_14">
     <g id="line2d_39">
      <g>
       <use xlink:href="#me8113b2e8f" x="631.324184" y="273.3" style="stroke: #000000"/>
      </g>
     </g>
     <g id="line2d_40">
      <g>
       <use xlink:href="#m8e72f5d520" x="631.324184" y="7.2" style="stroke: #000000"/>
      </g>
     </g>
     <g id="text_29">
      <!-- Sun -->
      <g transform="translate(619.485434 285.918125) scale(0.12 -0.12)">
       <use xlink:href="#DejaVuSerif-53"/>
       <use xlink:href="#DejaVuSerif-75" x="68.505859"/>
       <use xlink:href="#DejaVuSerif-6e" x="132.910156"/>
      </g>
     </g>
    </g>
    <g id="text_30">
     <!-- Day of Week -->
     <g transform="translate(472.324219 303.051562) scale(0.14 -0.14)">
      <use xlink:href="#DejaVuSerif-44"/>
      <use xlink:href="#DejaVuSerif-61" x="80.175781"/>
      <use xlink:href="#DejaVuSerif-79" x="139.794922"/>
      <use xlink:href="#DejaVuSerif-20" x="196.289062"/>
      <use xlink:href="#DejaVuSerif-6f" x="228.076172"/>
      <use xlink:href="#DejaVuSerif-66" x="288.28125"/>
      <use xlink:href="#DejaVuSerif-20" x="325.292969"/>
      <use xlink:href="#DejaVuSerif-57" x="357.080078"/>
      <use xlink:href="#DejaVuSerif-65" x="451.738281"/>
      <use xlink:href="#DejaVuSerif-65" x="510.917969"/>
      <use xlink:href="#DejaVuSerif-6b" x="570.097656"/>
     </g>
    </g>
   </g>
   <g id="matplotlib.axis_4">
    <g id="ytick_7">
     <g id="line2d_41">
      <g>
       <use xlink:href="#md6b31146eb" x="375.398438" y="250.434695" style="stroke: #000000"/>
      </g>
     </g>
     <g id="line2d_42">
      <g>
       <use xlink:href="#mb44713c154" x="657.548437" y="250.434695" style="stroke: #000000"/>
      </g>
     </g>
     <g id="text_31">
      <!-- 65 -->
      <g transform="translate(356.628438 254.993758) scale(0.12 -0.12)">
       <use xlink:href="#DejaVuSerif-36"/>
       <use xlink:href="#DejaVuSerif-35" x="63.623047"/>
      </g>
     </g>
    </g>
    <g id="ytick_8">
     <g id="line2d_43">
      <g>
       <use xlink:href="#md6b31146eb" x="375.398438" y="212.380645" style="stroke: #000000"/>
      </g>
     </g>
     <g id="line2d_44">
      <g>
       <use xlink:href="#mb44713c154" x="657.548437" y="212.380645" style="stroke: #000000"/>
      </g>
     </g>
     <g id="text_32">
      <!-- 70 -->
      <g transform="translate(356.628438 216.939707) scale(0.12 -0.12)">
       <use xlink:href="#DejaVuSerif-37"/>
       <use xlink:href="#DejaVuSerif-30" x="63.623047"/>
      </g>
     </g>
    </g>
    <g id="ytick_9">
     <g id="line2d_45">
      <g>
       <use xlink:href="#md6b31146eb" x="375.398438" y="174.326594" style="stroke: #000000"/>
      </g>
     </g>
     <g id="line2d_46">
      <g>
       <use xlink:href="#mb44713c154" x="657.548437" y="174.326594" style="stroke: #000000"/>
      </g>
     </g>
     <g id="text_33">
      <!-- 75 -->
      <g transform="translate(356.628438 178.885657) scale(0.12 -0.12)">
       <use xlink:href="#DejaVuSerif-37"/>
       <use xlink:href="#DejaVuSerif-35" x="63.623047"/>
      </g>
     </g>
    </g>
    <g id="ytick_10">
     <g id="line2d_47">
      <g>
       <use xlink:href="#md6b31146eb" x="375.398438" y="136.272544" style="stroke: #000000"/>
      </g>
     </g>
     <g id="line2d_48">
      <g>
       <use xlink:href="#mb44713c154" x="657.548437" y="136.272544" style="stroke: #000000"/>
      </g>
     </g>
     <g id="text_34">
      <!-- 80 -->
      <g transform="translate(356.628438 140.831606) scale(0.12 -0.12)">
       <defs>
        <path id="DejaVuSerif-38" d="M 2981 1275 
Q 2981 1775 2732 2051 
Q 2484 2328 2034 2328 
Q 1584 2328 1336 2051 
Q 1088 1775 1088 1275 
Q 1088 772 1336 495 
Q 1584 219 2034 219 
Q 2484 219 2732 495 
Q 2981 772 2981 1275 
z
M 2853 3541 
Q 2853 3966 2637 4203 
Q 2422 4441 2034 4441 
Q 1650 4441 1433 4203 
Q 1216 3966 1216 3541 
Q 1216 3113 1433 2875 
Q 1650 2638 2034 2638 
Q 2422 2638 2637 2875 
Q 2853 3113 2853 3541 
z
M 2516 2484 
Q 3047 2413 3344 2092 
Q 3641 1772 3641 1275 
Q 3641 619 3225 264 
Q 2809 -91 2034 -91 
Q 1263 -91 845 264 
Q 428 619 428 1275 
Q 428 1772 725 2092 
Q 1022 2413 1556 2484 
Q 1084 2569 832 2842 
Q 581 3116 581 3541 
Q 581 4103 968 4426 
Q 1356 4750 2034 4750 
Q 2713 4750 3100 4426 
Q 3488 4103 3488 3541 
Q 3488 3116 3236 2842 
Q 2984 2569 2516 2484 
z
" transform="scale(0.015625)"/>
       </defs>
       <use xlink:href="#DejaVuSerif-38"/>
       <use xlink:href="#DejaVuSerif-30" x="63.623047"/>
      </g>
     </g>
    </g>
    <g id="ytick_11">
     <g id="line2d_49">
      <g>
       <use xlink:href="#md6b31146eb" x="375.398438" y="98.218493" style="stroke: #000000"/>
      </g>
     </g>
     <g id="line2d_50">
      <g>
       <use xlink:href="#mb44713c154" x="657.548437" y="98.218493" style="stroke: #000000"/>
      </g>
     </g>
     <g id="text_35">
      <!-- 85 -->
      <g transform="translate(356.628438 102.777556) scale(0.12 -0.12)">
       <use xlink:href="#DejaVuSerif-38"/>
       <use xlink:href="#DejaVuSerif-35" x="63.623047"/>
      </g>
     </g>
    </g>
    <g id="ytick_12">
     <g id="line2d_51">
      <g>
       <use xlink:href="#md6b31146eb" x="375.398438" y="60.164443" style="stroke: #000000"/>
      </g>
     </g>
     <g id="line2d_52">
      <g>
       <use xlink:href="#mb44713c154" x="657.548437" y="60.164443" style="stroke: #000000"/>
      </g>
     </g>
     <g id="text_36">
      <!-- 90 -->
      <g transform="translate(356.628438 64.723506) scale(0.12 -0.12)">
       <use xlink:href="#DejaVuSerif-39"/>
       <use xlink:href="#DejaVuSerif-30" x="63.623047"/>
      </g>
     </g>
    </g>
    <g id="ytick_13">
     <g id="line2d_53">
      <g>
       <use xlink:href="#md6b31146eb" x="375.398438" y="22.110393" style="stroke: #000000"/>
      </g>
     </g>
     <g id="line2d_54">
      <g>
       <use xlink:href="#mb44713c154" x="657.548437" y="22.110393" style="stroke: #000000"/>
      </g>
     </g>
     <g id="text_37">
      <!-- 95 -->
      <g transform="translate(356.628438 26.669455) scale(0.12 -0.12)">
       <use xlink:href="#DejaVuSerif-39"/>
       <use xlink:href="#DejaVuSerif-35" x="63.623047"/>
      </g>
     </g>
    </g>
    <g id="text_38">
     <!-- Accuracy@5 (%) -->
     <g transform="translate(349.517812 198.84) rotate(-90) scale(0.14 -0.14)">
      <use xlink:href="#DejaVuSerif-41"/>
      <use xlink:href="#DejaVuSerif-63" x="72.216797"/>
      <use xlink:href="#DejaVuSerif-63" x="128.222656"/>
      <use xlink:href="#DejaVuSerif-75" x="184.228516"/>
      <use xlink:href="#DejaVuSerif-72" x="248.632812"/>
      <use xlink:href="#DejaVuSerif-61" x="296.435547"/>
      <use xlink:href="#DejaVuSerif-63" x="356.054688"/>
      <use xlink:href="#DejaVuSerif-79" x="412.060547"/>
      <use xlink:href="#DejaVuSerif-40" x="468.554688"/>
      <use xlink:href="#DejaVuSerif-35" x="568.554688"/>
      <use xlink:href="#DejaVuSerif-20" x="632.177734"/>
      <use xlink:href="#DejaVuSerif-28" x="663.964844"/>
      <use xlink:href="#DejaVuSerif-25" x="702.978516"/>
      <use xlink:href="#DejaVuSerif-29" x="797.998047"/>
     </g>
    </g>
   </g>
   <g id="patch_22">
    <path d="M 375.398438 273.3 
L 375.398438 7.2 
" style="fill: none; stroke: #000000; stroke-linejoin: miter; stroke-linecap: square"/>
   </g>
   <g id="patch_23">
    <path d="M 657.548437 273.3 
L 657.548437 7.2 
" style="fill: none; stroke: #000000; stroke-linejoin: miter; stroke-linecap: square"/>
   </g>
   <g id="patch_24">
    <path d="M 375.398438 273.3 
L 657.548437 273.3 
" style="fill: none; stroke: #000000; stroke-linejoin: miter; stroke-linecap: square"/>
   </g>
   <g id="patch_25">
    <path d="M 375.398438 7.2 
L 657.548437 7.2 
" style="fill: none; stroke: #000000; stroke-linejoin: miter; stroke-linecap: square"/>
   </g>
   <g id="text_39">
    <!-- 89.8 -->
    <g transform="translate(391.60316 56.990307) scale(0.09 -0.09)">
     <use xlink:href="#DejaVuSerif-38"/>
     <use xlink:href="#DejaVuSerif-39" x="63.623047"/>
     <use xlink:href="#DejaVuSerif-2e" x="127.246094"/>
     <use xlink:href="#DejaVuSerif-38" x="159.033203"/>
    </g>
   </g>
   <g id="text_40">
    <!-- 83.3 -->
    <g transform="translate(429.886742 106.031473) scale(0.09 -0.09)">
     <use xlink:href="#DejaVuSerif-38"/>
     <use xlink:href="#DejaVuSerif-33" x="63.623047"/>
     <use xlink:href="#DejaVuSerif-2e" x="127.246094"/>
     <use xlink:href="#DejaVuSerif-33" x="159.033203"/>
    </g>
   </g>
   <g id="text_41">
    <!-- 85.1 -->
    <g transform="translate(468.170324 92.756798) scale(0.09 -0.09)">
     <use xlink:href="#DejaVuSerif-38"/>
     <use xlink:href="#DejaVuSerif-35" x="63.623047"/>
     <use xlink:href="#DejaVuSerif-2e" x="127.246094"/>
     <use xlink:href="#DejaVuSerif-31" x="159.033203"/>
    </g>
   </g>
   <g id="text_42">
    <!-- 84.9 -->
    <g transform="translate(506.453906 93.984574) scale(0.09 -0.09)">
     <use xlink:href="#DejaVuSerif-38"/>
     <use xlink:href="#DejaVuSerif-34" x="63.623047"/>
     <use xlink:href="#DejaVuSerif-2e" x="127.246094"/>
     <use xlink:href="#DejaVuSerif-39" x="159.033203"/>
    </g>
   </g>
   <g id="text_43">
    <!-- 81.9 -->
    <g transform="translate(544.737488 116.889928) scale(0.09 -0.09)">
     <use xlink:href="#DejaVuSerif-38"/>
     <use xlink:href="#DejaVuSerif-31" x="63.623047"/>
     <use xlink:href="#DejaVuSerif-2e" x="127.246094"/>
     <use xlink:href="#DejaVuSerif-39" x="159.033203"/>
    </g>
   </g>
   <g id="text_44">
    <!-- 67.4 -->
    <g transform="translate(583.02107 227.398946) scale(0.09 -0.09)">
     <use xlink:href="#DejaVuSerif-36"/>
     <use xlink:href="#DejaVuSerif-37" x="63.623047"/>
     <use xlink:href="#DejaVuSerif-2e" x="127.246094"/>
     <use xlink:href="#DejaVuSerif-34" x="159.033203"/>
    </g>
   </g>
   <g id="text_45">
    <!-- 71.9 -->
    <g transform="translate(621.304653 192.887177) scale(0.09 -0.09)">
     <use xlink:href="#DejaVuSerif-37"/>
     <use xlink:href="#DejaVuSerif-31" x="63.623047"/>
     <use xlink:href="#DejaVuSerif-2e" x="127.246094"/>
     <use xlink:href="#DejaVuSerif-39" x="159.033203"/>
    </g>
   </g>
  </g>
  <g id="axes_3">
   <g id="patch_26">
    <path d="M 707.078437 273.3 
L 989.228437 273.3 
L 989.228437 7.2 
L 707.078437 7.2 
z
" style="fill: #ffffff"/>
   </g>
   <g id="patch_27">
    <path d="M 719.903437 842.067931 
L 746.701945 842.067931 
L 746.701945 69.042069 
L 719.903437 69.042069 
z
" clip-path="url(#pabc219795b)" style="fill: url(#h9cf470d530); stroke: #008000; stroke-width: 1.5; stroke-linejoin: miter"/>
   </g>
   <g id="patch_28">
    <path d="M 758.18702 842.067931 
L 784.985527 842.067931 
L 784.985527 113.3967 
L 758.18702 113.3967 
z
" clip-path="url(#pabc219795b)" style="fill: url(#h9cf470d530); stroke: #008000; stroke-width: 1.5; stroke-linejoin: miter"/>
   </g>
   <g id="patch_29">
    <path d="M 796.470602 842.067931 
L 823.269109 842.067931 
L 823.269109 94.819312 
L 796.470602 94.819312 
z
" clip-path="url(#pabc219795b)" style="fill: url(#h9cf470d530); stroke: #008000; stroke-width: 1.5; stroke-linejoin: miter"/>
   </g>
   <g id="patch_30">
    <path d="M 834.754184 842.067931 
L 861.552691 842.067931 
L 861.552691 102.092933 
L 834.754184 102.092933 
z
" clip-path="url(#pabc219795b)" style="fill: url(#h9cf470d530); stroke: #008000; stroke-width: 1.5; stroke-linejoin: miter"/>
   </g>
   <g id="patch_31">
    <path d="M 873.037766 842.067931 
L 899.836273 842.067931 
L 899.836273 114.842281 
L 873.037766 114.842281 
z
" clip-path="url(#pabc219795b)" style="fill: url(#h9cf470d530); stroke: #008000; stroke-width: 1.5; stroke-linejoin: miter"/>
   </g>
   <g id="patch_32">
    <path d="M 911.321348 842.067931 
L 938.119855 842.067931 
L 938.119855 223.841919 
L 911.321348 223.841919 
z
" clip-path="url(#pabc219795b)" style="fill: url(#h567765487c); stroke: #ffa500; stroke-width: 1.5; stroke-linejoin: miter"/>
   </g>
   <g id="patch_33">
    <path d="M 949.60493 842.067931 
L 976.403437 842.067931 
L 976.403437 193.033643 
L 949.60493 193.033643 
z
" clip-path="url(#pabc219795b)" style="fill: url(#h567765487c); stroke: #ffa500; stroke-width: 1.5; stroke-linejoin: miter"/>
   </g>
   <g id="matplotlib.axis_5">
    <g id="xtick_15">
     <g id="line2d_55">
      <g>
       <use xlink:href="#me8113b2e8f" x="733.302691" y="273.3" style="stroke: #000000"/>
      </g>
     </g>
     <g id="line2d_56">
      <g>
       <use xlink:href="#m8e72f5d520" x="733.302691" y="7.2" style="stroke: #000000"/>
      </g>
     </g>
     <g id="text_46">
      <!-- Mon -->
      <g transform="translate(719.682691 285.918125) scale(0.12 -0.12)">
       <use xlink:href="#DejaVuSerif-4d"/>
       <use xlink:href="#DejaVuSerif-6f" x="102.392578"/>
       <use xlink:href="#DejaVuSerif-6e" x="162.597656"/>
      </g>
     </g>
    </g>
    <g id="xtick_16">
     <g id="line2d_57">
      <g>
       <use xlink:href="#me8113b2e8f" x="771.586273" y="273.3" style="stroke: #000000"/>
      </g>
     </g>
     <g id="line2d_58">
      <g>
       <use xlink:href="#m8e72f5d520" x="771.586273" y="7.2" style="stroke: #000000"/>
      </g>
     </g>
     <g id="text_47">
      <!-- Tue -->
      <g transform="translate(760.168461 285.918125) scale(0.12 -0.12)">
       <use xlink:href="#DejaVuSerif-54"/>
       <use xlink:href="#DejaVuSerif-75" x="66.699219"/>
       <use xlink:href="#DejaVuSerif-65" x="131.103516"/>
      </g>
     </g>
    </g>
    <g id="xtick_17">
     <g id="line2d_59">
      <g>
       <use xlink:href="#me8113b2e8f" x="809.869855" y="273.3" style="stroke: #000000"/>
      </g>
     </g>
     <g id="line2d_60">
      <g>
       <use xlink:href="#m8e72f5d520" x="809.869855" y="7.2" style="stroke: #000000"/>
      </g>
     </g>
     <g id="text_48">
      <!-- Wed -->
      <g transform="translate(796.798293 285.918125) scale(0.12 -0.12)">
       <use xlink:href="#DejaVuSerif-57"/>
       <use xlink:href="#DejaVuSerif-65" x="94.658203"/>
       <use xlink:href="#DejaVuSerif-64" x="153.837891"/>
      </g>
     </g>
    </g>
    <g id="xtick_18">
     <g id="line2d_61">
      <g>
       <use xlink:href="#me8113b2e8f" x="848.153437" y="273.3" style="stroke: #000000"/>
      </g>
     </g>
     <g id="line2d_62">
      <g>
       <use xlink:href="#m8e72f5d520" x="848.153437" y="7.2" style="stroke: #000000"/>
      </g>
     </g>
     <g id="text_49">
      <!-- Thu -->
      <g transform="translate(836.4225 285.918125) scale(0.12 -0.12)">
       <use xlink:href="#DejaVuSerif-54"/>
       <use xlink:href="#DejaVuSerif-68" x="66.699219"/>
       <use xlink:href="#DejaVuSerif-75" x="131.103516"/>
      </g>
     </g>
    </g>
    <g id="xtick_19">
     <g id="line2d_63">
      <g>
       <use xlink:href="#me8113b2e8f" x="886.43702" y="273.3" style="stroke: #000000"/>
      </g>
     </g>
     <g id="line2d_64">
      <g>
       <use xlink:href="#m8e72f5d520" x="886.43702" y="7.2" style="stroke: #000000"/>
      </g>
     </g>
     <g id="text_50">
      <!-- Fri -->
      <g transform="translate(877.486707 285.918125) scale(0.12 -0.12)">
       <use xlink:href="#DejaVuSerif-46"/>
       <use xlink:href="#DejaVuSerif-72" x="69.384766"/>
       <use xlink:href="#DejaVuSerif-69" x="117.1875"/>
      </g>
     </g>
    </g>
    <g id="xtick_20">
     <g id="line2d_65">
      <g>
       <use xlink:href="#me8113b2e8f" x="924.720602" y="273.3" style="stroke: #000000"/>
      </g>
     </g>
     <g id="line2d_66">
      <g>
       <use xlink:href="#m8e72f5d520" x="924.720602" y="7.2" style="stroke: #000000"/>
      </g>
     </g>
     <g id="text_51">
      <!-- Sat -->
      <g transform="translate(914.621852 285.918125) scale(0.12 -0.12)">
       <use xlink:href="#DejaVuSerif-53"/>
       <use xlink:href="#DejaVuSerif-61" x="68.505859"/>
       <use xlink:href="#DejaVuSerif-74" x="128.125"/>
      </g>
     </g>
    </g>
    <g id="xtick_21">
     <g id="line2d_67">
      <g>
       <use xlink:href="#me8113b2e8f" x="963.004184" y="273.3" style="stroke: #000000"/>
      </g>
     </g>
     <g id="line2d_68">
      <g>
       <use xlink:href="#m8e72f5d520" x="963.004184" y="7.2" style="stroke: #000000"/>
      </g>
     </g>
     <g id="text_52">
      <!-- Sun -->
      <g transform="translate(951.165434 285.918125) scale(0.12 -0.12)">
       <use xlink:href="#DejaVuSerif-53"/>
       <use xlink:href="#DejaVuSerif-75" x="68.505859"/>
       <use xlink:href="#DejaVuSerif-6e" x="132.910156"/>
      </g>
     </g>
    </g>
    <g id="text_53">
     <!-- Day of Week -->
     <g transform="translate(804.004219 303.051562) scale(0.14 -0.14)">
      <use xlink:href="#DejaVuSerif-44"/>
      <use xlink:href="#DejaVuSerif-61" x="80.175781"/>
      <use xlink:href="#DejaVuSerif-79" x="139.794922"/>
      <use xlink:href="#DejaVuSerif-20" x="196.289062"/>
      <use xlink:href="#DejaVuSerif-6f" x="228.076172"/>
      <use xlink:href="#DejaVuSerif-66" x="288.28125"/>
      <use xlink:href="#DejaVuSerif-20" x="325.292969"/>
      <use xlink:href="#DejaVuSerif-57" x="357.080078"/>
      <use xlink:href="#DejaVuSerif-65" x="451.738281"/>
      <use xlink:href="#DejaVuSerif-65" x="510.917969"/>
      <use xlink:href="#DejaVuSerif-6b" x="570.097656"/>
     </g>
    </g>
   </g>
   <g id="matplotlib.axis_6">
    <g id="ytick_14">
     <g id="line2d_69">
      <g>
       <use xlink:href="#md6b31146eb" x="707.078437" y="252.753086" style="stroke: #000000"/>
      </g>
     </g>
     <g id="line2d_70">
      <g>
       <use xlink:href="#mb44713c154" x="989.228437" y="252.753086" style="stroke: #000000"/>
      </g>
     </g>
     <g id="text_54">
      <!-- 70 -->
      <g transform="translate(688.308437 257.312148) scale(0.12 -0.12)">
       <use xlink:href="#DejaVuSerif-37"/>
       <use xlink:href="#DejaVuSerif-30" x="63.623047"/>
      </g>
     </g>
    </g>
    <g id="ytick_15">
     <g id="line2d_71">
      <g>
       <use xlink:href="#md6b31146eb" x="707.078437" y="210.659168" style="stroke: #000000"/>
      </g>
     </g>
     <g id="line2d_72">
      <g>
       <use xlink:href="#mb44713c154" x="989.228437" y="210.659168" style="stroke: #000000"/>
      </g>
     </g>
     <g id="text_55">
      <!-- 75 -->
      <g transform="translate(688.308437 215.218231) scale(0.12 -0.12)">
       <use xlink:href="#DejaVuSerif-37"/>
       <use xlink:href="#DejaVuSerif-35" x="63.623047"/>
      </g>
     </g>
    </g>
    <g id="ytick_16">
     <g id="line2d_73">
      <g>
       <use xlink:href="#md6b31146eb" x="707.078437" y="168.565251" style="stroke: #000000"/>
      </g>
     </g>
     <g id="line2d_74">
      <g>
       <use xlink:href="#mb44713c154" x="989.228437" y="168.565251" style="stroke: #000000"/>
      </g>
     </g>
     <g id="text_56">
      <!-- 80 -->
      <g transform="translate(688.308437 173.124313) scale(0.12 -0.12)">
       <use xlink:href="#DejaVuSerif-38"/>
       <use xlink:href="#DejaVuSerif-30" x="63.623047"/>
      </g>
     </g>
    </g>
    <g id="ytick_17">
     <g id="line2d_75">
      <g>
       <use xlink:href="#md6b31146eb" x="707.078437" y="126.471333" style="stroke: #000000"/>
      </g>
     </g>
     <g id="line2d_76">
      <g>
       <use xlink:href="#mb44713c154" x="989.228437" y="126.471333" style="stroke: #000000"/>
      </g>
     </g>
     <g id="text_57">
      <!-- 85 -->
      <g transform="translate(688.308437 131.030396) scale(0.12 -0.12)">
       <use xlink:href="#DejaVuSerif-38"/>
       <use xlink:href="#DejaVuSerif-35" x="63.623047"/>
      </g>
     </g>
    </g>
    <g id="ytick_18">
     <g id="line2d_77">
      <g>
       <use xlink:href="#md6b31146eb" x="707.078437" y="84.377416" style="stroke: #000000"/>
      </g>
     </g>
     <g id="line2d_78">
      <g>
       <use xlink:href="#mb44713c154" x="989.228437" y="84.377416" style="stroke: #000000"/>
      </g>
     </g>
     <g id="text_58">
      <!-- 90 -->
      <g transform="translate(688.308437 88.936478) scale(0.12 -0.12)">
       <use xlink:href="#DejaVuSerif-39"/>
       <use xlink:href="#DejaVuSerif-30" x="63.623047"/>
      </g>
     </g>
    </g>
    <g id="ytick_19">
     <g id="line2d_79">
      <g>
       <use xlink:href="#md6b31146eb" x="707.078437" y="42.283498" style="stroke: #000000"/>
      </g>
     </g>
     <g id="line2d_80">
      <g>
       <use xlink:href="#mb44713c154" x="989.228437" y="42.283498" style="stroke: #000000"/>
      </g>
     </g>
     <g id="text_59">
      <!-- 95 -->
      <g transform="translate(688.308437 46.842561) scale(0.12 -0.12)">
       <use xlink:href="#DejaVuSerif-39"/>
       <use xlink:href="#DejaVuSerif-35" x="63.623047"/>
      </g>
     </g>
    </g>
    <g id="text_60">
     <!-- Accuracy@10 (%) -->
     <g transform="translate(681.197812 203.29375) rotate(-90) scale(0.14 -0.14)">
      <use xlink:href="#DejaVuSerif-41"/>
      <use xlink:href="#DejaVuSerif-63" x="72.216797"/>
      <use xlink:href="#DejaVuSerif-63" x="128.222656"/>
      <use xlink:href="#DejaVuSerif-75" x="184.228516"/>
      <use xlink:href="#DejaVuSerif-72" x="248.632812"/>
      <use xlink:href="#DejaVuSerif-61" x="296.435547"/>
      <use xlink:href="#DejaVuSerif-63" x="356.054688"/>
      <use xlink:href="#DejaVuSerif-79" x="412.060547"/>
      <use xlink:href="#DejaVuSerif-40" x="468.554688"/>
      <use xlink:href="#DejaVuSerif-31" x="568.554688"/>
      <use xlink:href="#DejaVuSerif-30" x="632.177734"/>
      <use xlink:href="#DejaVuSerif-20" x="695.800781"/>
      <use xlink:href="#DejaVuSerif-28" x="727.587891"/>
      <use xlink:href="#DejaVuSerif-25" x="766.601562"/>
      <use xlink:href="#DejaVuSerif-29" x="861.621094"/>
     </g>
    </g>
   </g>
   <g id="patch_34">
    <path d="M 707.078437 273.3 
L 707.078437 7.2 
" style="fill: none; stroke: #000000; stroke-linejoin: miter; stroke-linecap: square"/>
   </g>
   <g id="patch_35">
    <path d="M 989.228437 273.3 
L 989.228437 7.2 
" style="fill: none; stroke: #000000; stroke-linejoin: miter; stroke-linecap: square"/>
   </g>
   <g id="patch_36">
    <path d="M 707.078437 273.3 
L 989.228437 273.3 
" style="fill: none; stroke: #000000; stroke-linejoin: miter; stroke-linecap: square"/>
   </g>
   <g id="patch_37">
    <path d="M 707.078437 7.2 
L 989.228437 7.2 
" style="fill: none; stroke: #000000; stroke-linejoin: miter; stroke-linecap: square"/>
   </g>
   <g id="text_61">
    <!-- 91.8 -->
    <g transform="translate(723.28316 64.17035) scale(0.09 -0.09)">
     <use xlink:href="#DejaVuSerif-39"/>
     <use xlink:href="#DejaVuSerif-31" x="63.623047"/>
     <use xlink:href="#DejaVuSerif-2e" x="127.246094"/>
     <use xlink:href="#DejaVuSerif-38" x="159.033203"/>
    </g>
   </g>
   <g id="text_62">
    <!-- 86.6 -->
    <g transform="translate(761.566742 108.524981) scale(0.09 -0.09)">
     <use xlink:href="#DejaVuSerif-38"/>
     <use xlink:href="#DejaVuSerif-36" x="63.623047"/>
     <use xlink:href="#DejaVuSerif-2e" x="127.246094"/>
     <use xlink:href="#DejaVuSerif-36" x="159.033203"/>
    </g>
   </g>
   <g id="text_63">
    <!-- 88.8 -->
    <g transform="translate(799.850324 89.947594) scale(0.09 -0.09)">
     <use xlink:href="#DejaVuSerif-38"/>
     <use xlink:href="#DejaVuSerif-38" x="63.623047"/>
     <use xlink:href="#DejaVuSerif-2e" x="127.246094"/>
     <use xlink:href="#DejaVuSerif-38" x="159.033203"/>
    </g>
   </g>
   <g id="text_64">
    <!-- 87.9 -->
    <g transform="translate(838.133906 97.221215) scale(0.09 -0.09)">
     <use xlink:href="#DejaVuSerif-38"/>
     <use xlink:href="#DejaVuSerif-37" x="63.623047"/>
     <use xlink:href="#DejaVuSerif-2e" x="127.246094"/>
     <use xlink:href="#DejaVuSerif-39" x="159.033203"/>
    </g>
   </g>
   <g id="text_65">
    <!-- 86.4 -->
    <g transform="translate(876.417488 109.970562) scale(0.09 -0.09)">
     <use xlink:href="#DejaVuSerif-38"/>
     <use xlink:href="#DejaVuSerif-36" x="63.623047"/>
     <use xlink:href="#DejaVuSerif-2e" x="127.246094"/>
     <use xlink:href="#DejaVuSerif-34" x="159.033203"/>
    </g>
   </g>
   <g id="text_66">
    <!-- 73.4 -->
    <g transform="translate(914.70107 218.9702) scale(0.09 -0.09)">
     <use xlink:href="#DejaVuSerif-37"/>
     <use xlink:href="#DejaVuSerif-33" x="63.623047"/>
     <use xlink:href="#DejaVuSerif-2e" x="127.246094"/>
     <use xlink:href="#DejaVuSerif-34" x="159.033203"/>
    </g>
   </g>
   <g id="text_67">
    <!-- 77.1 -->
    <g transform="translate(952.984653 188.161924) scale(0.09 -0.09)">
     <use xlink:href="#DejaVuSerif-37"/>
     <use xlink:href="#DejaVuSerif-37" x="63.623047"/>
     <use xlink:href="#DejaVuSerif-2e" x="127.246094"/>
     <use xlink:href="#DejaVuSerif-31" x="159.033203"/>
    </g>
   </g>
  </g>
 </g>
 <defs>
  <clipPath id="p65add679f0">
   <rect x="43.718438" y="7.2" width="282.15" height="266.1"/>
  </clipPath>
  <clipPath id="p4941f61ed8">
   <rect x="375.398438" y="7.2" width="282.15" height="266.1"/>
  </clipPath>
  <clipPath id="pabc219795b">
   <rect x="707.078437" y="7.2" width="282.15" height="266.1"/>
  </clipPath>
 </defs>
 <defs>
  <pattern id="h9cf470d530" patternUnits="userSpaceOnUse" x="0" y="0" width="72" height="72">
   <rect x="0" y="0" width="73" height="73" fill="#ffffff"/>
   <path d="M -36 36 
L 36 108 
M -30 30 
L 42 102 
M -24 24 
L 48 96 
M -18 18 
L 54 90 
M -12 12 
L 60 84 
M -6 6 
L 66 78 
M 0 0 
L 72 72 
M 6 -6 
L 78 66 
M 12 -12 
L 84 60 
M 18 -18 
L 90 54 
M 24 -24 
L 96 48 
M 30 -30 
L 102 42 
M 36 -36 
L 108 36 
" style="fill: #008000; stroke: #008000; stroke-width: 1.0; stroke-linecap: butt; stroke-linejoin: miter"/>
  </pattern>
  <pattern id="h567765487c" patternUnits="userSpaceOnUse" x="0" y="0" width="72" height="72">
   <rect x="0" y="0" width="73" height="73" fill="#ffffff"/>
   <path d="M -36 36 
L 36 -36 
M -32 40 
L 40 -32 
M -28 44 
L 44 -28 
M -24 48 
L 48 -24 
M -20 52 
L 52 -20 
M -16 56 
L 56 -16 
M -12 60 
L 60 -12 
M -8 64 
L 64 -8 
M -4 68 
L 68 -4 
M 0 72 
L 72 0 
M 4 76 
L 76 4 
M 8 80 
L 80 8 
M 12 84 
L 84 12 
M 16 88 
L 88 16 
M 20 92 
L 92 20 
M 24 96 
L 96 24 
M 28 100 
L 100 28 
M 32 104 
L 104 32 
M 36 108 
L 108 36 
" style="fill: #ffa500; stroke: #ffa500; stroke-width: 1.0; stroke-linecap: butt; stroke-linejoin: miter"/>
  </pattern>
 </defs>
</svg>
