<?xml version="1.0" encoding="utf-8" standalone="no"?>
<!DOCTYPE svg PUBLIC "-//W3C//DTD SVG 1.1//EN"
  "http://www.w3.org/Graphics/SVG/1.1/DTD/svg11.dtd">
<svg xmlns:xlink="http://www.w3.org/1999/xlink" width="852.807187pt" height="348.972187pt" viewBox="0 0 852.807187 348.972187" xmlns="http://www.w3.org/2000/svg" version="1.1">
 <metadata>
  <rdf:RDF xmlns:dc="http://purl.org/dc/elements/1.1/" xmlns:cc="http://creativecommons.org/ns#" xmlns:rdf="http://www.w3.org/1999/02/22-rdf-syntax-ns#">
   <cc:Work>
    <dc:type rdf:resource="http://purl.org/dc/dcmitype/StillImage"/>
    <dc:date>2026-01-02T11:44:47.394796</dc:date>
    <dc:format>image/svg+xml</dc:format>
    <dc:creator>
     <cc:Agent>
      <dc:title>Matplotlib v3.9.4, https://matplotlib.org/</dc:title>
     </cc:Agent>
    </dc:creator>
   </cc:Work>
  </rdf:RDF>
 </metadata>
 <defs>
  <style type="text/css">*{stroke-linejoin: round; stroke-linecap: butt}</style>
 </defs>
 <g id="figure_1">
  <g id="patch_1">
   <path d="M 0 348.972187 
L 852.807187 348.972187 
L 852.807187 0 
L 0 0 
z
" style="fill: #ffffff"/>
  </g>
  <g id="axes_1">
   <g id="patch_2">
    <path d="M 55.167188 308.91 
L 422.007187 308.91 
L 422.007187 7.2 
L 55.167188 7.2 
z
" style="fill: #ffffff"/>
   </g>
   <g id="patch_3">
    <path d="M 57.001388 308.91 
L 71.674988 308.91 
L 71.674988 175.794429 
L 57.001388 175.794429 
z
" clip-path="url(#pb3e8da4c2a)" style="fill: #ffffff; stroke: #0000ff; stroke-width: 1.5; stroke-linejoin: miter"/>
   </g>
   <g id="patch_4">
    <path d="M 75.343388 308.91 
L 90.016987 308.91 
L 90.016987 21.567143 
L 75.343388 21.567143 
z
" clip-path="url(#pb3e8da4c2a)" style="fill: #ffffff; stroke: #0000ff; stroke-width: 1.5; stroke-linejoin: miter"/>
   </g>
   <g id="patch_5">
    <path d="M 93.685387 308.91 
L 108.358987 308.91 
L 108.358987 144.706787 
L 93.685387 144.706787 
z
" clip-path="url(#pb3e8da4c2a)" style="fill: #ffffff; stroke: #0000ff; stroke-width: 1.5; stroke-linejoin: miter"/>
   </g>
   <g id="patch_6">
    <path d="M 112.027388 308.91 
L 126.700987 308.91 
L 126.700987 88.480019 
L 112.027388 88.480019 
z
" clip-path="url(#pb3e8da4c2a)" style="fill: #ffffff; stroke: #0000ff; stroke-width: 1.5; stroke-linejoin: miter"/>
   </g>
   <g id="patch_7">
    <path d="M 130.369387 308.91 
L 145.042987 308.91 
L 145.042987 152.908353 
L 130.369387 152.908353 
z
" clip-path="url(#pb3e8da4c2a)" style="fill: #ffffff; stroke: #0000ff; stroke-width: 1.5; stroke-linejoin: miter"/>
   </g>
   <g id="patch_8">
    <path d="M 148.711387 308.91 
L 163.384987 308.91 
L 163.384987 146.980577 
L 148.711387 146.980577 
z
" clip-path="url(#pb3e8da4c2a)" style="fill: #ffffff; stroke: #0000ff; stroke-width: 1.5; stroke-linejoin: miter"/>
   </g>
   <g id="patch_9">
    <path d="M 167.053387 308.91 
L 181.726987 308.91 
L 181.726987 170.934396 
L 167.053387 170.934396 
z
" clip-path="url(#pb3e8da4c2a)" style="fill: #ffffff; stroke: #0000ff; stroke-width: 1.5; stroke-linejoin: miter"/>
   </g>
   <g id="patch_10">
    <path d="M 185.395387 308.91 
L 200.068987 308.91 
L 200.068987 197.801055 
L 185.395387 197.801055 
z
" clip-path="url(#pb3e8da4c2a)" style="fill: #ffffff; stroke: #0000ff; stroke-width: 1.5; stroke-linejoin: miter"/>
   </g>
   <g id="patch_11">
    <path d="M 203.737387 308.91 
L 218.410987 308.91 
L 218.410987 209.064177 
L 203.737387 209.064177 
z
" clip-path="url(#pb3e8da4c2a)" style="fill: #ffffff; stroke: #0000ff; stroke-width: 1.5; stroke-linejoin: miter"/>
   </g>
   <g id="patch_12">
    <path d="M 222.079387 308.91 
L 236.752987 308.91 
L 236.752987 189.103144 
L 222.079387 189.103144 
z
" clip-path="url(#pb3e8da4c2a)" style="fill: #ffffff; stroke: #0000ff; stroke-width: 1.5; stroke-linejoin: miter"/>
   </g>
   <g id="patch_13">
    <path d="M 240.421387 308.91 
L 255.094987 308.91 
L 255.094987 194.774885 
L 240.421387 194.774885 
z
" clip-path="url(#pb3e8da4c2a)" style="fill: #ffffff; stroke: #0000ff; stroke-width: 1.5; stroke-linejoin: miter"/>
   </g>
   <g id="patch_14">
    <path d="M 258.763387 308.91 
L 273.436987 308.91 
L 273.436987 171.270667 
L 258.763387 171.270667 
z
" clip-path="url(#pb3e8da4c2a)" style="fill: #ffffff; stroke: #0000ff; stroke-width: 1.5; stroke-linejoin: miter"/>
   </g>
   <g id="patch_15">
    <path d="M 277.105387 308.91 
L 291.778987 308.91 
L 291.778987 203.479335 
L 277.105387 203.479335 
z
" clip-path="url(#pb3e8da4c2a)" style="fill: #ffffff; stroke: #0000ff; stroke-width: 1.5; stroke-linejoin: miter"/>
   </g>
   <g id="patch_16">
    <path d="M 295.447387 308.91 
L 310.120987 308.91 
L 310.120987 207.181333 
L 295.447387 207.181333 
z
" clip-path="url(#pb3e8da4c2a)" style="fill: #ffffff; stroke: #0000ff; stroke-width: 1.5; stroke-linejoin: miter"/>
   </g>
   <g id="patch_17">
    <path d="M 313.789387 308.91 
L 328.462987 308.91 
L 328.462987 232.28785 
L 313.789387 232.28785 
z
" clip-path="url(#pb3e8da4c2a)" style="fill: #ffffff; stroke: #0000ff; stroke-width: 1.5; stroke-linejoin: miter"/>
   </g>
   <g id="patch_18">
    <path d="M 332.131387 308.91 
L 346.804987 308.91 
L 346.804987 250.144119 
L 332.131387 250.144119 
z
" clip-path="url(#pb3e8da4c2a)" style="fill: #ffffff; stroke: #0000ff; stroke-width: 1.5; stroke-linejoin: miter"/>
   </g>
   <g id="patch_19">
    <path d="M 350.473387 308.91 
L 365.146987 308.91 
L 365.146987 235.26342 
L 350.473387 235.26342 
z
" clip-path="url(#pb3e8da4c2a)" style="fill: #ffffff; stroke: #0000ff; stroke-width: 1.5; stroke-linejoin: miter"/>
   </g>
   <g id="patch_20">
    <path d="M 368.815387 308.91 
L 383.488987 308.91 
L 383.488987 250.096319 
L 368.815387 250.096319 
z
" clip-path="url(#pb3e8da4c2a)" style="fill: #ffffff; stroke: #0000ff; stroke-width: 1.5; stroke-linejoin: miter"/>
   </g>
   <g id="patch_21">
    <path d="M 387.157387 308.91 
L 401.830987 308.91 
L 401.830987 257.174717 
L 387.157387 257.174717 
z
" clip-path="url(#pb3e8da4c2a)" style="fill: #ffffff; stroke: #0000ff; stroke-width: 1.5; stroke-linejoin: miter"/>
   </g>
   <g id="patch_22">
    <path d="M 405.499387 308.91 
L 420.172987 308.91 
L 420.172987 249.629298 
L 405.499387 249.629298 
z
" clip-path="url(#pb3e8da4c2a)" style="fill: #ffffff; stroke: #0000ff; stroke-width: 1.5; stroke-linejoin: miter"/>
   </g>
   <g id="matplotlib.axis_1">
    <g id="xtick_1">
     <g id="line2d_1">
      <defs>
       <path id="m928a788a35" d="M 0 0 
L 0 -5 
" style="stroke: #000000"/>
      </defs>
      <g>
       <use xlink:href="#m928a788a35" x="64.338188" y="308.91" style="stroke: #000000"/>
      </g>
     </g>
     <g id="line2d_2">
      <defs>
       <path id="m278d2d3c48" d="M 0 0 
L 0 5 
" style="stroke: #000000"/>
      </defs>
      <g>
       <use xlink:href="#m278d2d3c48" x="64.338188" y="7.2" style="stroke: #000000"/>
      </g>
     </g>
     <g id="text_1">
      <!-- 0.0 -->
      <g transform="translate(54.796313 321.528125) scale(0.12 -0.12)">
       <defs>
        <path id="DejaVuSerif-30" d="M 2034 219 
Q 2513 219 2750 744 
Q 2988 1269 2988 2328 
Q 2988 3391 2750 3916 
Q 2513 4441 2034 4441 
Q 1556 4441 1318 3916 
Q 1081 3391 1081 2328 
Q 1081 1269 1318 744 
Q 1556 219 2034 219 
z
M 2034 -91 
Q 1275 -91 848 546 
Q 422 1184 422 2328 
Q 422 3475 848 4112 
Q 1275 4750 2034 4750 
Q 2797 4750 3222 4112 
Q 3647 3475 3647 2328 
Q 3647 1184 3222 546 
Q 2797 -91 2034 -91 
z
" transform="scale(0.015625)"/>
        <path id="DejaVuSerif-2e" d="M 603 325 
Q 603 500 722 622 
Q 841 744 1019 744 
Q 1191 744 1312 622 
Q 1434 500 1434 325 
Q 1434 153 1312 31 
Q 1191 -91 1019 -91 
Q 841 -91 722 29 
Q 603 150 603 325 
z
" transform="scale(0.015625)"/>
       </defs>
       <use xlink:href="#DejaVuSerif-30"/>
       <use xlink:href="#DejaVuSerif-2e" x="63.623047"/>
       <use xlink:href="#DejaVuSerif-30" x="95.410156"/>
      </g>
     </g>
    </g>
    <g id="xtick_2">
     <g id="line2d_3">
      <g>
       <use xlink:href="#m928a788a35" x="110.193187" y="308.91" style="stroke: #000000"/>
      </g>
     </g>
     <g id="line2d_4">
      <g>
       <use xlink:href="#m278d2d3c48" x="110.193187" y="7.2" style="stroke: #000000"/>
      </g>
     </g>
     <g id="text_2">
      <!-- 2.5 -->
      <g transform="translate(100.651312 321.528125) scale(0.12 -0.12)">
       <defs>
        <path id="DejaVuSerif-32" d="M 819 3553 
L 469 3553 
L 469 4384 
Q 803 4563 1142 4656 
Q 1481 4750 1806 4750 
Q 2534 4750 2956 4397 
Q 3378 4044 3378 3438 
Q 3378 2753 2422 1800 
Q 2347 1728 2309 1691 
L 1131 513 
L 3078 513 
L 3078 1088 
L 3444 1088 
L 3444 0 
L 434 0 
L 434 341 
L 1850 1753 
Q 2319 2222 2519 2614 
Q 2719 3006 2719 3438 
Q 2719 3909 2473 4175 
Q 2228 4441 1797 4441 
Q 1350 4441 1106 4219 
Q 863 3997 819 3553 
z
" transform="scale(0.015625)"/>
        <path id="DejaVuSerif-35" d="M 3219 4666 
L 3219 4153 
L 1081 4153 
L 1081 2816 
Q 1244 2928 1461 2984 
Q 1678 3041 1947 3041 
Q 2703 3041 3140 2622 
Q 3578 2203 3578 1478 
Q 3578 738 3136 323 
Q 2694 -91 1894 -91 
Q 1572 -91 1234 -12 
Q 897 66 544 225 
L 544 1131 
L 897 1131 
Q 925 688 1179 453 
Q 1434 219 1894 219 
Q 2388 219 2653 544 
Q 2919 869 2919 1478 
Q 2919 2084 2655 2407 
Q 2391 2731 1894 2731 
Q 1613 2731 1398 2631 
Q 1184 2531 1019 2322 
L 750 2322 
L 750 4666 
L 3219 4666 
z
" transform="scale(0.015625)"/>
       </defs>
       <use xlink:href="#DejaVuSerif-32"/>
       <use xlink:href="#DejaVuSerif-2e" x="63.623047"/>
       <use xlink:href="#DejaVuSerif-35" x="95.410156"/>
      </g>
     </g>
    </g>
    <g id="xtick_3">
     <g id="line2d_5">
      <g>
       <use xlink:href="#m928a788a35" x="156.048187" y="308.91" style="stroke: #000000"/>
      </g>
     </g>
     <g id="line2d_6">
      <g>
       <use xlink:href="#m278d2d3c48" x="156.048187" y="7.2" style="stroke: #000000"/>
      </g>
     </g>
     <g id="text_3">
      <!-- 5.0 -->
      <g transform="translate(146.506312 321.528125) scale(0.12 -0.12)">
       <use xlink:href="#DejaVuSerif-35"/>
       <use xlink:href="#DejaVuSerif-2e" x="63.623047"/>
       <use xlink:href="#DejaVuSerif-30" x="95.410156"/>
      </g>
     </g>
    </g>
    <g id="xtick_4">
     <g id="line2d_7">
      <g>
       <use xlink:href="#m928a788a35" x="201.903187" y="308.91" style="stroke: #000000"/>
      </g>
     </g>
     <g id="line2d_8">
      <g>
       <use xlink:href="#m278d2d3c48" x="201.903187" y="7.2" style="stroke: #000000"/>
      </g>
     </g>
     <g id="text_4">
      <!-- 7.5 -->
      <g transform="translate(192.361312 321.528125) scale(0.12 -0.12)">
       <defs>
        <path id="DejaVuSerif-37" d="M 3609 4347 
L 1784 0 
L 1319 0 
L 3059 4153 
L 903 4153 
L 903 3578 
L 538 3578 
L 538 4666 
L 3609 4666 
L 3609 4347 
z
" transform="scale(0.015625)"/>
       </defs>
       <use xlink:href="#DejaVuSerif-37"/>
       <use xlink:href="#DejaVuSerif-2e" x="63.623047"/>
       <use xlink:href="#DejaVuSerif-35" x="95.410156"/>
      </g>
     </g>
    </g>
    <g id="xtick_5">
     <g id="line2d_9">
      <g>
       <use xlink:href="#m928a788a35" x="247.758187" y="308.91" style="stroke: #000000"/>
      </g>
     </g>
     <g id="line2d_10">
      <g>
       <use xlink:href="#m278d2d3c48" x="247.758187" y="7.2" style="stroke: #000000"/>
      </g>
     </g>
     <g id="text_5">
      <!-- 10.0 -->
      <g transform="translate(234.398812 321.528125) scale(0.12 -0.12)">
       <defs>
        <path id="DejaVuSerif-31" d="M 909 0 
L 909 331 
L 1722 331 
L 1722 4213 
L 781 3603 
L 781 4013 
L 1919 4750 
L 2350 4750 
L 2350 331 
L 3163 331 
L 3163 0 
L 909 0 
z
" transform="scale(0.015625)"/>
       </defs>
       <use xlink:href="#DejaVuSerif-31"/>
       <use xlink:href="#DejaVuSerif-30" x="63.623047"/>
       <use xlink:href="#DejaVuSerif-2e" x="127.246094"/>
       <use xlink:href="#DejaVuSerif-30" x="159.033203"/>
      </g>
     </g>
    </g>
    <g id="xtick_6">
     <g id="line2d_11">
      <g>
       <use xlink:href="#m928a788a35" x="293.613187" y="308.91" style="stroke: #000000"/>
      </g>
     </g>
     <g id="line2d_12">
      <g>
       <use xlink:href="#m278d2d3c48" x="293.613187" y="7.2" style="stroke: #000000"/>
      </g>
     </g>
     <g id="text_6">
      <!-- 12.5 -->
      <g transform="translate(280.253812 321.528125) scale(0.12 -0.12)">
       <use xlink:href="#DejaVuSerif-31"/>
       <use xlink:href="#DejaVuSerif-32" x="63.623047"/>
       <use xlink:href="#DejaVuSerif-2e" x="127.246094"/>
       <use xlink:href="#DejaVuSerif-35" x="159.033203"/>
      </g>
     </g>
    </g>
    <g id="xtick_7">
     <g id="line2d_13">
      <g>
       <use xlink:href="#m928a788a35" x="339.468187" y="308.91" style="stroke: #000000"/>
      </g>
     </g>
     <g id="line2d_14">
      <g>
       <use xlink:href="#m278d2d3c48" x="339.468187" y="7.2" style="stroke: #000000"/>
      </g>
     </g>
     <g id="text_7">
      <!-- 15.0 -->
      <g transform="translate(326.108812 321.528125) scale(0.12 -0.12)">
       <use xlink:href="#DejaVuSerif-31"/>
       <use xlink:href="#DejaVuSerif-35" x="63.623047"/>
       <use xlink:href="#DejaVuSerif-2e" x="127.246094"/>
       <use xlink:href="#DejaVuSerif-30" x="159.033203"/>
      </g>
     </g>
    </g>
    <g id="xtick_8">
     <g id="line2d_15">
      <g>
       <use xlink:href="#m928a788a35" x="385.323187" y="308.91" style="stroke: #000000"/>
      </g>
     </g>
     <g id="line2d_16">
      <g>
       <use xlink:href="#m278d2d3c48" x="385.323187" y="7.2" style="stroke: #000000"/>
      </g>
     </g>
     <g id="text_8">
      <!-- 17.5 -->
      <g transform="translate(371.963812 321.528125) scale(0.12 -0.12)">
       <use xlink:href="#DejaVuSerif-31"/>
       <use xlink:href="#DejaVuSerif-37" x="63.623047"/>
       <use xlink:href="#DejaVuSerif-2e" x="127.246094"/>
       <use xlink:href="#DejaVuSerif-35" x="159.033203"/>
      </g>
     </g>
    </g>
    <g id="text_9">
     <!-- Position from Sequence End (t-k) -->
     <g transform="translate(121.025469 338.661562) scale(0.14 -0.14)">
      <defs>
       <path id="DejaVuSerif-50" d="M 1581 2375 
L 2406 2375 
Q 2872 2375 3115 2626 
Q 3359 2878 3359 3353 
Q 3359 3831 3115 4081 
Q 2872 4331 2406 4331 
L 1581 4331 
L 1581 2375 
z
M 353 0 
L 353 331 
L 947 331 
L 947 4331 
L 353 4331 
L 353 4666 
L 2559 4666 
Q 3259 4666 3668 4311 
Q 4078 3956 4078 3353 
Q 4078 2753 3668 2397 
Q 3259 2041 2559 2041 
L 1581 2041 
L 1581 331 
L 2303 331 
L 2303 0 
L 353 0 
z
" transform="scale(0.015625)"/>
       <path id="DejaVuSerif-6f" d="M 1925 219 
Q 2388 219 2623 584 
Q 2859 950 2859 1663 
Q 2859 2375 2623 2739 
Q 2388 3103 1925 3103 
Q 1463 3103 1227 2739 
Q 991 2375 991 1663 
Q 991 950 1228 584 
Q 1466 219 1925 219 
z
M 1925 -91 
Q 1200 -91 759 389 
Q 319 869 319 1663 
Q 319 2456 758 2934 
Q 1197 3413 1925 3413 
Q 2653 3413 3092 2934 
Q 3531 2456 3531 1663 
Q 3531 869 3092 389 
Q 2653 -91 1925 -91 
z
" transform="scale(0.015625)"/>
       <path id="DejaVuSerif-73" d="M 359 184 
L 359 959 
L 691 959 
Q 703 588 923 403 
Q 1144 219 1575 219 
Q 1963 219 2166 364 
Q 2369 509 2369 788 
Q 2369 1006 2220 1140 
Q 2072 1275 1594 1428 
L 1178 1569 
Q 750 1706 558 1912 
Q 366 2119 366 2438 
Q 366 2894 700 3153 
Q 1034 3413 1625 3413 
Q 1888 3413 2178 3344 
Q 2469 3275 2778 3144 
L 2778 2419 
L 2447 2419 
Q 2434 2741 2221 2922 
Q 2009 3103 1644 3103 
Q 1281 3103 1095 2975 
Q 909 2847 909 2591 
Q 909 2381 1050 2254 
Q 1191 2128 1613 1997 
L 2069 1856 
Q 2541 1709 2748 1489 
Q 2956 1269 2956 922 
Q 2956 450 2595 179 
Q 2234 -91 1600 -91 
Q 1278 -91 972 -22 
Q 666 47 359 184 
z
" transform="scale(0.015625)"/>
       <path id="DejaVuSerif-69" d="M 622 4353 
Q 622 4497 726 4603 
Q 831 4709 978 4709 
Q 1122 4709 1226 4603 
Q 1331 4497 1331 4353 
Q 1331 4206 1228 4103 
Q 1125 4000 978 4000 
Q 831 4000 726 4103 
Q 622 4206 622 4353 
z
M 1356 331 
L 1900 331 
L 1900 0 
L 231 0 
L 231 331 
L 781 331 
L 781 2988 
L 231 2988 
L 231 3322 
L 1356 3322 
L 1356 331 
z
" transform="scale(0.015625)"/>
       <path id="DejaVuSerif-74" d="M 691 2988 
L 184 2988 
L 184 3322 
L 691 3322 
L 691 4353 
L 1269 4353 
L 1269 3322 
L 2350 3322 
L 2350 2988 
L 1269 2988 
L 1269 878 
Q 1269 456 1350 337 
Q 1431 219 1650 219 
Q 1875 219 1978 351 
Q 2081 484 2088 781 
L 2522 781 
Q 2497 328 2275 118 
Q 2053 -91 1600 -91 
Q 1103 -91 897 129 
Q 691 350 691 878 
L 691 2988 
z
" transform="scale(0.015625)"/>
       <path id="DejaVuSerif-6e" d="M 263 0 
L 263 331 
L 781 331 
L 781 2988 
L 231 2988 
L 231 3322 
L 1356 3322 
L 1356 2731 
Q 1516 3069 1770 3241 
Q 2025 3413 2363 3413 
Q 2913 3413 3172 3097 
Q 3431 2781 3431 2113 
L 3431 331 
L 3944 331 
L 3944 0 
L 2356 0 
L 2356 331 
L 2853 331 
L 2853 1931 
Q 2853 2541 2703 2767 
Q 2553 2994 2175 2994 
Q 1775 2994 1565 2701 
Q 1356 2409 1356 1850 
L 1356 331 
L 1856 331 
L 1856 0 
L 263 0 
z
" transform="scale(0.015625)"/>
       <path id="DejaVuSerif-20" transform="scale(0.015625)"/>
       <path id="DejaVuSerif-66" d="M 2753 4078 
L 2450 4078 
Q 2447 4313 2317 4434 
Q 2188 4556 1941 4556 
Q 1619 4556 1487 4379 
Q 1356 4203 1356 3750 
L 1356 3322 
L 2284 3322 
L 2284 2988 
L 1356 2988 
L 1356 331 
L 2094 331 
L 2094 0 
L 231 0 
L 231 331 
L 781 331 
L 781 2988 
L 231 2988 
L 231 3322 
L 781 3322 
L 781 3738 
Q 781 4294 1070 4578 
Q 1359 4863 1919 4863 
Q 2128 4863 2337 4825 
Q 2547 4788 2753 4709 
L 2753 4078 
z
" transform="scale(0.015625)"/>
       <path id="DejaVuSerif-72" d="M 3059 3328 
L 3059 2497 
L 2728 2497 
Q 2713 2744 2591 2866 
Q 2469 2988 2234 2988 
Q 1809 2988 1582 2694 
Q 1356 2400 1356 1850 
L 1356 331 
L 2022 331 
L 2022 0 
L 263 0 
L 263 331 
L 781 331 
L 781 2994 
L 231 2994 
L 231 3322 
L 1356 3322 
L 1356 2731 
Q 1525 3078 1790 3245 
Q 2056 3413 2438 3413 
Q 2578 3413 2733 3391 
Q 2888 3369 3059 3328 
z
" transform="scale(0.015625)"/>
       <path id="DejaVuSerif-6d" d="M 3316 2675 
Q 3481 3041 3739 3227 
Q 3997 3413 4341 3413 
Q 4863 3413 5119 3089 
Q 5375 2766 5375 2113 
L 5375 331 
L 5894 331 
L 5894 0 
L 4300 0 
L 4300 331 
L 4800 331 
L 4800 2047 
Q 4800 2556 4650 2772 
Q 4500 2988 4153 2988 
Q 3769 2988 3567 2697 
Q 3366 2406 3366 1850 
L 3366 331 
L 3866 331 
L 3866 0 
L 2291 0 
L 2291 331 
L 2791 331 
L 2791 2069 
Q 2791 2566 2641 2777 
Q 2491 2988 2144 2988 
Q 1759 2988 1557 2697 
Q 1356 2406 1356 1850 
L 1356 331 
L 1856 331 
L 1856 0 
L 263 0 
L 263 331 
L 781 331 
L 781 2994 
L 231 2994 
L 231 3322 
L 1356 3322 
L 1356 2731 
Q 1516 3063 1762 3238 
Q 2009 3413 2322 3413 
Q 2709 3413 2968 3220 
Q 3228 3028 3316 2675 
z
" transform="scale(0.015625)"/>
       <path id="DejaVuSerif-53" d="M 594 225 
L 594 1288 
L 953 1284 
Q 969 753 1261 498 
Q 1553 244 2150 244 
Q 2706 244 2998 464 
Q 3291 684 3291 1106 
Q 3291 1444 3114 1625 
Q 2938 1806 2369 1978 
L 1753 2163 
Q 1084 2366 811 2669 
Q 538 2972 538 3500 
Q 538 4094 959 4422 
Q 1381 4750 2144 4750 
Q 2469 4750 2856 4679 
Q 3244 4609 3681 4475 
L 3681 3481 
L 3328 3481 
Q 3275 3975 2998 4195 
Q 2722 4416 2156 4416 
Q 1663 4416 1405 4214 
Q 1147 4013 1147 3628 
Q 1147 3294 1340 3103 
Q 1534 2913 2163 2725 
L 2741 2553 
Q 3375 2363 3645 2067 
Q 3916 1772 3916 1275 
Q 3916 597 3481 253 
Q 3047 -91 2188 -91 
Q 1803 -91 1404 -12 
Q 1006 66 594 225 
z
" transform="scale(0.015625)"/>
       <path id="DejaVuSerif-65" d="M 3469 1600 
L 991 1600 
L 991 1575 
Q 991 903 1244 561 
Q 1497 219 1991 219 
Q 2369 219 2611 417 
Q 2853 616 2950 1006 
L 3413 1006 
Q 3275 459 2904 184 
Q 2534 -91 1931 -91 
Q 1203 -91 761 389 
Q 319 869 319 1663 
Q 319 2450 753 2931 
Q 1188 3413 1894 3413 
Q 2647 3413 3050 2948 
Q 3453 2484 3469 1600 
z
M 2791 1931 
Q 2772 2513 2545 2808 
Q 2319 3103 1894 3103 
Q 1497 3103 1269 2806 
Q 1041 2509 991 1931 
L 2791 1931 
z
" transform="scale(0.015625)"/>
       <path id="DejaVuSerif-71" d="M 3359 2988 
L 3359 -997 
L 3909 -997 
L 3909 -1331 
L 2241 -1331 
L 2241 -997 
L 2784 -997 
L 2784 519 
Q 2616 206 2355 57 
Q 2094 -91 1709 -91 
Q 1097 -91 708 395 
Q 319 881 319 1663 
Q 319 2444 706 2928 
Q 1094 3413 1709 3413 
Q 2094 3413 2355 3264 
Q 2616 3116 2784 2803 
L 2784 3322 
L 3909 3322 
L 3909 2988 
L 3359 2988 
z
M 2784 1825 
Q 2784 2422 2554 2737 
Q 2325 3053 1888 3053 
Q 1444 3053 1217 2703 
Q 991 2353 991 1663 
Q 991 975 1217 622 
Q 1444 269 1888 269 
Q 2325 269 2554 583 
Q 2784 897 2784 1497 
L 2784 1825 
z
" transform="scale(0.015625)"/>
       <path id="DejaVuSerif-75" d="M 2266 3322 
L 3341 3322 
L 3341 331 
L 3884 331 
L 3884 0 
L 2766 0 
L 2766 588 
Q 2606 256 2353 82 
Q 2100 -91 1766 -91 
Q 1213 -91 952 223 
Q 691 538 691 1209 
L 691 2988 
L 172 2988 
L 172 3322 
L 1269 3322 
L 1269 1388 
Q 1269 781 1417 556 
Q 1566 331 1947 331 
Q 2347 331 2556 625 
Q 2766 919 2766 1478 
L 2766 2988 
L 2266 2988 
L 2266 3322 
z
" transform="scale(0.015625)"/>
       <path id="DejaVuSerif-63" d="M 3291 997 
Q 3169 466 2822 187 
Q 2475 -91 1925 -91 
Q 1200 -91 759 389 
Q 319 869 319 1663 
Q 319 2459 759 2936 
Q 1200 3413 1925 3413 
Q 2241 3413 2553 3339 
Q 2866 3266 3181 3116 
L 3181 2266 
L 2847 2266 
Q 2781 2703 2561 2903 
Q 2341 3103 1931 3103 
Q 1466 3103 1228 2742 
Q 991 2381 991 1663 
Q 991 944 1227 581 
Q 1463 219 1931 219 
Q 2303 219 2525 412 
Q 2747 606 2828 997 
L 3291 997 
z
" transform="scale(0.015625)"/>
       <path id="DejaVuSerif-45" d="M 353 0 
L 353 331 
L 947 331 
L 947 4331 
L 353 4331 
L 353 4666 
L 4109 4666 
L 4109 3628 
L 3725 3628 
L 3725 4281 
L 1581 4281 
L 1581 2719 
L 3109 2719 
L 3109 3303 
L 3494 3303 
L 3494 1753 
L 3109 1753 
L 3109 2338 
L 1581 2338 
L 1581 384 
L 3775 384 
L 3775 1038 
L 4159 1038 
L 4159 0 
L 353 0 
z
" transform="scale(0.015625)"/>
       <path id="DejaVuSerif-64" d="M 3359 331 
L 3909 331 
L 3909 0 
L 2784 0 
L 2784 519 
Q 2616 206 2355 57 
Q 2094 -91 1709 -91 
Q 1097 -91 708 395 
Q 319 881 319 1663 
Q 319 2444 706 2928 
Q 1094 3413 1709 3413 
Q 2094 3413 2355 3264 
Q 2616 3116 2784 2803 
L 2784 4531 
L 2241 4531 
L 2241 4863 
L 3359 4863 
L 3359 331 
z
M 2784 1497 
L 2784 1825 
Q 2784 2422 2554 2737 
Q 2325 3053 1888 3053 
Q 1444 3053 1217 2703 
Q 991 2353 991 1663 
Q 991 975 1217 622 
Q 1444 269 1888 269 
Q 2325 269 2554 583 
Q 2784 897 2784 1497 
z
" transform="scale(0.015625)"/>
       <path id="DejaVuSerif-28" d="M 2041 -997 
Q 1281 -656 893 83 
Q 506 822 506 1931 
Q 506 3044 893 3783 
Q 1281 4522 2041 4863 
L 2041 4556 
Q 1559 4225 1350 3623 
Q 1141 3022 1141 1931 
Q 1141 844 1350 242 
Q 1559 -359 2041 -691 
L 2041 -997 
z
" transform="scale(0.015625)"/>
       <path id="DejaVuSerif-2d" d="M 281 1959 
L 1881 1959 
L 1881 1472 
L 281 1472 
L 281 1959 
z
" transform="scale(0.015625)"/>
       <path id="DejaVuSerif-6b" d="M 1831 0 
L 219 0 
L 219 331 
L 738 331 
L 738 4531 
L 184 4531 
L 184 4863 
L 1313 4863 
L 1313 1697 
L 2713 2988 
L 2234 2988 
L 2234 3322 
L 3738 3322 
L 3738 2988 
L 3169 2988 
L 2181 2075 
L 3444 331 
L 3922 331 
L 3922 0 
L 2284 0 
L 2284 331 
L 2759 331 
L 1766 1697 
L 1313 1275 
L 1313 331 
L 1831 331 
L 1831 0 
z
" transform="scale(0.015625)"/>
       <path id="DejaVuSerif-29" d="M 453 -997 
L 453 -691 
Q 934 -359 1145 242 
Q 1356 844 1356 1931 
Q 1356 3022 1145 3623 
Q 934 4225 453 4556 
L 453 4863 
Q 1216 4522 1603 3783 
Q 1991 3044 1991 1931 
Q 1991 822 1603 83 
Q 1216 -656 453 -997 
z
" transform="scale(0.015625)"/>
      </defs>
      <use xlink:href="#DejaVuSerif-50"/>
      <use xlink:href="#DejaVuSerif-6f" x="63.285156"/>
      <use xlink:href="#DejaVuSerif-73" x="123.490234"/>
      <use xlink:href="#DejaVuSerif-69" x="174.808594"/>
      <use xlink:href="#DejaVuSerif-74" x="206.791016"/>
      <use xlink:href="#DejaVuSerif-69" x="246.976562"/>
      <use xlink:href="#DejaVuSerif-6f" x="278.958984"/>
      <use xlink:href="#DejaVuSerif-6e" x="339.164062"/>
      <use xlink:href="#DejaVuSerif-20" x="403.568359"/>
      <use xlink:href="#DejaVuSerif-66" x="435.355469"/>
      <use xlink:href="#DejaVuSerif-72" x="472.367188"/>
      <use xlink:href="#DejaVuSerif-6f" x="520.169922"/>
      <use xlink:href="#DejaVuSerif-6d" x="580.375"/>
      <use xlink:href="#DejaVuSerif-20" x="675.199219"/>
      <use xlink:href="#DejaVuSerif-53" x="706.986328"/>
      <use xlink:href="#DejaVuSerif-65" x="775.492188"/>
      <use xlink:href="#DejaVuSerif-71" x="834.671875"/>
      <use xlink:href="#DejaVuSerif-75" x="898.685547"/>
      <use xlink:href="#DejaVuSerif-65" x="963.089844"/>
      <use xlink:href="#DejaVuSerif-6e" x="1022.269531"/>
      <use xlink:href="#DejaVuSerif-63" x="1086.673828"/>
      <use xlink:href="#DejaVuSerif-65" x="1142.679688"/>
      <use xlink:href="#DejaVuSerif-20" x="1201.859375"/>
      <use xlink:href="#DejaVuSerif-45" x="1233.646484"/>
      <use xlink:href="#DejaVuSerif-6e" x="1306.644531"/>
      <use xlink:href="#DejaVuSerif-64" x="1371.048828"/>
      <use xlink:href="#DejaVuSerif-20" x="1435.0625"/>
      <use xlink:href="#DejaVuSerif-28" x="1466.849609"/>
      <use xlink:href="#DejaVuSerif-74" x="1505.863281"/>
      <use xlink:href="#DejaVuSerif-2d" x="1546.048828"/>
      <use xlink:href="#DejaVuSerif-6b" x="1579.837891"/>
      <use xlink:href="#DejaVuSerif-29" x="1640.433594"/>
     </g>
    </g>
   </g>
   <g id="matplotlib.axis_2">
    <g id="ytick_1">
     <g id="line2d_17">
      <defs>
       <path id="m474fadbb46" d="M 0 0 
L 5 0 
" style="stroke: #000000"/>
      </defs>
      <g>
       <use xlink:href="#m474fadbb46" x="55.167188" y="308.91" style="stroke: #000000"/>
      </g>
     </g>
     <g id="line2d_18">
      <defs>
       <path id="m6bbfc234ef" d="M 0 0 
L -5 0 
" style="stroke: #000000"/>
      </defs>
      <g>
       <use xlink:href="#m6bbfc234ef" x="422.007187" y="308.91" style="stroke: #000000"/>
      </g>
     </g>
     <g id="text_10">
      <!-- 0.00 -->
      <g transform="translate(24.948438 313.469062) scale(0.12 -0.12)">
       <use xlink:href="#DejaVuSerif-30"/>
       <use xlink:href="#DejaVuSerif-2e" x="63.623047"/>
       <use xlink:href="#DejaVuSerif-30" x="95.410156"/>
       <use xlink:href="#DejaVuSerif-30" x="159.033203"/>
      </g>
     </g>
    </g>
    <g id="ytick_2">
     <g id="line2d_19">
      <g>
       <use xlink:href="#m474fadbb46" x="55.167188" y="264.876468" style="stroke: #000000"/>
      </g>
     </g>
     <g id="line2d_20">
      <g>
       <use xlink:href="#m6bbfc234ef" x="422.007187" y="264.876468" style="stroke: #000000"/>
      </g>
     </g>
     <g id="text_11">
      <!-- 0.02 -->
      <g transform="translate(24.948438 269.43553) scale(0.12 -0.12)">
       <use xlink:href="#DejaVuSerif-30"/>
       <use xlink:href="#DejaVuSerif-2e" x="63.623047"/>
       <use xlink:href="#DejaVuSerif-30" x="95.410156"/>
       <use xlink:href="#DejaVuSerif-32" x="159.033203"/>
      </g>
     </g>
    </g>
    <g id="ytick_3">
     <g id="line2d_21">
      <g>
       <use xlink:href="#m474fadbb46" x="55.167188" y="220.842935" style="stroke: #000000"/>
      </g>
     </g>
     <g id="line2d_22">
      <g>
       <use xlink:href="#m6bbfc234ef" x="422.007187" y="220.842935" style="stroke: #000000"/>
      </g>
     </g>
     <g id="text_12">
      <!-- 0.04 -->
      <g transform="translate(24.948438 225.401998) scale(0.12 -0.12)">
       <defs>
        <path id="DejaVuSerif-34" d="M 2234 1581 
L 2234 4063 
L 641 1581 
L 2234 1581 
z
M 3609 0 
L 1484 0 
L 1484 331 
L 2234 331 
L 2234 1247 
L 197 1247 
L 197 1588 
L 2241 4750 
L 2859 4750 
L 2859 1581 
L 3750 1581 
L 3750 1247 
L 2859 1247 
L 2859 331 
L 3609 331 
L 3609 0 
z
" transform="scale(0.015625)"/>
       </defs>
       <use xlink:href="#DejaVuSerif-30"/>
       <use xlink:href="#DejaVuSerif-2e" x="63.623047"/>
       <use xlink:href="#DejaVuSerif-30" x="95.410156"/>
       <use xlink:href="#DejaVuSerif-34" x="159.033203"/>
      </g>
     </g>
    </g>
    <g id="ytick_4">
     <g id="line2d_23">
      <g>
       <use xlink:href="#m474fadbb46" x="55.167188" y="176.809403" style="stroke: #000000"/>
      </g>
     </g>
     <g id="line2d_24">
      <g>
       <use xlink:href="#m6bbfc234ef" x="422.007187" y="176.809403" style="stroke: #000000"/>
      </g>
     </g>
     <g id="text_13">
      <!-- 0.06 -->
      <g transform="translate(24.948438 181.368465) scale(0.12 -0.12)">
       <defs>
        <path id="DejaVuSerif-36" d="M 2094 219 
Q 2534 219 2771 542 
Q 3009 866 3009 1472 
Q 3009 2078 2771 2401 
Q 2534 2725 2094 2725 
Q 1647 2725 1412 2412 
Q 1178 2100 1178 1509 
Q 1178 888 1415 553 
Q 1653 219 2094 219 
z
M 1075 2569 
Q 1288 2803 1556 2918 
Q 1825 3034 2163 3034 
Q 2859 3034 3264 2615 
Q 3669 2197 3669 1472 
Q 3669 763 3233 336 
Q 2797 -91 2069 -91 
Q 1278 -91 853 498 
Q 428 1088 428 2181 
Q 428 3406 931 4078 
Q 1434 4750 2350 4750 
Q 2597 4750 2869 4703 
Q 3141 4656 3425 4563 
L 3425 3794 
L 3072 3794 
Q 3034 4109 2831 4275 
Q 2628 4441 2284 4441 
Q 1678 4441 1381 3981 
Q 1084 3522 1075 2569 
z
" transform="scale(0.015625)"/>
       </defs>
       <use xlink:href="#DejaVuSerif-30"/>
       <use xlink:href="#DejaVuSerif-2e" x="63.623047"/>
       <use xlink:href="#DejaVuSerif-30" x="95.410156"/>
       <use xlink:href="#DejaVuSerif-36" x="159.033203"/>
      </g>
     </g>
    </g>
    <g id="ytick_5">
     <g id="line2d_25">
      <g>
       <use xlink:href="#m474fadbb46" x="55.167188" y="132.77587" style="stroke: #000000"/>
      </g>
     </g>
     <g id="line2d_26">
      <g>
       <use xlink:href="#m6bbfc234ef" x="422.007187" y="132.77587" style="stroke: #000000"/>
      </g>
     </g>
     <g id="text_14">
      <!-- 0.08 -->
      <g transform="translate(24.948438 137.334933) scale(0.12 -0.12)">
       <defs>
        <path id="DejaVuSerif-38" d="M 2981 1275 
Q 2981 1775 2732 2051 
Q 2484 2328 2034 2328 
Q 1584 2328 1336 2051 
Q 1088 1775 1088 1275 
Q 1088 772 1336 495 
Q 1584 219 2034 219 
Q 2484 219 2732 495 
Q 2981 772 2981 1275 
z
M 2853 3541 
Q 2853 3966 2637 4203 
Q 2422 4441 2034 4441 
Q 1650 4441 1433 4203 
Q 1216 3966 1216 3541 
Q 1216 3113 1433 2875 
Q 1650 2638 2034 2638 
Q 2422 2638 2637 2875 
Q 2853 3113 2853 3541 
z
M 2516 2484 
Q 3047 2413 3344 2092 
Q 3641 1772 3641 1275 
Q 3641 619 3225 264 
Q 2809 -91 2034 -91 
Q 1263 -91 845 264 
Q 428 619 428 1275 
Q 428 1772 725 2092 
Q 1022 2413 1556 2484 
Q 1084 2569 832 2842 
Q 581 3116 581 3541 
Q 581 4103 968 4426 
Q 1356 4750 2034 4750 
Q 2713 4750 3100 4426 
Q 3488 4103 3488 3541 
Q 3488 3116 3236 2842 
Q 2984 2569 2516 2484 
z
" transform="scale(0.015625)"/>
       </defs>
       <use xlink:href="#DejaVuSerif-30"/>
       <use xlink:href="#DejaVuSerif-2e" x="63.623047"/>
       <use xlink:href="#DejaVuSerif-30" x="95.410156"/>
       <use xlink:href="#DejaVuSerif-38" x="159.033203"/>
      </g>
     </g>
    </g>
    <g id="ytick_6">
     <g id="line2d_27">
      <g>
       <use xlink:href="#m474fadbb46" x="55.167188" y="88.742338" style="stroke: #000000"/>
      </g>
     </g>
     <g id="line2d_28">
      <g>
       <use xlink:href="#m6bbfc234ef" x="422.007187" y="88.742338" style="stroke: #000000"/>
      </g>
     </g>
     <g id="text_15">
      <!-- 0.10 -->
      <g transform="translate(24.948438 93.3014) scale(0.12 -0.12)">
       <use xlink:href="#DejaVuSerif-30"/>
       <use xlink:href="#DejaVuSerif-2e" x="63.623047"/>
       <use xlink:href="#DejaVuSerif-31" x="95.410156"/>
       <use xlink:href="#DejaVuSerif-30" x="159.033203"/>
      </g>
     </g>
    </g>
    <g id="ytick_7">
     <g id="line2d_29">
      <g>
       <use xlink:href="#m474fadbb46" x="55.167188" y="44.708805" style="stroke: #000000"/>
      </g>
     </g>
     <g id="line2d_30">
      <g>
       <use xlink:href="#m6bbfc234ef" x="422.007187" y="44.708805" style="stroke: #000000"/>
      </g>
     </g>
     <g id="text_16">
      <!-- 0.12 -->
      <g transform="translate(24.948438 49.267868) scale(0.12 -0.12)">
       <use xlink:href="#DejaVuSerif-30"/>
       <use xlink:href="#DejaVuSerif-2e" x="63.623047"/>
       <use xlink:href="#DejaVuSerif-31" x="95.410156"/>
       <use xlink:href="#DejaVuSerif-32" x="159.033203"/>
      </g>
     </g>
    </g>
    <g id="text_17">
     <!-- Mean Attention Weight -->
     <g transform="translate(17.837813 240.292969) rotate(-90) scale(0.14 -0.14)">
      <defs>
       <path id="DejaVuSerif-4d" d="M 353 0 
L 353 331 
L 947 331 
L 947 4331 
L 319 4331 
L 319 4666 
L 1678 4666 
L 3316 1344 
L 4953 4666 
L 6228 4666 
L 6228 4331 
L 5606 4331 
L 5606 331 
L 6203 331 
L 6203 0 
L 4378 0 
L 4378 331 
L 4972 331 
L 4972 3938 
L 3372 684 
L 2931 684 
L 1331 3938 
L 1331 331 
L 1925 331 
L 1925 0 
L 353 0 
z
" transform="scale(0.015625)"/>
       <path id="DejaVuSerif-61" d="M 2547 1044 
L 2547 1747 
L 1806 1747 
Q 1378 1747 1168 1562 
Q 959 1378 959 997 
Q 959 650 1171 447 
Q 1384 244 1747 244 
Q 2106 244 2326 466 
Q 2547 688 2547 1044 
z
M 3122 2075 
L 3122 331 
L 3634 331 
L 3634 0 
L 2547 0 
L 2547 359 
Q 2356 128 2106 18 
Q 1856 -91 1522 -91 
Q 969 -91 644 203 
Q 319 497 319 997 
Q 319 1513 691 1797 
Q 1063 2081 1741 2081 
L 2547 2081 
L 2547 2309 
Q 2547 2688 2317 2895 
Q 2088 3103 1672 3103 
Q 1328 3103 1125 2947 
Q 922 2791 872 2484 
L 575 2484 
L 575 3156 
Q 875 3284 1158 3348 
Q 1441 3413 1709 3413 
Q 2400 3413 2761 3070 
Q 3122 2728 3122 2075 
z
" transform="scale(0.015625)"/>
       <path id="DejaVuSerif-41" d="M 1281 1691 
L 2994 1691 
L 2138 3909 
L 1281 1691 
z
M -38 0 
L -38 331 
L 372 331 
L 2034 4666 
L 2559 4666 
L 4225 331 
L 4684 331 
L 4684 0 
L 2988 0 
L 2988 331 
L 3506 331 
L 3116 1356 
L 1153 1356 
L 763 331 
L 1275 331 
L 1275 0 
L -38 0 
z
" transform="scale(0.015625)"/>
       <path id="DejaVuSerif-57" d="M 4878 0 
L 4366 0 
L 3297 3794 
L 2228 0 
L 1716 0 
L 494 4331 
L 31 4331 
L 31 4666 
L 1734 4666 
L 1734 4331 
L 1153 4331 
L 2125 884 
L 3188 4666 
L 3694 4666 
L 4775 844 
L 5753 4331 
L 5216 4331 
L 5216 4666 
L 6559 4666 
L 6559 4331 
L 6100 4331 
L 4878 0 
z
" transform="scale(0.015625)"/>
       <path id="DejaVuSerif-67" d="M 3359 2988 
L 3359 72 
Q 3359 -644 2965 -1033 
Q 2572 -1422 1844 -1422 
Q 1516 -1422 1216 -1362 
Q 916 -1303 641 -1184 
L 641 -488 
L 941 -488 
Q 997 -813 1206 -963 
Q 1416 -1113 1806 -1113 
Q 2313 -1113 2548 -827 
Q 2784 -541 2784 72 
L 2784 519 
Q 2616 206 2355 57 
Q 2094 -91 1709 -91 
Q 1097 -91 708 395 
Q 319 881 319 1663 
Q 319 2444 706 2928 
Q 1094 3413 1709 3413 
Q 2094 3413 2355 3264 
Q 2616 3116 2784 2803 
L 2784 3322 
L 3909 3322 
L 3909 2988 
L 3359 2988 
z
M 2784 1825 
Q 2784 2422 2554 2737 
Q 2325 3053 1888 3053 
Q 1444 3053 1217 2703 
Q 991 2353 991 1663 
Q 991 975 1217 622 
Q 1444 269 1888 269 
Q 2325 269 2554 583 
Q 2784 897 2784 1497 
L 2784 1825 
z
" transform="scale(0.015625)"/>
       <path id="DejaVuSerif-68" d="M 263 0 
L 263 331 
L 781 331 
L 781 4531 
L 231 4531 
L 231 4863 
L 1356 4863 
L 1356 2731 
Q 1516 3069 1770 3241 
Q 2025 3413 2363 3413 
Q 2913 3413 3172 3097 
Q 3431 2781 3431 2113 
L 3431 331 
L 3944 331 
L 3944 0 
L 2356 0 
L 2356 331 
L 2853 331 
L 2853 1931 
Q 2853 2541 2704 2764 
Q 2556 2988 2175 2988 
Q 1775 2988 1565 2697 
Q 1356 2406 1356 1850 
L 1356 331 
L 1856 331 
L 1856 0 
L 263 0 
z
" transform="scale(0.015625)"/>
      </defs>
      <use xlink:href="#DejaVuSerif-4d"/>
      <use xlink:href="#DejaVuSerif-65" x="102.392578"/>
      <use xlink:href="#DejaVuSerif-61" x="161.572266"/>
      <use xlink:href="#DejaVuSerif-6e" x="221.191406"/>
      <use xlink:href="#DejaVuSerif-20" x="285.595703"/>
      <use xlink:href="#DejaVuSerif-41" x="317.382812"/>
      <use xlink:href="#DejaVuSerif-74" x="387.849609"/>
      <use xlink:href="#DejaVuSerif-74" x="428.035156"/>
      <use xlink:href="#DejaVuSerif-65" x="468.220703"/>
      <use xlink:href="#DejaVuSerif-6e" x="527.400391"/>
      <use xlink:href="#DejaVuSerif-74" x="591.804688"/>
      <use xlink:href="#DejaVuSerif-69" x="631.990234"/>
      <use xlink:href="#DejaVuSerif-6f" x="663.972656"/>
      <use xlink:href="#DejaVuSerif-6e" x="724.177734"/>
      <use xlink:href="#DejaVuSerif-20" x="788.582031"/>
      <use xlink:href="#DejaVuSerif-57" x="820.369141"/>
      <use xlink:href="#DejaVuSerif-65" x="915.027344"/>
      <use xlink:href="#DejaVuSerif-69" x="974.207031"/>
      <use xlink:href="#DejaVuSerif-67" x="1006.189453"/>
      <use xlink:href="#DejaVuSerif-68" x="1070.203125"/>
      <use xlink:href="#DejaVuSerif-74" x="1134.607422"/>
     </g>
    </g>
   </g>
   <g id="patch_23">
    <path d="M 55.167188 308.91 
L 55.167188 7.2 
" style="fill: none; stroke: #000000; stroke-linejoin: miter; stroke-linecap: square"/>
   </g>
   <g id="patch_24">
    <path d="M 422.007187 308.91 
L 422.007187 7.2 
" style="fill: none; stroke: #000000; stroke-linejoin: miter; stroke-linecap: square"/>
   </g>
   <g id="patch_25">
    <path d="M 55.167188 308.91 
L 422.007187 308.91 
" style="fill: none; stroke: #000000; stroke-linejoin: miter; stroke-linecap: square"/>
   </g>
   <g id="patch_26">
    <path d="M 55.167188 7.2 
L 422.007187 7.2 
" style="fill: none; stroke: #000000; stroke-linejoin: miter; stroke-linecap: square"/>
   </g>
   <g id="patch_27">
    <path d="M 119.135774 192.244423 
Q 92.695203 184.30708 67.325456 176.691194 
" style="fill: none; stroke: #000000; stroke-linecap: round"/>
    <path d="M 70.581515 179.756822 
L 67.325456 176.691194 
L 71.731594 175.925723 
" style="fill: none; stroke: #000000; stroke-linecap: round"/>
   </g>
   <g id="text_18">
    <!-- t-0: 0.060 -->
    <g transform="translate(119.364187 202.417543) scale(0.1 -0.1)">
     <defs>
      <path id="DejaVuSerif-3a" d="M 666 325 
Q 666 500 786 622 
Q 906 744 1081 744 
Q 1256 744 1376 622 
Q 1497 500 1497 325 
Q 1497 150 1378 29 
Q 1259 -91 1081 -91 
Q 903 -91 784 29 
Q 666 150 666 325 
z
M 666 2363 
Q 666 2538 786 2658 
Q 906 2778 1081 2778 
Q 1259 2778 1378 2659 
Q 1497 2541 1497 2363 
Q 1497 2184 1378 2065 
Q 1259 1947 1081 1947 
Q 906 1947 786 2067 
Q 666 2188 666 2363 
z
" transform="scale(0.015625)"/>
     </defs>
     <use xlink:href="#DejaVuSerif-74"/>
     <use xlink:href="#DejaVuSerif-2d" x="40.185547"/>
     <use xlink:href="#DejaVuSerif-30" x="73.974609"/>
     <use xlink:href="#DejaVuSerif-3a" x="137.597656"/>
     <use xlink:href="#DejaVuSerif-20" x="171.289062"/>
     <use xlink:href="#DejaVuSerif-30" x="203.076172"/>
     <use xlink:href="#DejaVuSerif-2e" x="266.699219"/>
     <use xlink:href="#DejaVuSerif-30" x="298.486328"/>
     <use xlink:href="#DejaVuSerif-36" x="362.109375"/>
     <use xlink:href="#DejaVuSerif-30" x="425.732422"/>
    </g>
   </g>
  </g>
  <g id="axes_2">
   <g id="patch_28">
    <path d="M 478.767187 308.91 
L 845.607188 308.91 
L 845.607188 7.2 
L 478.767187 7.2 
z
" style="fill: #ffffff"/>
   </g>
   <g id="patch_29">
    <path d="M 495.441733 308.91 
L 502.111551 308.91 
L 502.111551 295.749258 
L 495.441733 295.749258 
z
" clip-path="url(#p244153385e)" style="fill: #ffffff; stroke: #ff0000; stroke-linejoin: miter"/>
   </g>
   <g id="patch_30">
    <path d="M 502.111551 308.91 
L 508.78137 308.91 
L 508.78137 297.942715 
L 502.111551 297.942715 
z
" clip-path="url(#p244153385e)" style="fill: #ffffff; stroke: #ff0000; stroke-linejoin: miter"/>
   </g>
   <g id="patch_31">
    <path d="M 508.78137 308.91 
L 515.451189 308.91 
L 515.451189 300.136172 
L 508.78137 300.136172 
z
" clip-path="url(#p244153385e)" style="fill: #ffffff; stroke: #ff0000; stroke-linejoin: miter"/>
   </g>
   <g id="patch_32">
    <path d="M 515.451189 308.91 
L 522.121005 308.91 
L 522.121005 293.555802 
L 515.451189 293.555802 
z
" clip-path="url(#p244153385e)" style="fill: #ffffff; stroke: #ff0000; stroke-linejoin: miter"/>
   </g>
   <g id="patch_33">
    <path d="M 522.121005 308.91 
L 528.790824 308.91 
L 528.790824 273.814689 
L 522.121005 273.814689 
z
" clip-path="url(#p244153385e)" style="fill: #ffffff; stroke: #ff0000; stroke-linejoin: miter"/>
   </g>
   <g id="patch_34">
    <path d="M 528.790824 308.91 
L 535.460643 308.91 
L 535.460643 284.781974 
L 528.790824 284.781974 
z
" clip-path="url(#p244153385e)" style="fill: #ffffff; stroke: #ff0000; stroke-linejoin: miter"/>
   </g>
   <g id="patch_35">
    <path d="M 535.460643 308.91 
L 542.130463 308.91 
L 542.130463 276.008146 
L 535.460643 276.008146 
z
" clip-path="url(#p244153385e)" style="fill: #ffffff; stroke: #ff0000; stroke-linejoin: miter"/>
   </g>
   <g id="patch_36">
    <path d="M 542.130463 308.91 
L 548.800279 308.91 
L 548.800279 265.040862 
L 542.130463 265.040862 
z
" clip-path="url(#p244153385e)" style="fill: #ffffff; stroke: #ff0000; stroke-linejoin: miter"/>
   </g>
   <g id="patch_37">
    <path d="M 548.800279 308.91 
L 555.470095 308.91 
L 555.470095 258.460491 
L 548.800279 258.460491 
z
" clip-path="url(#p244153385e)" style="fill: #ffffff; stroke: #ff0000; stroke-linejoin: miter"/>
   </g>
   <g id="patch_38">
    <path d="M 555.470095 308.91 
L 562.139917 308.91 
L 562.139917 240.912835 
L 555.470095 240.912835 
z
" clip-path="url(#p244153385e)" style="fill: #ffffff; stroke: #ff0000; stroke-linejoin: miter"/>
   </g>
   <g id="patch_39">
    <path d="M 562.139917 308.91 
L 568.809733 308.91 
L 568.809733 232.139008 
L 562.139917 232.139008 
z
" clip-path="url(#p244153385e)" style="fill: #ffffff; stroke: #ff0000; stroke-linejoin: miter"/>
   </g>
   <g id="patch_40">
    <path d="M 568.809733 308.91 
L 575.47955 308.91 
L 575.47955 210.204438 
L 568.809733 210.204438 
z
" clip-path="url(#p244153385e)" style="fill: #ffffff; stroke: #ff0000; stroke-linejoin: miter"/>
   </g>
   <g id="patch_41">
    <path d="M 575.47955 308.91 
L 582.149372 308.91 
L 582.149372 194.85024 
L 575.47955 194.85024 
z
" clip-path="url(#p244153385e)" style="fill: #ffffff; stroke: #ff0000; stroke-linejoin: miter"/>
   </g>
   <g id="patch_42">
    <path d="M 582.149372 308.91 
L 588.819188 308.91 
L 588.819188 155.368015 
L 582.149372 155.368015 
z
" clip-path="url(#p244153385e)" style="fill: #ffffff; stroke: #ff0000; stroke-linejoin: miter"/>
   </g>
   <g id="patch_43">
    <path d="M 588.819188 308.91 
L 595.48901 308.91 
L 595.48901 153.174558 
L 588.819188 153.174558 
z
" clip-path="url(#p244153385e)" style="fill: #ffffff; stroke: #ff0000; stroke-linejoin: miter"/>
   </g>
   <g id="patch_44">
    <path d="M 595.48901 308.91 
L 602.15882 308.91 
L 602.15882 155.368015 
L 595.48901 155.368015 
z
" clip-path="url(#p244153385e)" style="fill: #ffffff; stroke: #ff0000; stroke-linejoin: miter"/>
   </g>
   <g id="patch_45">
    <path d="M 602.15882 308.91 
L 608.828642 308.91 
L 608.828642 148.787644 
L 602.15882 148.787644 
z
" clip-path="url(#p244153385e)" style="fill: #ffffff; stroke: #ff0000; stroke-linejoin: miter"/>
   </g>
   <g id="patch_46">
    <path d="M 608.828642 308.91 
L 615.498464 308.91 
L 615.498464 142.207274 
L 608.828642 142.207274 
z
" clip-path="url(#p244153385e)" style="fill: #ffffff; stroke: #ff0000; stroke-linejoin: miter"/>
   </g>
   <g id="patch_47">
    <path d="M 615.498464 308.91 
L 622.168275 308.91 
L 622.168275 107.111963 
L 615.498464 107.111963 
z
" clip-path="url(#p244153385e)" style="fill: #ffffff; stroke: #ff0000; stroke-linejoin: miter"/>
   </g>
   <g id="patch_48">
    <path d="M 622.168275 308.91 
L 628.838097 308.91 
L 628.838097 80.79048 
L 622.168275 80.79048 
z
" clip-path="url(#p244153385e)" style="fill: #ffffff; stroke: #ff0000; stroke-linejoin: miter"/>
   </g>
   <g id="patch_49">
    <path d="M 628.838097 308.91 
L 635.507919 308.91 
L 635.507919 102.725049 
L 628.838097 102.725049 
z
" clip-path="url(#p244153385e)" style="fill: #ffffff; stroke: #ff0000; stroke-linejoin: miter"/>
   </g>
   <g id="patch_50">
    <path d="M 635.507919 308.91 
L 642.177729 308.91 
L 642.177729 45.695169 
L 635.507919 45.695169 
z
" clip-path="url(#p244153385e)" style="fill: #ffffff; stroke: #ff0000; stroke-linejoin: miter"/>
   </g>
   <g id="patch_51">
    <path d="M 642.177729 308.91 
L 648.847551 308.91 
L 648.847551 21.567143 
L 642.177729 21.567143 
z
" clip-path="url(#p244153385e)" style="fill: #ffffff; stroke: #ff0000; stroke-linejoin: miter"/>
   </g>
   <g id="patch_52">
    <path d="M 648.847551 308.91 
L 655.517373 308.91 
L 655.517373 67.629738 
L 648.847551 67.629738 
z
" clip-path="url(#p244153385e)" style="fill: #ffffff; stroke: #ff0000; stroke-linejoin: miter"/>
   </g>
   <g id="patch_53">
    <path d="M 655.517373 308.91 
L 662.187184 308.91 
L 662.187184 34.727884 
L 655.517373 34.727884 
z
" clip-path="url(#p244153385e)" style="fill: #ffffff; stroke: #ff0000; stroke-linejoin: miter"/>
   </g>
   <g id="patch_54">
    <path d="M 662.187184 308.91 
L 668.857006 308.91 
L 668.857006 47.888626 
L 662.187184 47.888626 
z
" clip-path="url(#p244153385e)" style="fill: #ffffff; stroke: #ff0000; stroke-linejoin: miter"/>
   </g>
   <g id="patch_55">
    <path d="M 668.857006 308.91 
L 675.526828 308.91 
L 675.526828 32.534427 
L 668.857006 32.534427 
z
" clip-path="url(#p244153385e)" style="fill: #ffffff; stroke: #ff0000; stroke-linejoin: miter"/>
   </g>
   <g id="patch_56">
    <path d="M 675.526828 308.91 
L 682.196638 308.91 
L 682.196638 72.016652 
L 675.526828 72.016652 
z
" clip-path="url(#p244153385e)" style="fill: #ffffff; stroke: #ff0000; stroke-linejoin: miter"/>
   </g>
   <g id="patch_57">
    <path d="M 682.196638 308.91 
L 688.866449 308.91 
L 688.866449 85.177394 
L 682.196638 85.177394 
z
" clip-path="url(#p244153385e)" style="fill: #ffffff; stroke: #ff0000; stroke-linejoin: miter"/>
   </g>
   <g id="patch_58">
    <path d="M 688.866449 308.91 
L 695.536271 308.91 
L 695.536271 39.114798 
L 688.866449 39.114798 
z
" clip-path="url(#p244153385e)" style="fill: #ffffff; stroke: #ff0000; stroke-linejoin: miter"/>
   </g>
   <g id="patch_59">
    <path d="M 695.536271 308.91 
L 702.206093 308.91 
L 702.206093 89.564308 
L 695.536271 89.564308 
z
" clip-path="url(#p244153385e)" style="fill: #ffffff; stroke: #ff0000; stroke-linejoin: miter"/>
   </g>
   <g id="patch_60">
    <path d="M 702.206093 308.91 
L 708.875915 308.91 
L 708.875915 74.210109 
L 702.206093 74.210109 
z
" clip-path="url(#p244153385e)" style="fill: #ffffff; stroke: #ff0000; stroke-linejoin: miter"/>
   </g>
   <g id="patch_61">
    <path d="M 708.875915 308.91 
L 715.545737 308.91 
L 715.545737 74.210109 
L 708.875915 74.210109 
z
" clip-path="url(#p244153385e)" style="fill: #ffffff; stroke: #ff0000; stroke-linejoin: miter"/>
   </g>
   <g id="patch_62">
    <path d="M 715.545737 308.91 
L 722.215559 308.91 
L 722.215559 72.016652 
L 715.545737 72.016652 
z
" clip-path="url(#p244153385e)" style="fill: #ffffff; stroke: #ff0000; stroke-linejoin: miter"/>
   </g>
   <g id="patch_63">
    <path d="M 722.215559 308.91 
L 728.885358 308.91 
L 728.885358 82.983937 
L 722.215559 82.983937 
z
" clip-path="url(#p244153385e)" style="fill: #ffffff; stroke: #ff0000; stroke-linejoin: miter"/>
   </g>
   <g id="patch_64">
    <path d="M 728.885358 308.91 
L 735.55518 308.91 
L 735.55518 124.659618 
L 728.885358 124.659618 
z
" clip-path="url(#p244153385e)" style="fill: #ffffff; stroke: #ff0000; stroke-linejoin: miter"/>
   </g>
   <g id="patch_65">
    <path d="M 735.55518 308.91 
L 742.225002 308.91 
L 742.225002 111.498877 
L 735.55518 111.498877 
z
" clip-path="url(#p244153385e)" style="fill: #ffffff; stroke: #ff0000; stroke-linejoin: miter"/>
   </g>
   <g id="patch_66">
    <path d="M 742.225002 308.91 
L 748.894824 308.91 
L 748.894824 72.016652 
L 742.225002 72.016652 
z
" clip-path="url(#p244153385e)" style="fill: #ffffff; stroke: #ff0000; stroke-linejoin: miter"/>
   </g>
   <g id="patch_67">
    <path d="M 748.894824 308.91 
L 755.564646 308.91 
L 755.564646 89.564308 
L 748.894824 89.564308 
z
" clip-path="url(#p244153385e)" style="fill: #ffffff; stroke: #ff0000; stroke-linejoin: miter"/>
   </g>
   <g id="patch_68">
    <path d="M 755.564646 308.91 
L 762.234468 308.91 
L 762.234468 102.725049 
L 755.564646 102.725049 
z
" clip-path="url(#p244153385e)" style="fill: #ffffff; stroke: #ff0000; stroke-linejoin: miter"/>
   </g>
   <g id="patch_69">
    <path d="M 762.234468 308.91 
L 768.904267 308.91 
L 768.904267 120.272704 
L 762.234468 120.272704 
z
" clip-path="url(#p244153385e)" style="fill: #ffffff; stroke: #ff0000; stroke-linejoin: miter"/>
   </g>
   <g id="patch_70">
    <path d="M 768.904267 308.91 
L 775.574089 308.91 
L 775.574089 104.918506 
L 768.904267 104.918506 
z
" clip-path="url(#p244153385e)" style="fill: #ffffff; stroke: #ff0000; stroke-linejoin: miter"/>
   </g>
   <g id="patch_71">
    <path d="M 775.574089 308.91 
L 782.243911 308.91 
L 782.243911 137.82036 
L 775.574089 137.82036 
z
" clip-path="url(#p244153385e)" style="fill: #ffffff; stroke: #ff0000; stroke-linejoin: miter"/>
   </g>
   <g id="patch_72">
    <path d="M 782.243911 308.91 
L 788.913733 308.91 
L 788.913733 111.498877 
L 782.243911 111.498877 
z
" clip-path="url(#p244153385e)" style="fill: #ffffff; stroke: #ff0000; stroke-linejoin: miter"/>
   </g>
   <g id="patch_73">
    <path d="M 788.913733 308.91 
L 795.583555 308.91 
L 795.583555 140.013817 
L 788.913733 140.013817 
z
" clip-path="url(#p244153385e)" style="fill: #ffffff; stroke: #ff0000; stroke-linejoin: miter"/>
   </g>
   <g id="patch_74">
    <path d="M 795.583555 308.91 
L 802.253377 308.91 
L 802.253377 221.171723 
L 795.583555 221.171723 
z
" clip-path="url(#p244153385e)" style="fill: #ffffff; stroke: #ff0000; stroke-linejoin: miter"/>
   </g>
   <g id="patch_75">
    <path d="M 802.253377 308.91 
L 808.923176 308.91 
L 808.923176 247.493206 
L 802.253377 247.493206 
z
" clip-path="url(#p244153385e)" style="fill: #ffffff; stroke: #ff0000; stroke-linejoin: miter"/>
   </g>
   <g id="patch_76">
    <path d="M 808.923176 308.91 
L 815.592998 308.91 
L 815.592998 278.201603 
L 808.923176 278.201603 
z
" clip-path="url(#p244153385e)" style="fill: #ffffff; stroke: #ff0000; stroke-linejoin: miter"/>
   </g>
   <g id="patch_77">
    <path d="M 815.592998 308.91 
L 822.26282 308.91 
L 822.26282 291.362345 
L 815.592998 291.362345 
z
" clip-path="url(#p244153385e)" style="fill: #ffffff; stroke: #ff0000; stroke-linejoin: miter"/>
   </g>
   <g id="patch_78">
    <path d="M 822.26282 308.91 
L 828.932642 308.91 
L 828.932642 302.329629 
L 822.26282 302.329629 
z
" clip-path="url(#p244153385e)" style="fill: #ffffff; stroke: #ff0000; stroke-linejoin: miter"/>
   </g>
   <g id="matplotlib.axis_3">
    <g id="xtick_9">
     <g id="line2d_31">
      <g>
       <use xlink:href="#m928a788a35" x="487.064008" y="308.91" style="stroke: #000000"/>
      </g>
     </g>
     <g id="line2d_32">
      <g>
       <use xlink:href="#m278d2d3c48" x="487.064008" y="7.2" style="stroke: #000000"/>
      </g>
     </g>
     <g id="text_19">
      <!-- 0.0 -->
      <g transform="translate(477.522133 321.528125) scale(0.12 -0.12)">
       <use xlink:href="#DejaVuSerif-30"/>
       <use xlink:href="#DejaVuSerif-2e" x="63.623047"/>
       <use xlink:href="#DejaVuSerif-30" x="95.410156"/>
      </g>
     </g>
    </g>
    <g id="xtick_10">
     <g id="line2d_33">
      <g>
       <use xlink:href="#m928a788a35" x="536.421374" y="308.91" style="stroke: #000000"/>
      </g>
     </g>
     <g id="line2d_34">
      <g>
       <use xlink:href="#m278d2d3c48" x="536.421374" y="7.2" style="stroke: #000000"/>
      </g>
     </g>
     <g id="text_20">
      <!-- 0.5 -->
      <g transform="translate(526.879499 321.528125) scale(0.12 -0.12)">
       <use xlink:href="#DejaVuSerif-30"/>
       <use xlink:href="#DejaVuSerif-2e" x="63.623047"/>
       <use xlink:href="#DejaVuSerif-35" x="95.410156"/>
      </g>
     </g>
    </g>
    <g id="xtick_11">
     <g id="line2d_35">
      <g>
       <use xlink:href="#m928a788a35" x="585.77874" y="308.91" style="stroke: #000000"/>
      </g>
     </g>
     <g id="line2d_36">
      <g>
       <use xlink:href="#m278d2d3c48" x="585.77874" y="7.2" style="stroke: #000000"/>
      </g>
     </g>
     <g id="text_21">
      <!-- 1.0 -->
      <g transform="translate(576.236865 321.528125) scale(0.12 -0.12)">
       <use xlink:href="#DejaVuSerif-31"/>
       <use xlink:href="#DejaVuSerif-2e" x="63.623047"/>
       <use xlink:href="#DejaVuSerif-30" x="95.410156"/>
      </g>
     </g>
    </g>
    <g id="xtick_12">
     <g id="line2d_37">
      <g>
       <use xlink:href="#m928a788a35" x="635.136106" y="308.91" style="stroke: #000000"/>
      </g>
     </g>
     <g id="line2d_38">
      <g>
       <use xlink:href="#m278d2d3c48" x="635.136106" y="7.2" style="stroke: #000000"/>
      </g>
     </g>
     <g id="text_22">
      <!-- 1.5 -->
      <g transform="translate(625.594231 321.528125) scale(0.12 -0.12)">
       <use xlink:href="#DejaVuSerif-31"/>
       <use xlink:href="#DejaVuSerif-2e" x="63.623047"/>
       <use xlink:href="#DejaVuSerif-35" x="95.410156"/>
      </g>
     </g>
    </g>
    <g id="xtick_13">
     <g id="line2d_39">
      <g>
       <use xlink:href="#m928a788a35" x="684.493472" y="308.91" style="stroke: #000000"/>
      </g>
     </g>
     <g id="line2d_40">
      <g>
       <use xlink:href="#m278d2d3c48" x="684.493472" y="7.2" style="stroke: #000000"/>
      </g>
     </g>
     <g id="text_23">
      <!-- 2.0 -->
      <g transform="translate(674.951597 321.528125) scale(0.12 -0.12)">
       <use xlink:href="#DejaVuSerif-32"/>
       <use xlink:href="#DejaVuSerif-2e" x="63.623047"/>
       <use xlink:href="#DejaVuSerif-30" x="95.410156"/>
      </g>
     </g>
    </g>
    <g id="xtick_14">
     <g id="line2d_41">
      <g>
       <use xlink:href="#m928a788a35" x="733.850838" y="308.91" style="stroke: #000000"/>
      </g>
     </g>
     <g id="line2d_42">
      <g>
       <use xlink:href="#m278d2d3c48" x="733.850838" y="7.2" style="stroke: #000000"/>
      </g>
     </g>
     <g id="text_24">
      <!-- 2.5 -->
      <g transform="translate(724.308963 321.528125) scale(0.12 -0.12)">
       <use xlink:href="#DejaVuSerif-32"/>
       <use xlink:href="#DejaVuSerif-2e" x="63.623047"/>
       <use xlink:href="#DejaVuSerif-35" x="95.410156"/>
      </g>
     </g>
    </g>
    <g id="xtick_15">
     <g id="line2d_43">
      <g>
       <use xlink:href="#m928a788a35" x="783.208204" y="308.91" style="stroke: #000000"/>
      </g>
     </g>
     <g id="line2d_44">
      <g>
       <use xlink:href="#m278d2d3c48" x="783.208204" y="7.2" style="stroke: #000000"/>
      </g>
     </g>
     <g id="text_25">
      <!-- 3.0 -->
      <g transform="translate(773.666329 321.528125) scale(0.12 -0.12)">
       <defs>
        <path id="DejaVuSerif-33" d="M 622 4469 
Q 988 4606 1323 4678 
Q 1659 4750 1953 4750 
Q 2638 4750 3022 4454 
Q 3406 4159 3406 3634 
Q 3406 3213 3140 2930 
Q 2875 2647 2388 2547 
Q 2963 2466 3280 2130 
Q 3597 1794 3597 1259 
Q 3597 606 3158 257 
Q 2719 -91 1894 -91 
Q 1528 -91 1179 -12 
Q 831 66 488 225 
L 488 1131 
L 838 1131 
Q 869 681 1141 450 
Q 1413 219 1906 219 
Q 2384 219 2661 495 
Q 2938 772 2938 1253 
Q 2938 1803 2653 2086 
Q 2369 2369 1819 2369 
L 1522 2369 
L 1522 2688 
L 1678 2688 
Q 2225 2688 2498 2914 
Q 2772 3141 2772 3597 
Q 2772 4006 2547 4223 
Q 2322 4441 1900 4441 
Q 1478 4441 1245 4241 
Q 1013 4041 972 3647 
L 622 3647 
L 622 4469 
z
" transform="scale(0.015625)"/>
       </defs>
       <use xlink:href="#DejaVuSerif-33"/>
       <use xlink:href="#DejaVuSerif-2e" x="63.623047"/>
       <use xlink:href="#DejaVuSerif-30" x="95.410156"/>
      </g>
     </g>
    </g>
    <g id="xtick_16">
     <g id="line2d_45">
      <g>
       <use xlink:href="#m928a788a35" x="832.56557" y="308.91" style="stroke: #000000"/>
      </g>
     </g>
     <g id="line2d_46">
      <g>
       <use xlink:href="#m278d2d3c48" x="832.56557" y="7.2" style="stroke: #000000"/>
      </g>
     </g>
     <g id="text_26">
      <!-- 3.5 -->
      <g transform="translate(823.023695 321.528125) scale(0.12 -0.12)">
       <use xlink:href="#DejaVuSerif-33"/>
       <use xlink:href="#DejaVuSerif-2e" x="63.623047"/>
       <use xlink:href="#DejaVuSerif-35" x="95.410156"/>
      </g>
     </g>
    </g>
    <g id="text_27">
     <!-- Attention Entropy (nats) -->
     <g transform="translate(575.775469 338.661562) scale(0.14 -0.14)">
      <defs>
       <path id="DejaVuSerif-70" d="M 1313 1825 
L 1313 1497 
Q 1313 897 1542 583 
Q 1772 269 2209 269 
Q 2650 269 2876 622 
Q 3103 975 3103 1663 
Q 3103 2353 2876 2703 
Q 2650 3053 2209 3053 
Q 1772 3053 1542 2737 
Q 1313 2422 1313 1825 
z
M 738 2988 
L 184 2988 
L 184 3322 
L 1313 3322 
L 1313 2803 
Q 1481 3116 1742 3264 
Q 2003 3413 2388 3413 
Q 3000 3413 3387 2928 
Q 3775 2444 3775 1663 
Q 3775 881 3387 395 
Q 3000 -91 2388 -91 
Q 2003 -91 1742 57 
Q 1481 206 1313 519 
L 1313 -997 
L 1856 -997 
L 1856 -1331 
L 184 -1331 
L 184 -997 
L 738 -997 
L 738 2988 
z
" transform="scale(0.015625)"/>
       <path id="DejaVuSerif-79" d="M 1381 -609 
L 1600 -56 
L 359 2988 
L -19 2988 
L -19 3322 
L 1509 3322 
L 1509 2988 
L 978 2988 
L 1913 703 
L 2847 2988 
L 2350 2988 
L 2350 3322 
L 3597 3322 
L 3597 2988 
L 3225 2988 
L 1703 -750 
Q 1547 -1138 1356 -1280 
Q 1166 -1422 819 -1422 
Q 672 -1422 517 -1397 
Q 363 -1372 206 -1325 
L 206 -691 
L 500 -691 
Q 519 -903 608 -995 
Q 697 -1088 884 -1088 
Q 1056 -1088 1161 -992 
Q 1266 -897 1381 -609 
z
" transform="scale(0.015625)"/>
      </defs>
      <use xlink:href="#DejaVuSerif-41"/>
      <use xlink:href="#DejaVuSerif-74" x="70.466797"/>
      <use xlink:href="#DejaVuSerif-74" x="110.652344"/>
      <use xlink:href="#DejaVuSerif-65" x="150.837891"/>
      <use xlink:href="#DejaVuSerif-6e" x="210.017578"/>
      <use xlink:href="#DejaVuSerif-74" x="274.421875"/>
      <use xlink:href="#DejaVuSerif-69" x="314.607422"/>
      <use xlink:href="#DejaVuSerif-6f" x="346.589844"/>
      <use xlink:href="#DejaVuSerif-6e" x="406.794922"/>
      <use xlink:href="#DejaVuSerif-20" x="471.199219"/>
      <use xlink:href="#DejaVuSerif-45" x="502.986328"/>
      <use xlink:href="#DejaVuSerif-6e" x="575.984375"/>
      <use xlink:href="#DejaVuSerif-74" x="640.388672"/>
      <use xlink:href="#DejaVuSerif-72" x="680.574219"/>
      <use xlink:href="#DejaVuSerif-6f" x="728.376953"/>
      <use xlink:href="#DejaVuSerif-70" x="788.582031"/>
      <use xlink:href="#DejaVuSerif-79" x="852.595703"/>
      <use xlink:href="#DejaVuSerif-20" x="909.089844"/>
      <use xlink:href="#DejaVuSerif-28" x="940.876953"/>
      <use xlink:href="#DejaVuSerif-6e" x="979.890625"/>
      <use xlink:href="#DejaVuSerif-61" x="1044.294922"/>
      <use xlink:href="#DejaVuSerif-74" x="1103.914062"/>
      <use xlink:href="#DejaVuSerif-73" x="1144.099609"/>
      <use xlink:href="#DejaVuSerif-29" x="1195.417969"/>
     </g>
    </g>
   </g>
   <g id="matplotlib.axis_4">
    <g id="ytick_8">
     <g id="line2d_47">
      <g>
       <use xlink:href="#m474fadbb46" x="478.767187" y="308.91" style="stroke: #000000"/>
      </g>
     </g>
     <g id="line2d_48">
      <g>
       <use xlink:href="#m6bbfc234ef" x="845.607188" y="308.91" style="stroke: #000000"/>
      </g>
     </g>
     <g id="text_28">
      <!-- 0 -->
      <g transform="translate(467.632187 313.469062) scale(0.12 -0.12)">
       <use xlink:href="#DejaVuSerif-30"/>
      </g>
     </g>
    </g>
    <g id="ytick_9">
     <g id="line2d_49">
      <g>
       <use xlink:href="#m474fadbb46" x="478.767187" y="265.040862" style="stroke: #000000"/>
      </g>
     </g>
     <g id="line2d_50">
      <g>
       <use xlink:href="#m6bbfc234ef" x="845.607188" y="265.040862" style="stroke: #000000"/>
      </g>
     </g>
     <g id="text_29">
      <!-- 20 -->
      <g transform="translate(459.997187 269.599924) scale(0.12 -0.12)">
       <use xlink:href="#DejaVuSerif-32"/>
       <use xlink:href="#DejaVuSerif-30" x="63.623047"/>
      </g>
     </g>
    </g>
    <g id="ytick_10">
     <g id="line2d_51">
      <g>
       <use xlink:href="#m474fadbb46" x="478.767187" y="221.171723" style="stroke: #000000"/>
      </g>
     </g>
     <g id="line2d_52">
      <g>
       <use xlink:href="#m6bbfc234ef" x="845.607188" y="221.171723" style="stroke: #000000"/>
      </g>
     </g>
     <g id="text_30">
      <!-- 40 -->
      <g transform="translate(459.997187 225.730786) scale(0.12 -0.12)">
       <use xlink:href="#DejaVuSerif-34"/>
       <use xlink:href="#DejaVuSerif-30" x="63.623047"/>
      </g>
     </g>
    </g>
    <g id="ytick_11">
     <g id="line2d_53">
      <g>
       <use xlink:href="#m474fadbb46" x="478.767187" y="177.302585" style="stroke: #000000"/>
      </g>
     </g>
     <g id="line2d_54">
      <g>
       <use xlink:href="#m6bbfc234ef" x="845.607188" y="177.302585" style="stroke: #000000"/>
      </g>
     </g>
     <g id="text_31">
      <!-- 60 -->
      <g transform="translate(459.997187 181.861647) scale(0.12 -0.12)">
       <use xlink:href="#DejaVuSerif-36"/>
       <use xlink:href="#DejaVuSerif-30" x="63.623047"/>
      </g>
     </g>
    </g>
    <g id="ytick_12">
     <g id="line2d_55">
      <g>
       <use xlink:href="#m474fadbb46" x="478.767187" y="133.433446" style="stroke: #000000"/>
      </g>
     </g>
     <g id="line2d_56">
      <g>
       <use xlink:href="#m6bbfc234ef" x="845.607188" y="133.433446" style="stroke: #000000"/>
      </g>
     </g>
     <g id="text_32">
      <!-- 80 -->
      <g transform="translate(459.997187 137.992509) scale(0.12 -0.12)">
       <use xlink:href="#DejaVuSerif-38"/>
       <use xlink:href="#DejaVuSerif-30" x="63.623047"/>
      </g>
     </g>
    </g>
    <g id="ytick_13">
     <g id="line2d_57">
      <g>
       <use xlink:href="#m474fadbb46" x="478.767187" y="89.564308" style="stroke: #000000"/>
      </g>
     </g>
     <g id="line2d_58">
      <g>
       <use xlink:href="#m6bbfc234ef" x="845.607188" y="89.564308" style="stroke: #000000"/>
      </g>
     </g>
     <g id="text_33">
      <!-- 100 -->
      <g transform="translate(452.362188 94.12337) scale(0.12 -0.12)">
       <use xlink:href="#DejaVuSerif-31"/>
       <use xlink:href="#DejaVuSerif-30" x="63.623047"/>
       <use xlink:href="#DejaVuSerif-30" x="127.246094"/>
      </g>
     </g>
    </g>
    <g id="ytick_14">
     <g id="line2d_59">
      <g>
       <use xlink:href="#m474fadbb46" x="478.767187" y="45.695169" style="stroke: #000000"/>
      </g>
     </g>
     <g id="line2d_60">
      <g>
       <use xlink:href="#m6bbfc234ef" x="845.607188" y="45.695169" style="stroke: #000000"/>
      </g>
     </g>
     <g id="text_34">
      <!-- 120 -->
      <g transform="translate(452.362188 50.254232) scale(0.12 -0.12)">
       <use xlink:href="#DejaVuSerif-31"/>
       <use xlink:href="#DejaVuSerif-32" x="63.623047"/>
       <use xlink:href="#DejaVuSerif-30" x="127.246094"/>
      </g>
     </g>
    </g>
    <g id="text_35">
     <!-- Number of Samples -->
     <g transform="translate(445.450625 228.612812) rotate(-90) scale(0.14 -0.14)">
      <defs>
       <path id="DejaVuSerif-4e" d="M 313 0 
L 313 331 
L 941 331 
L 941 4331 
L 313 4331 
L 313 4666 
L 1509 4666 
L 4306 984 
L 4306 4331 
L 3681 4331 
L 3681 4666 
L 5319 4666 
L 5319 4331 
L 4691 4331 
L 4691 -91 
L 4313 -91 
L 1325 3841 
L 1325 331 
L 1953 331 
L 1953 0 
L 313 0 
z
" transform="scale(0.015625)"/>
       <path id="DejaVuSerif-62" d="M 738 331 
L 738 4531 
L 184 4531 
L 184 4863 
L 1313 4863 
L 1313 2803 
Q 1481 3116 1742 3264 
Q 2003 3413 2388 3413 
Q 3000 3413 3387 2928 
Q 3775 2444 3775 1663 
Q 3775 881 3387 395 
Q 3000 -91 2388 -91 
Q 2003 -91 1742 57 
Q 1481 206 1313 519 
L 1313 0 
L 184 0 
L 184 331 
L 738 331 
z
M 1313 1497 
Q 1313 897 1542 583 
Q 1772 269 2209 269 
Q 2650 269 2876 622 
Q 3103 975 3103 1663 
Q 3103 2353 2876 2703 
Q 2650 3053 2209 3053 
Q 1772 3053 1542 2737 
Q 1313 2422 1313 1825 
L 1313 1497 
z
" transform="scale(0.015625)"/>
       <path id="DejaVuSerif-6c" d="M 1313 331 
L 1856 331 
L 1856 0 
L 184 0 
L 184 331 
L 738 331 
L 738 4531 
L 184 4531 
L 184 4863 
L 1313 4863 
L 1313 331 
z
" transform="scale(0.015625)"/>
      </defs>
      <use xlink:href="#DejaVuSerif-4e"/>
      <use xlink:href="#DejaVuSerif-75" x="87.5"/>
      <use xlink:href="#DejaVuSerif-6d" x="151.904297"/>
      <use xlink:href="#DejaVuSerif-62" x="246.728516"/>
      <use xlink:href="#DejaVuSerif-65" x="310.742188"/>
      <use xlink:href="#DejaVuSerif-72" x="369.921875"/>
      <use xlink:href="#DejaVuSerif-20" x="417.724609"/>
      <use xlink:href="#DejaVuSerif-6f" x="449.511719"/>
      <use xlink:href="#DejaVuSerif-66" x="509.716797"/>
      <use xlink:href="#DejaVuSerif-20" x="546.728516"/>
      <use xlink:href="#DejaVuSerif-53" x="578.515625"/>
      <use xlink:href="#DejaVuSerif-61" x="647.021484"/>
      <use xlink:href="#DejaVuSerif-6d" x="706.640625"/>
      <use xlink:href="#DejaVuSerif-70" x="801.464844"/>
      <use xlink:href="#DejaVuSerif-6c" x="865.478516"/>
      <use xlink:href="#DejaVuSerif-65" x="897.460938"/>
      <use xlink:href="#DejaVuSerif-73" x="956.640625"/>
     </g>
    </g>
   </g>
   <g id="line2d_61">
    <path d="M 682.162124 308.91 
L 682.162124 7.2 
" clip-path="url(#p244153385e)" style="fill: none; stroke-dasharray: 5.55,2.4; stroke-dashoffset: 0; stroke: #000000; stroke-width: 1.5"/>
   </g>
   <g id="patch_79">
    <path d="M 478.767187 308.91 
L 478.767187 7.2 
" style="fill: none; stroke: #000000; stroke-linejoin: miter; stroke-linecap: square"/>
   </g>
   <g id="patch_80">
    <path d="M 845.607188 308.91 
L 845.607188 7.2 
" style="fill: none; stroke: #000000; stroke-linejoin: miter; stroke-linecap: square"/>
   </g>
   <g id="patch_81">
    <path d="M 478.767187 308.91 
L 845.607188 308.91 
" style="fill: none; stroke: #000000; stroke-linejoin: miter; stroke-linecap: square"/>
   </g>
   <g id="patch_82">
    <path d="M 478.767187 7.2 
L 845.607188 7.2 
" style="fill: none; stroke: #000000; stroke-linejoin: miter; stroke-linecap: square"/>
   </g>
   <g id="legend_1">
    <g id="patch_83">
     <path d="M 737.396406 32.145937 
L 840.107187 32.145937 
L 840.107187 12.7 
L 737.396406 12.7 
z
" style="fill: #ffffff; stroke: #000000; stroke-linejoin: miter"/>
    </g>
    <g id="line2d_62">
     <path d="M 741.796406 21.608281 
L 752.796406 21.608281 
L 763.796406 21.608281 
" style="fill: none; stroke-dasharray: 5.55,2.4; stroke-dashoffset: 0; stroke: #000000; stroke-width: 1.5"/>
    </g>
    <g id="text_36">
     <!-- Mean: 1.98 -->
     <g transform="translate(772.596406 25.458281) scale(0.11 -0.11)">
      <defs>
       <path id="DejaVuSerif-39" d="M 2994 2091 
Q 2784 1856 2512 1740 
Q 2241 1625 1900 1625 
Q 1206 1625 804 2044 
Q 403 2463 403 3188 
Q 403 3897 839 4323 
Q 1275 4750 2003 4750 
Q 2794 4750 3217 4161 
Q 3641 3572 3641 2478 
Q 3641 1253 3137 581 
Q 2634 -91 1722 -91 
Q 1475 -91 1203 -44 
Q 931 3 647 97 
L 647 872 
L 997 872 
Q 1038 556 1241 387 
Q 1444 219 1784 219 
Q 2391 219 2687 676 
Q 2984 1134 2994 2091 
z
M 1978 4441 
Q 1534 4441 1298 4117 
Q 1063 3794 1063 3188 
Q 1063 2581 1298 2256 
Q 1534 1931 1978 1931 
Q 2422 1931 2658 2245 
Q 2894 2559 2894 3150 
Q 2894 3772 2656 4106 
Q 2419 4441 1978 4441 
z
" transform="scale(0.015625)"/>
      </defs>
      <use xlink:href="#DejaVuSerif-4d"/>
      <use xlink:href="#DejaVuSerif-65" x="102.392578"/>
      <use xlink:href="#DejaVuSerif-61" x="161.572266"/>
      <use xlink:href="#DejaVuSerif-6e" x="221.191406"/>
      <use xlink:href="#DejaVuSerif-3a" x="285.595703"/>
      <use xlink:href="#DejaVuSerif-20" x="319.287109"/>
      <use xlink:href="#DejaVuSerif-31" x="351.074219"/>
      <use xlink:href="#DejaVuSerif-2e" x="414.697266"/>
      <use xlink:href="#DejaVuSerif-39" x="446.484375"/>
      <use xlink:href="#DejaVuSerif-38" x="510.107422"/>
     </g>
    </g>
   </g>
  </g>
 </g>
 <defs>
  <clipPath id="pb3e8da4c2a">
   <rect x="55.167188" y="7.2" width="366.84" height="301.71"/>
  </clipPath>
  <clipPath id="p244153385e">
   <rect x="478.767187" y="7.2" width="366.84" height="301.71"/>
  </clipPath>
 </defs>
</svg>
